<?xml version="1.0" encoding="utf-8"?>
<!-- Generator: Adobe Illustrator 16.0.0, SVG Export Plug-In . SVG Version: 6.00 Build 0)  -->
<!DOCTYPE svg PUBLIC "-//W3C//DTD SVG 1.1//EN" "http://www.w3.org/Graphics/SVG/1.1/DTD/svg11.dtd">
<svg version="1.1" id="Layer_1" xmlns="http://www.w3.org/2000/svg" xmlns:xlink="http://www.w3.org/1999/xlink" x="0px" y="0px"
	 width="400px" height="145px" viewBox="0 0 400 145" enable-background="new 0 0 400 145" xml:space="preserve">
<g>
	<path fill-rule="evenodd" clip-rule="evenodd" fill="#008E5A" d="M135.461,4.932c-11.679,2.372-22.773,9.955-30.444,20.812
		c-4.641,6.57-10.448,17.902-11.711,34.588c-0.919,12.178,2.476,24.457,8.867,32.039c7.612,9.049,16.266,12.889,28.928,12.828
		c12.069-0.048,19.271-3.905,23.646-6.794c16.404-10.89,21.635-28.361,21.846-29.098l0.509-1.734h-22.969l-0.377,0.69
		c-0.05,0.081-4.714,8.386-10.664,11.084c-6.475,2.944-8.202,2.901-11.975,2.815l-0.62-0.013
		c-8.365-0.182-16.603-8.177-15.909-21.245c0.687-12.826,4.142-18.355,7.617-22.911c4.54-5.928,8.726-9.315,17.821-10.229
		c7.418-0.741,11.854,2.773,13.838,4.941c4.999,5.426,5.732,11.861,5.734,11.924l0.117,1.116h0.957h20.638l-0.076-1.559
		c-0.025-0.767-0.984-18.881-13.318-30.59C159.867,5.963,147.132,2.563,135.461,4.932 M103.894,90.343
		c-5.954-7.066-9.117-18.554-8.254-29.974c1.211-15.931,6.724-26.712,11.131-32.955c7.28-10.3,17.822-17.505,28.914-19.761
		c11.051-2.249,23.089,0.954,30.677,8.153c9.648,9.161,11.884,22.75,12.384,27.173h-17c-0.426-2.253-1.834-7.608-6.219-12.375
		c-2.24-2.444-7.246-6.42-15.527-5.593c-9.867,0.989-14.612,4.864-19.476,11.217c-3.618,4.74-7.547,10.949-8.274,24.716
		c-0.786,14.736,8.551,23.763,18.026,23.974l0.612,0.016c3.852,0.076,5.97,0.129,12.89-3.015c5.766-2.61,10.199-9.422,11.494-11.583
		h18.485c-1.678,4.478-7.33,17.248-20.034,25.675c-4.128,2.737-10.946,6.373-22.453,6.42
		C119.258,102.492,111.07,98.876,103.894,90.343"/>
	<path fill-rule="evenodd" clip-rule="evenodd" fill="#008E5A" d="M163.751,39.943h11.787c0,0-2.004-14.596-11.396-22.309
		c-6.517-5.351-17.599-9.406-28.892-7.112c-11.301,2.294-19.643,9.279-26.522,19.028c-5.187,7.34-9.542,18.263-10.528,30.169
		c-0.987,11.92,2.605,22.57,8.16,29.176c6.81,8.089,14.282,10.898,25.007,10.898c10.719,0,16.481-3.376,21.198-6.351
		c11.619-7.348,16.731-20.017,16.731-20.017h-12.645c0,0-6.578,8.863-12.754,11.659c-6.759,3.071-10.688,3.026-14.745,2.778
		c-3.211-0.197-19.225-4.295-19.599-24.852c-0.23-12.924,4.715-23.574,9.383-29.154c4.671-5.57,10.879-12.184,22.663-12.184
		c10.064,0,13.841,4.563,16.856,7.622C161.894,32.764,163.751,39.943,163.751,39.943"/>
	<path fill-rule="evenodd" clip-rule="evenodd" fill="#008E5A" d="M295.912,6.125h-55.397l-18.233,98.113h56.072l4.865-23.822
		c0,0-29.108,0.015-32.147,0.017c0.502-2.501,2.479-12.275,2.829-14.007c2.109,0,32.571,0.031,32.571,0.031l3.602-23.867h-31.729
		c0.452-2.429,2.122-11.478,2.44-13.213h32.152l4.668-23.25H295.912z M294.227,8.894c-0.527,2.629-3.19,15.897-3.557,17.713h-32.188
		l-3.462,18.746h31.838c-0.387,2.552-2.471,16.401-2.77,18.336c-2.206-0.004-32.45-0.031-32.45-0.031l-3.945,19.537
		c0,0,29.099-0.016,32.142-0.016c-0.55,2.656-3.364,16.471-3.738,18.291h-50.494c0.581-3.123,16.809-90.408,17.214-92.577H294.227z"
		/>
	<polygon fill-rule="evenodd" clip-rule="evenodd" fill="#008E5A" points="228.491,98.36 273.698,98.36 276.261,86.286 
		243.393,86.277 248.589,60.549 281.14,60.549 283.067,48.663 250.903,48.663 255.974,23.688 288.14,23.688 290.645,11.939 
		244.866,11.939 	"/>
	<polygon fill-rule="evenodd" clip-rule="evenodd" fill="#008E5A" points="174.518,98.36 186.975,98.36 194.611,60.549 
		227.168,60.549 229.098,48.663 196.92,48.663 201.227,23.688 233.772,23.688 236.142,11.939 190.886,11.939 	"/>
	<path fill-rule="evenodd" clip-rule="evenodd" fill="#008E5A" d="M241.684,6.125h-55.39l-18.232,98.097l23.863,0.219
		c0,0,7.326-35.927,7.749-38.016c2.109,0,32.572,0.031,32.572,0.031l3.601-23.867h-31.721c0.444-2.429,2.116-11.476,2.438-13.213
		h32.15l4.666-23.25H241.684z M240.005,8.894c-0.531,2.629-3.193,15.897-3.562,17.713h-32.18l-3.462,18.746h31.833
		c-0.383,2.552-2.475,16.401-2.77,18.336c-2.208-0.004-32.449-0.031-32.449-0.031s-7.323,35.896-7.748,37.99
		c-1.875-0.011-15.654-0.137-18.286-0.165c0.574-3.092,16.801-90.42,17.205-92.589H240.005z"/>
	<path fill="#008E5A" d="M18.793,132.288c-0.119,0.419-0.247,0.867-0.363,1.289c-1.08,4.093-3.126,7.234-7.785,7.234
		c-6.871,0-6.4-4.366-5.125-10.348l0.682-3.2c1.39-5.71,2.742-9.952,9.441-9.952c3.721,0.059,5.407,1.976,4.891,5.801
		c-0.06,0.567-0.121,1.137-0.269,1.704h-4.128c0.121-1.437,0.846-4.128-1.218-4.128c-3.284,0-3.846,3.921-4.216,5.65l-1.32,6.217
		c-0.397,1.855-0.889,4.876,1.983,4.876c2.298,0,2.819-3.71,3.217-5.144H18.793z"/>
	<path fill="#008E5A" d="M25.353,129.146c0.332-1.578,0.679-3.194,2.738-3.194c1.945,0,1.604,1.616,1.269,3.194l-1.197,5.625
		c-0.438,2.063-0.781,2.956-2.571,2.956c-1.882,0-1.873-0.893-1.436-2.956L25.353,129.146z M24.952,140.721
		c5.007,0.091,6.376-2.424,7.589-8.281c1.199-5.772,1.96-9.48-3.813-9.48c-5.866,0-6.705,3.708-7.957,9.48
		C19.488,138.297,19.824,140.812,24.952,140.721"/>
	<path fill="#008E5A" d="M40.641,125.145h0.063c1.256-1.855,2.899-2.124,4.169-2.186c1.443-0.025,3.217,0.601,3.157,2.186
		c1.086-1.462,2.464-2.186,4.375-2.186c2.866,0,3.745,1.794,3.363,3.59l-2.914,13.721h-3.893l2.419-11.393
		c0.332-1.521,0.497-3.014-1.23-2.922c-1.688,0.082-2.234,1.246-2.654,3.224L45.14,140.27h-3.893l2.468-11.599
		c0.321-1.492,0.467-2.753-1.334-2.716c-1.831,0.024-2.2,1.37-2.6,3.224l-2.357,11.091h-3.885l3.587-16.86h3.88L40.641,125.145z"/>
	<path fill="#008E5A" d="M56.144,140.27l3.58-16.86h3.885l-3.585,16.86H56.144z M60.153,121.377l0.756-3.531h3.883l-0.749,3.531
		H60.153z"/>
	<path fill="#008E5A" d="M67.25,134.71c-0.961,3.106,0.25,3.021,1.15,3.021c1.106,0,2.051-0.808,2.013-1.884
		c0.146-0.957-0.85-1.493-1.487-2.002l-1.81-1.466c-1.658-1.346-2.585-2.898-2.067-5.322c0.551-2.601,2.932-4.098,6.665-4.098
		c3.771,0,5.089,1.979,4.226,5.59h-3.882c0.481-1.882,0.104-2.597-1.243-2.597c-0.929,0-1.729,0.415-1.937,1.373
		c-0.21,0.994,0.415,1.435,1.052,1.944l2.712,2.153c0.867,0.561,2.079,2.186,1.953,3.317c-0.291,2.93-1.659,5.98-7.037,5.98
		c-2.065,0-5.74-0.868-4.196-6.011H67.25z"/>
	<path fill="#008E5A" d="M75.929,140.27l3.58-16.86h3.893l-3.584,16.86H75.929z M79.946,121.377l0.751-3.531h3.883l-0.747,3.531
		H79.946z"/>
	<path fill="#008E5A" d="M88.964,129.146c0.34-1.578,0.678-3.194,2.745-3.194c1.945,0,1.601,1.616,1.267,3.194l-1.203,5.625
		c-0.438,2.063-0.776,2.956-2.569,2.956c-1.88,0-1.875-0.893-1.432-2.956L88.964,129.146z M90.122,121.468h3.018l5.358-4.369h-4.639
		L90.122,121.468z M88.573,140.721c5.001,0.091,6.369-2.424,7.589-8.281c1.196-5.772,1.955-9.48-3.818-9.48
		c-5.862,0-6.708,3.708-7.959,9.48C83.108,138.297,83.442,140.812,88.573,140.721"/>
	<path fill="#008E5A" d="M104.104,125.145h0.064c1.28-1.942,3.062-2.186,3.958-2.186c2.217,0,3.74,1.285,2.979,4.305l-2.77,13.006
		h-3.888l2.391-11.239c0.352-1.645,0.396-2.723-1.057-2.78c-1.453-0.059-2.249,1.318-2.572,3.111l-2.321,10.908h-3.883l3.583-16.86
		h3.888L104.104,125.145z"/>
	<polygon fill="#008E5A" points="117.992,140.27 122.759,117.849 134.626,117.849 133.924,121.139 126.243,121.139 125.04,126.816 
		132.243,126.816 131.54,130.103 124.337,130.103 122.178,140.27 	"/>
	<path fill="#008E5A" d="M137.556,129.659l0.147-0.69c0.321-1.522,0.552-3.02,2.498-3.02c1.55,0,1.881,0.541,1.55,2.245l-0.31,1.465
		H137.556z M132.824,133.633c-1.144,4.968,0.229,7.088,4.714,7.088c3.971,0,6.042-2.393,6.689-6.162h-3.884
		c-0.396,2.128-1.033,3.166-2.468,3.166c-1.165,0-1.914-0.415-1.476-2.629l0.523-2.449h7.772l0.479-2.271
		c0.979-4.606,1.009-7.417-4.4-7.417c-3.827,0-6.343,2.276-7.006,6.248L132.824,133.633z"/>
	<path fill="#008E5A" d="M154.144,134.74c-0.412,1.943-1.261,2.987-2.52,2.987c-1.196,0-1.339-1.282-1.085-2.901l1.194-5.619
		c0.474-1.674,0.629-3.255,2.456-3.255c1.83,0,1.375,2.396,1.027,3.735L154.144,134.74z M152.966,140.27h3.887l4.767-22.421h-3.893
		l-1.22,5.768c-0.105,0.509-0.184,0.993-0.199,1.499h-0.059c-0.433-1.615-1.355-2.184-3.015-2.156
		c-2.523,0.062-4.258,1.342-5.333,5.979l-1.296,6.095c-0.482,2.694-0.428,5.688,2.861,5.688c1.544-0.092,2.714-0.537,3.822-2.241
		h0.063L152.966,140.27z"/>
	<path fill="#008E5A" d="M165.66,129.659l0.142-0.69c0.325-1.522,0.555-3.02,2.498-3.02c1.555,0,1.89,0.541,1.557,2.245
		l-0.317,1.465H165.66z M160.922,133.633c-1.142,4.968,0.233,7.088,4.718,7.088c3.971,0,6.037-2.393,6.685-6.162h-3.887
		c-0.388,2.128-1.026,3.166-2.463,3.166c-1.17,0-1.919-0.415-1.475-2.629l0.516-2.449h7.778l0.484-2.271
		c0.979-4.606,1.008-7.417-4.406-7.417c-3.828,0-6.34,2.276-7.006,6.248L160.922,133.633z"/>
	<path fill="#008E5A" d="M180.493,126.399h0.055c0.742-1.227,1.367-1.918,2.038-2.391c1.301-0.928,2.033-0.864,2.609-0.896
		l-0.977,4.602c-2.105-0.206-3.869,0.329-4.458,2.813l-2.072,9.742h-3.881l3.582-16.86h3.74L180.493,126.399z"/>
	<path fill="#008E5A" d="M191.505,133.213c-0.431,1.613-0.628,4.515-2.933,4.515c-1.433,0-1.634-0.87-1.368-2.154
		c0.159-0.711,0.421-1.55,1.091-2.031c1.194-0.835,2.505-1.492,3.601-2.15L191.505,133.213z M194.223,140.27
		c-0.046-0.774,0-1.554,0.168-2.365l2.121-9.946c0.524-2.219,0.791-4.999-4.502-4.999c-4.87,0-6.396,2.247-7.04,5.443h3.708
		c0.292-1.528,0.787-2.45,2.553-2.45c1.04,0,1.616,0.116,1.636,0.864c0.038,1.378-0.716,2.122-2.512,2.815
		c-3.313,1.25-6.229,2.175-7.052,6.034c-0.733,3.468,0.297,5.055,3.438,5.055c1.315,0,2.676-0.785,3.875-2.186h0.06
		c-0.189,0.599-0.287,1.192-0.129,1.734H194.223z"/>
	<polygon fill="#008E5A" points="197.331,140.27 202.097,117.849 205.983,117.849 201.217,140.27 	"/>
	<path fill="#008E5A" d="M219.348,134.74c-0.415,1.943-1.271,2.987-2.521,2.987c-1.193,0-1.338-1.282-1.088-2.901l1.188-5.619
		c0.486-1.674,0.644-3.255,2.464-3.255c1.821,0,1.371,2.396,1.025,3.735L219.348,134.74z M218.169,140.27h3.883l4.775-22.421h-3.893
		l-1.224,5.768c-0.109,0.509-0.185,0.993-0.197,1.499h-0.063c-0.436-1.615-1.361-2.184-3.011-2.156
		c-2.523,0.062-4.264,1.342-5.337,5.979l-1.296,6.095c-0.483,2.694-0.434,5.688,2.865,5.688c1.54-0.092,2.711-0.537,3.819-2.241
		h0.061L218.169,140.27z"/>
	<path fill="#008E5A" d="M230.853,129.659l0.153-0.69c0.318-1.522,0.545-3.02,2.488-3.02c1.559,0,1.896,0.541,1.56,2.245
		l-0.311,1.465H230.853z M226.129,133.633c-1.146,4.968,0.218,7.088,4.71,7.088c3.973,0,6.034-2.393,6.692-6.162h-3.893
		c-0.388,2.128-1.035,3.166-2.465,3.166c-1.165,0-1.913-0.415-1.473-2.629l0.52-2.449h7.775l0.48-2.271
		c0.979-4.606,1.011-7.417-4.404-7.417c-3.826,0-6.34,2.276-7.005,6.248L226.129,133.633z"/>
	<polygon fill="#008E5A" points="245.706,140.27 250.47,117.849 262.252,117.849 261.548,121.139 253.953,121.139 252.754,126.794 
		259.748,126.794 259.047,130.071 252.059,130.071 250.586,136.982 258.177,136.982 257.481,140.27 	"/>
	<polygon fill="#008E5A" points="260.051,140.27 264.816,117.849 268.701,117.849 263.934,140.27 	"/>
	<path fill="#008E5A" d="M272.949,129.659l0.147-0.69c0.324-1.522,0.551-3.02,2.499-3.02c1.548,0,1.881,0.541,1.548,2.245
		l-0.302,1.465H272.949z M268.217,133.633c-1.139,4.968,0.229,7.088,4.713,7.088c3.976,0,6.04-2.393,6.688-6.162h-3.886
		c-0.391,2.128-1.034,3.166-2.465,3.166c-1.172,0-1.921-0.415-1.478-2.629l0.524-2.449h7.773l0.486-2.271
		c0.972-4.606,1.004-7.417-4.401-7.417c-3.834,0-6.346,2.276-7.012,6.248L268.217,133.633z"/>
	<path fill="#008E5A" d="M289.774,129.272l0.396-1.887c0.141-0.927-0.204-1.437-1.034-1.437c-1.501,0-1.861,1.704-2.276,3.773
		l-0.84,3.971c-0.783,3.289-0.528,3.886,0.607,4.031c1.204-0.025,1.47-1.132,1.872-2.478l0.328-1.554h3.893l-0.331,1.554
		c-0.754,3.525-2.631,5.474-6.485,5.474c-3.444,0-5.025-1.822-3.922-6.31l1.17-5.473c0.962-4.725,3.566-5.979,6.521-5.979
		c3.92,0,4.83,2.453,4.267,4.968l-0.286,1.346H289.774z"/>
	<path fill="#008E5A" d="M299.198,140.334c-2.356,0.265-5.625,0.478-4.968-2.662l2.431-11.419h-1.58l0.599-2.844h1.556l0.981-4.633
		h3.921l-0.987,4.633h1.647l-0.612,2.844h-1.639l-2.224,10.46c-0.06,0.719,1.029,0.631,1.522,0.567L299.198,140.334z"/>
	<path fill="#008E5A" d="M307.572,126.399h0.053c0.744-1.227,1.37-1.918,2.034-2.391c1.311-0.928,2.05-0.864,2.615-0.896
		l-0.977,4.602c-2.106-0.206-3.869,0.329-4.456,2.813l-2.069,9.742h-3.887l3.584-16.86h3.736L307.572,126.399z"/>
	<path fill="#008E5A" d="M310.363,140.27l3.581-16.86h3.89l-3.581,16.86H310.363z M314.379,121.377l0.748-3.531h3.886l-0.748,3.531
		H314.379z"/>
	<path fill="#008E5A" d="M326.034,129.272l0.394-1.887c0.145-0.927-0.191-1.437-1.034-1.437c-1.491,0-1.854,1.704-2.267,3.773
		l-0.841,3.971c-0.789,3.289-0.531,3.886,0.606,4.031c1.199-0.025,1.462-1.132,1.871-2.478l0.331-1.554h3.886l-0.332,1.554
		c-0.751,3.525-2.623,5.474-6.484,5.474c-3.442,0-5.023-1.822-3.925-6.31l1.168-5.473c0.971-4.725,3.571-5.979,6.533-5.979
		c3.918,0,4.83,2.453,4.261,4.968l-0.28,1.346H326.034z"/>
	<path fill="#008E5A" d="M330.151,140.27l3.584-16.86h3.884l-3.578,16.86H330.151z M334.17,121.377l0.748-3.531h3.883l-0.751,3.531
		H334.17z"/>
	<path fill="#008E5A" d="M345.59,134.74c-0.409,1.943-1.259,2.987-2.52,2.987c-1.196,0-1.34-1.282-1.088-2.901l1.192-5.619
		c0.472-1.674,0.632-3.255,2.458-3.255c1.818,0,1.374,2.396,1.029,3.735L345.59,134.74z M344.411,140.27h3.885l4.761-22.421h-3.88
		l-1.229,5.768c-0.104,0.509-0.173,0.993-0.192,1.499h-0.059c-0.438-1.615-1.362-2.184-3.015-2.156
		c-2.526,0.062-4.262,1.342-5.334,5.979l-1.301,6.095c-0.482,2.694-0.429,5.688,2.858,5.688c1.549-0.092,2.716-0.537,3.825-2.241
		h0.058L344.411,140.27z"/>
	<path fill="#008E5A" d="M359.845,133.213c-0.438,1.613-0.635,4.515-2.935,4.515c-1.436,0-1.644-0.87-1.371-2.154
		c0.157-0.711,0.428-1.55,1.093-2.031c1.196-0.835,2.5-1.492,3.598-2.15L359.845,133.213z M362.551,140.27
		c-0.041-0.774,0.008-1.554,0.182-2.365l2.112-9.946c0.536-2.219,0.792-4.999-4.499-4.999c-4.871,0-6.39,2.247-7.037,5.443h3.698
		c0.298-1.528,0.795-2.45,2.552-2.45c1.055,0,1.621,0.116,1.642,0.864c0.045,1.378-0.723,2.122-2.512,2.815
		c-3.316,1.25-6.229,2.175-7.046,6.034c-0.739,3.468,0.301,5.055,3.437,5.055c1.314,0,2.672-0.785,3.87-2.186h0.058
		c-0.184,0.599-0.286,1.192-0.126,1.734H362.551z"/>
	<path fill="#008E5A" d="M373.688,134.74c-0.412,1.943-1.261,2.987-2.522,2.987c-1.194,0-1.338-1.282-1.088-2.901l1.194-5.619
		c0.482-1.674,0.637-3.255,2.463-3.255c1.819,0,1.377,2.396,1.03,3.735L373.688,134.74z M372.511,140.27h3.888l4.77-22.421h-3.893
		l-1.224,5.768c-0.106,0.509-0.185,0.993-0.195,1.499h-0.063c-0.431-1.615-1.365-2.184-3.01-2.156
		c-2.524,0.062-4.26,1.342-5.335,5.979l-1.295,6.095c-0.482,2.694-0.435,5.688,2.856,5.688c1.545-0.092,2.715-0.537,3.824-2.241
		h0.061L372.511,140.27z"/>
	<path fill="#008E5A" d="M389.607,129.15c-0.783,0-1.517-0.146-2.204-0.447c-0.688-0.298-1.287-0.7-1.796-1.217
		c-0.516-0.51-0.918-1.107-1.217-1.795c-0.296-0.688-0.445-1.422-0.445-2.205c0-0.775,0.149-1.509,0.445-2.191
		c0.299-0.688,0.701-1.285,1.217-1.791c0.509-0.508,1.107-0.91,1.796-1.208c0.688-0.299,1.421-0.45,2.204-0.45
		c0.775,0,1.509,0.151,2.191,0.45c0.688,0.298,1.285,0.7,1.801,1.208c0.511,0.506,0.913,1.104,1.204,1.791
		c0.299,0.683,0.44,1.416,0.44,2.191c0,0.783-0.142,1.517-0.44,2.205c-0.291,0.688-0.693,1.285-1.204,1.795
		c-0.516,0.517-1.112,0.919-1.801,1.217C391.116,129.005,390.383,129.15,389.607,129.15 M389.607,128.405
		c0.688,0,1.32-0.127,1.902-0.382c0.582-0.254,1.084-0.6,1.5-1.043c0.418-0.442,0.747-0.96,0.984-1.557
		c0.238-0.598,0.358-1.242,0.358-1.938c0-0.688-0.12-1.332-0.358-1.928c-0.237-0.593-0.566-1.112-0.984-1.549
		c-0.416-0.439-0.918-0.783-1.5-1.036s-1.214-0.38-1.902-0.38c-0.686,0-1.321,0.127-1.906,0.38
		c-0.589,0.253-1.093,0.597-1.512,1.036c-0.425,0.437-0.755,0.956-0.991,1.549c-0.238,0.596-0.362,1.239-0.362,1.928
		c0,0.695,0.124,1.34,0.362,1.938c0.236,0.597,0.566,1.114,0.991,1.557c0.419,0.443,0.923,0.789,1.512,1.043
		C388.286,128.278,388.922,128.405,389.607,128.405 M392.427,126.647h-0.924l-1.804-2.909h-1.419v2.909h-0.773v-6.308h2.76
		c0.834,0,1.416,0.146,1.745,0.444c0.328,0.298,0.49,0.706,0.49,1.225c0,0.309-0.05,0.572-0.149,0.789
		c-0.099,0.223-0.24,0.396-0.416,0.531c-0.179,0.131-0.39,0.232-0.634,0.296c-0.243,0.067-0.505,0.104-0.784,0.113L392.427,126.647z
		 M389.459,123.126h0.717c0.261,0,0.5-0.029,0.723-0.091c0.228-0.058,0.409-0.167,0.551-0.324c0.147-0.161,0.218-0.399,0.218-0.718
		c0-0.248-0.048-0.445-0.142-0.587c-0.096-0.146-0.218-0.255-0.364-0.328c-0.151-0.076-0.318-0.126-0.508-0.152
		c-0.19-0.025-0.377-0.035-0.564-0.035h-1.809v2.235H389.459z"/>
</g>
</svg>
