<?xml version="1.0" encoding="UTF-8"?>
<svg version="1.1" viewBox="0 0 900 900" width="1280" height="1280" xmlns="http://www.w3.org/2000/svg">
<path transform="translate(397)" d="m0 0h109l11 3 35 7 32 8 40 14 33 16 29 16 10 7 11 7 20 15 11 9 12 11 10 8v2l4 2 16 16 7 8 10 11 9 11 15 20 14 22 9 15 10 19 8 16 8 19 12 36 9 32 3 16 2 10 3 30 1 3v80l-2 4-3 31-5 26-10 38-7 21-12 29-9 17-7 14-8 13-10 17-18 24-10 13-13 14-7 8-28 28-10 8-12 10-14 10-19 13-15 9-19 11-19 9-12 6-26 10-33 11-30 7-27 5-28 3h-4v2h-73l-4-2-26-3-41-9-25-7-26-9-24-9-21-10-19-11-16-10-10-7-11-7-18-14-8-7-14-12-12-11-14-14-9-11-8-8-9-11-13-17-10-15-10-16-10-18-8-14-9-19-9-24-10-30-6-25-3-17-5-30-2-13v-78l2-9 3-28 5-25 4-19 8-28 15-38 8-17 9-16 10-17 10-16 12-17 7-9 11-13 9-10 7-8 14-15 7-7 8-7 11-10 10-8 13-10 13-9 19-12 14-8 24-13 16-8 18-7 37-12 27-6 6-2 14-3 24-4z" fill="#027150"/>
<path transform="translate(326,285)" d="m0 0h26l13 3 16 8 9 7 7 8 6 8 8 16 4 10 1 5h1l4-26 6-31 2-4 3-1h226l1 4-8 40-2 4-4 1h-57l-5 1-5 26 65-1 1 3-7 45-1 2h-68l-1 10-3 14v5h65l-1 12-8 36-2 2h-114l-1-3 9-50 5-26-61 1-15 75-2 3h-47l-1-1 1-11 7-37v-3l-10 15-9 10-10 10-16 10-12 5-14 3-11 1h-10l-15-2-15-5-11-7-10-9-9-13-7-15-4-18-1-8v-19l4-25 6-18 8-16 7-11 8-10 10-10 15-11 17-8z" fill="#DAFEFD"/>
<path transform="translate(330,333)" d="m0 0h10l12 3 9 7 6 8 5 12 2 6 2 1 37 1-4 23-5 22-42 1-9 12-10 9-12 6-8 2h-14l-9-3-8-6-7-8-5-12v-24l4-20 7-14 7-9 9-9 10-5z" fill="#02704F"/>
<path transform="translate(329,296)" d="m0 0h15l13 2 13 5 12 8 9 9 8 14 6 15 2 9-1 1h-24l-4-9-5-10-9-10-11-6-9-2h-17l-15 4-11 7-11 11-10 16-6 16-3 16v26l4 13 7 11 8 7 10 5 7 2h18l13-4 11-6 11-10 7-8 25-1 1 3-8 14-12 14-9 8-14 9-13 5-15 3h-18l-14-3-16-8-9-8-8-10-6-12-5-17-1-8v-20l4-22 6-18 7-13 9-13 11-12 7-7 13-8 12-5 7-2z" fill="#FCFDFD"/>
<path transform="translate(549,301)" d="m0 0h95l-1 11-2 12-2 1-66 1-7 36-3 14h65l1 5-3 18-2 2-66 1-10 48 1 4h66l-1 8-3 16-1 1-18 1h-75l-1-4 9-47 8-44 8-40z" fill="#FCFDFD"/>
<path transform="translate(527,300)" d="m0 0h5l-1 8-3 15-3 2h-66l-1 11-7 38-1 2 67 1-1 9-3 14-1 1-66 1-10 48-5 28-3 2h-24l1-11 11-57 14-74 5-27 2-10z" fill="#FBFDFD"/>
<path transform="translate(547,294)" d="m0 0h102l2 1-1 11-4 20-2 4-66 1-3 17-4 21h64l1 1-1 13-4 24-64 1-3 1-8 36-1 3h67l-2 11-5 26-42 1h-59l-3-1v-7l9-48 9-49 9-48 7-37zm2 7-13 70-9 46-9 49-2 13 1 1h75l18-1 2-7 3-14v-4h-67l1-8 9-44 66-1 2-2 3-18-1-5h-65l8-39 2-11 66-1 2-1 3-17v-6z" fill="#08493B"/>
<path transform="translate(326,291)" d="m0 0h24l16 4 15 8 12 11 9 14 6 15 4 14v6l-1 1h-33l-3-7-4-10-8-10-8-6-10-3h-18l-14 4-13 9-10 12-8 14-5 15-2 15v13l2 11 4 10 7 9 8 7 7 3 5 1h16l15-5 9-6 5-4 10-13 2-2h37l-3 9-7 12-9 12-11 12-10 8-15 8-14 4-14 2h-12l-17-3-12-5-11-7-9-9-7-11-7-16-3-13-1-10 1-22 4-21 5-15 8-16 8-12 11-12 9-8 13-8 11-5zm3 5-11 2-12 4-14 8-10 9-8 8-10 14-8 14-5 13-4 16-2 13v20l3 16 6 16 7 10 8 9 10 7 11 5 14 3h18l15-3 15-6 13-9 10-9 10-12 8-14-1-3-25 1-14 15-11 7-12 5-5 1h-18l-14-5-9-7-6-8-5-10-2-8v-26l4-20 7-16 10-14 10-10 10-6 15-4h17l11 3 10 6 8 9 5 10 4 9h24l1-3-6-18-8-15-9-10-9-7-12-6-10-3-9-1z" fill="#094137"/>
<path transform="translate(327,327)" d="m0 0h18l10 3 9 7 8 10 8 20v3h-6l-4-10-6-12-6-7-6-4-12-3h-10l-13 3-11 6-10 10-7 11-5 13-3 16v24l5 12 9 10 10 5 4 1h14l13-4 11-7 7-7 4-6 5-4h41l3 8v13l-8 42v5l36 1 5-27 9-45 1-6h64l-2 4-3 1-53 1-15 75-2 3h-47l-1-1 1-11 7-37v-3l-10 15-9 10-10 10-16 10-12 5-14 3-11 1h-10l-15-2-15-5-11-7-10-9-9-13-7-15v-7l5 1 7 16 7 11 8 8 11 7 12 5 17 3h12l18-3 12-4 16-9 13-12 11-14 8-13 5-11-37 1-10 12-4 5-10 7-13 5-4 1h-16l-10-3-8-6-8-9-5-9-2-7-1-8v-13l3-19 5-13 7-12 11-13 10-7 9-4z" fill="#E7FCFD"/>
<path transform="translate(448,294)" d="m0 0h91l-1 11-5 23-1 2-66 1-1 1-6 37h65v8l-5 29-1 1-67 1-7 36-8 40-1 2h-36l-1-1 1-10 10-53 8-44 12-63 3-18 1-2zm79 6-90 1-12 63-12 64-9 46v6h24l3-2 9-48 6-28 66-1 3-9 2-11v-4l-67-1 3-12 6-34v-5h66l3-2 4-19v-4z" fill="#055742"/>
<path transform="translate(628,289)" d="m0 0h31l-2 13-6 30-2 4-4 1h-57l-5 1-5 26 65-1 1 3-7 45-1 2h-68l-1 10-3 14v5h65l-1 12-8 36-1 1h-95l-1-4 1-1 30-1h61l1-10 5-24 1-3h-67l2-11 6-28 4-2h64l2-16 2-14v-7h-64l-1-2 5-25 2-12 2-1 65-1 4-18 3-16h-90l-6-2 1-3z" fill="#E8FCFD"/>
<path transform="translate(434,296)" d="m0 0 3 1-2 21-11 57-10 53-10 52 20-1 6-1 9-48 6-28 73-1 1-2v7l-1 1-67 1-7 36-8 40-1 2h-36l-1-1 1-10 10-53 8-44 12-63 2-12z" fill="#083D34"/>
<path transform="translate(564,367)" d="m0 0h1v6l-1 2 12-1-2-1v-2h-4l1-2h64l1 1-1 13-4 24-64 1-3 1-8 36-1 3h47v1l-13 1 24 1 3 2-1 4v-3l-67 1-1-5 8-39 2-9 1-1 66-1 2-5 2-18h-50l-15-1z" fill="#055743"/>
<path transform="translate(474,336)" d="m0 0h57l-1 11-3 15-1 2h-61l1-9 4-18z" fill="#02704F"/>
<path transform="translate(268,392)" d="m0 0h2l1 26 4 13 7 11 8 7 10 5 7 2h18l13-4 11-6 11-10 7-8 25-1 1 3-8 14-10 12-2-2 1-1 1-14 6-2v-4l-6 2-1 3-7 2-9 11-12 13-7 4h-9l-5-2-20-3-15-5-11-10-4-5-9-7-2-1-1-4v-15l1-15 3-8z" fill="#E9FCFD"/>
<path transform="translate(547,294)" d="m0 0h102l2 1-1 11-4 20-2 4-66 1-3 17-5 23h4v2l3 1-1 1h-12l1-13 7-36 1-1 68-1 1-12 2-11h-95l-1 10h-1l-1-8h-2l1-7z" fill="#065642"/>
<path transform="translate(326,285)" d="m0 0h26l13 3 16 8 9 7 7 8 6 8 2 3-1 4-3-3v2h-2l-7-11-7-7-11-7-11-5-13-3h-24l-16 4-16 8-9 6-10 9-9 10-11 18-6 14-4 14-3 17-1 22 2 15 1 7-3 1-2 2-3-14-1-8v-19l4-25 6-18 8-16 7-11 8-10 10-10 15-11 17-8z" fill="#E7FCFD"/>
<path transform="translate(242,418)" d="m0 0h1l2 6 2 1 5 17 6 12 11 13 10 7 11 5 14 3h18l15-3 15-6 13-9 10-9 11-14 6-11v-2l-11-1 1-3 11 1 6 1-1 6-10 16-13 15-10 9-16 9-16 5-14 2h-12l-17-3-12-5-11-7-9-9-7-11-7-16-2-8z" fill="#084639"/>
<path transform="translate(240,436)" d="m0 0 5 1 7 16 7 11 8 8 11 7 12 5 17 3h12l18-3 12-4 16-9 13-12 3-4 4 2-1 4-14 14-16 10-12 5-14 3-11 1h-10l-15-2-15-5-11-7-10-9-9-13-7-15z" fill="#E6FCFD"/>
<path transform="translate(131,531)" d="m0 0h8l5 1 2-1h9l2 2v11l-4 19-3 4-6-1v-8l3-16v-6l-3 1-4 13-4 16-1 1h-6l-1-1v-8l3-16v-5l-4 1-7 28-5 1-3-1 1-10 4-22 1-2z" fill="#E5FCFD"/>
<path transform="translate(624,443)" d="m0 0h5l-1 11-8 36-1 1h-95l-1-4 1-1 30-1h61l1-10 5-24 1-4h-57l1-3z" fill="#ECFCFD"/>
<path transform="translate(401,323)" d="m0 0 5 1 6 13 4 13 6 2-1 10-10 53-3 17h-1l-3-14h-41l-4 3 2-4 1-1h42l1-8 5-24 2-12-36-1 4-1-2-6 33-1-1-11-7-20-3-7z" fill="#DAFDFD"/>
<path transform="translate(370,520)" d="m0 0h5l2 3-7 34-3 8-6 2h-11l-4-2-1-2v-9l4-15 3-5 5-3h10v-7z" fill="#E8FCFD"/>
<path transform="translate(505,520)" d="m0 0h7l1 3-4 16-5 24-2 3-17 1-4-3v-12l5-16 5-5h11l2-10z" fill="#E6FCFD"/>
<path transform="translate(825,520)" d="m0 0h7l-1 10-7 33-3 4h-17l-3-4v-8l4-17 6-7 5-1 5 2 2-7z" fill="#E6FCFD"/>
<path transform="translate(450,408)" d="m0 0h64l-2 4-3 1-53 1-15 75-2 3-30-1v-4l25-1 3-12 12-60z" fill="#F5FDFD"/>
<path transform="translate(275,418)" d="m0 0 2 3 4 10 7 9 8 7 7 3 5 1h16l15-5 9-6 5-4 10-13 2-2h37l-2 7-13-3-5-1v2l6 1v1l-21 1-14 15-11 7-12 5-5 1h-18l-14-5-9-7-6-7-5-10z" fill="#064336"/>
<path transform="translate(327,321)" d="m0 0h17l11 3 4 2 2 7-5-1-7-3-4-1h-18l-14 4-13 9-10 12-8 14-5 15-2 15v23l-1 6h-2l-2-8v-26l4-20 7-16 10-14 11-11 10-6z" fill="#07382F"/>
<path transform="translate(611,530)" d="m0 0h7l5 3 2 3v9l-3 10-1 5-5 6-2 1h-11l-5-4-1-8 4-16 3-5z" fill="#E6FCFD"/>
<path transform="translate(226,531)" d="m0 0h11l5 2 1 1v11l-3 12-3 6-6 4h-11l-4-3-1-8 3-14 5-8z" fill="#E6FCFD"/>
<path transform="translate(97,530)" d="m0 0 10 1 4 4v9l-3 13-3 6-5 4h-11l-5-4-1-7 3-13 5-10z" fill="#E6FCFD"/>
<path transform="translate(429,289)" d="m0 0h29l50 1v3h17v1l-33 1h-59l-4 25-6 31-2 1-2-1-1 2v-9l3-20 6-31z" fill="#DFFDFD"/>
<path transform="translate(518,399)" d="m0 0h1v7l-1 1-67 1-7 36-7 35-2 4-3-1 1-5 2-14 2-12 2-13 2-8 1-1 1-18 2-9 73-1z" fill="#083A32"/>
<path transform="translate(644,305)" d="m0 0h1l2 11-1 10-2 4-66 1-3 17-5 23h4v2l3 1-1 1h-12l1-13 7-36 1-1 68-1 1-12z" fill="#094338"/>
<path transform="translate(564,520)" d="m0 0h21l1 5-1 2-16 1-1 2v8h11l2 1v5l-5 1h-11l-2 13 14 1v6l-2 2h-17l-5-2v-7l7-33 2-4z" fill="#E6FCFD"/>
<path transform="translate(70,519)" d="m0 0h8l5 3 1 2v9l-5 3-3-2-1-8-6 1-3 4-4 18v11l7-2 6-9 3-1 2 1v7l-4 6-6 5h-12l-5-5-1-2v-11l4-16 4-8 6-5z" fill="#E4FCFD"/>
<path transform="translate(433,531)" d="m0 0h14l3 3-1 13-4 19-1 1h-6l-4-1-3 2-6-1-3-3-1-7 3-6 4-4 10-4 3-1v-5l-5 1-5 5h-5l1-5 4-6z" fill="#E8FCFD"/>
<path transform="translate(789,530)" d="m0 0 7 1 3 3v9l-4 21-1 2-5 1h-15l-2-1v-11l2-5 6-4 10-5 1-4-6 2-4 4-4 1-1-1v-7l4-4z" fill="#E6FCFD"/>
<path transform="translate(388,530)" d="m0 0h8l5 3 2 7-2 10-1 1-16 2-1 7 6-2 7-5 4 1-2 7-7 6h-11l-5-5v-10l3-12 4-6 3-3z" fill="#E7FCFD"/>
<path transform="translate(279,310)" d="m0 0 3 1-6 7-10 11-11 18-6 14-4 14-3 17-1 22 2 15 1 7-3 1-2 2-3-14-1-8v-19l4-25 6-18 8-16 7-11 8-10 7-7 3 1z" fill="#DCFDFD"/>
<path transform="translate(470,331)" d="m0 0h61l-1 4-12 2h-48l-2 14-3 14h50v2l-2 1h-52l-1-2v-10l4-22 2-2z" fill="#E6FCFD"/>
<path transform="translate(524,530)" d="m0 0 9 1 4 4v11l-3 5-14 1-2 8 6-1 5-5 5-2v6l-4 6-4 3h-11l-4-4-1-7 3-16 4-6 4-3z" fill="#E6FCFD"/>
<path transform="translate(330,530)" d="m0 0 9 1 4 2 1 2v10l-3 6-15 1-1 7h6l4-5h5l-1 7-4 5-2 1h-11l-5-4-1-7 4-16 5-8z" fill="#E7FCFD"/>
<path transform="translate(432,288)" d="m0 0h226v1l-30 1h-72v2l4 2-2 1h-11l-2 5-4 22-4 2-2-1v-9l4-20h-14l-17-1v-3h-50l-26-1z" fill="#E1FDFD"/>
<path transform="translate(458,364)" d="m0 0h1v5h65v8l-4 24-7 1h-67v-1l66-1 5-23h-62l2-2 13-1 20-1v-1l-31 1-1-1z" fill="#074C3E"/>
<path transform="translate(298,303)" d="m0 0 4 2-10 6-10 9-7 7-10 14-8 14-5 13-4 16-2 13v27l-2 1-1-2-2 1-1-10 1-22 4-21 5-15 8-16 8-12 11-12 5-5h8l2-4 4-1z" fill="#083F35"/>
<path transform="translate(768,520)" d="m0 0h6l1 3-3 9-4 23-3 10-3 2h-15l-3-2v-9l5-1 2 2v4h5l4-17 1-7-5 1-2 12h-2v-8l-4-1v-6l4-4h11l2-8z" fill="#E7FCFD"/>
<path transform="translate(568,15)" d="m0 0 9 1 19 6 28 10 33 16 29 16 10 7 11 7 20 15 11 9 12 11 10 8v2l4 2 16 16 7 8 10 11 9 11 15 20 14 22 12 20-1 3-10-17-12-19-10-14-10-13-12-14-11-13-6-6v-2l-4-2v-2l-4-2-15-15-8-7-13-11-8-6-19-14-18-11-15-9-8-5-14-7-15-7-16-7-16-6-27-9-7-2z" fill="#EEFDFD"/>
<path transform="translate(567,407)" d="m0 0h64v1l-44 1 8 1h25l1 1h9l-1 2h-61l-1 10-3 14v5h65v1l-5 1-57 1v1l55 1v1h-67l2-11 6-28z" fill="#E4FCFD"/>
<path transform="translate(602,448)" d="m0 0h20l-6 33-3 3h-88l4-3 3-1 60-1 18-1 5-25-2-1-57-2v-1z" fill="#094036"/>
<path transform="translate(263,531)" d="m0 0h8l1 1v10l-5 23-3 2h-5l-1-3 5-27-5 2-4 16-3 11-1 1h-5l-2-2 2-11 4-20 1-2z" fill="#F3FDFD"/>
<path transform="translate(461,324)" d="m0 0 4 1h61l5-1-1 5h-64l-3 16-3 17-1 2v8l32-1v3l-21 1-13 1h-7l5-29 4-22z" fill="#08483C"/>
<path transform="translate(297,520)" d="m0 0h22l3 2-1 4-2 1h-16l-1 12 11-1 3 1 1 4-2 2-15 1-4 18-2 3h-6l-1-3 8-40z" fill="#F6FDFD"/>
<path transform="translate(278,417)" d="m0 0h3l5 12 9 10 10 5 4 1h14l13-4 11-7 7-7 4-5 5 1-6 9-6 7-10 7-13 5-4 1h-16l-10-3-8-6-8-9-5-9 1-6v-1z" fill="#E5FCFD"/>
<path transform="translate(182,531)" d="m0 0h14l3 2v10l-1 2-5-2-3-5-5-2 2 6 9 8 1 4-4 10-4 3h-12l-5-5 1-8h4l5 5 6 1-2-5-8-7-2-3 1-7 3-5z" fill="#E6FCFD"/>
<path transform="translate(329,296)" d="m0 0h15l13 2 13 5 12 8-2 1-15-8-14-4-6-1h-17l-16 4-9 3v2l-7 2-2 5-6 5-4 5-5 5h-2l-2 5-4 5-8 14-6 10-4 10-3 13-3 10h-1l1-13 5-19 7-16 9-14 9-11 12-12 13-8 12-5 7-2z" fill="#E6FCFD"/>
<path transform="translate(640,530)" d="m0 0 8 1 4 4v7l-2 3-7-1v-8l-3 1-2 5-3 18 5-1 2-10 6 2v7l-3 6-4 3h-10l-4-3-1-3v-7l4-15 4-6z" fill="#E6FCFD"/>
<path transform="translate(514,429)" d="m0 0h1l1 5 3 2-1 10-7 39h9l4 2v4l59-1 35 1v1h-114l-1-3 9-50z" fill="#DAFDFD"/>
<path transform="translate(715,530)" d="m0 0 7 1 5 5v7l-4 2-4-3v-5l-4 1-2 6-3 15 6-1 2-7h5l1 1v6l-4 6-4 3h-10l-4-4-1-2 1-11 4-13 5-5z" fill="#E7FCFD"/>
<path transform="translate(326,291)" d="m0 0h24l16 4 8 4 1 4-3 1-9-3-10-3-9-1h-15l-11 2-12 4-7 1-3 3-5 2-1 2h-6l5-5 14-8 13-5z" fill="#063D32"/>
<path transform="translate(525,376)" d="m0 0 3 1v14l-8 44-2 1-3-2v-11l2-10h-8l3-1 1-3-62-1v-1l67-1 5-29z" fill="#DBFDFD"/>
<path transform="translate(662,521)" d="m0 0h5l1 1v14l-4 12-2 11 2 2v5l-2 1h-6l-4-3 1-11 2-9 1-11 5-11z" fill="#DAFEFD"/>
<path transform="translate(381,455)" d="m0 0 4 2-1 4-14 14-16 10-12 5-8 2h-19l-4-3 16-3 17-4 16-8 8-6 10-9z" fill="#F6FDFD"/>
<path transform="translate(520,430)" d="m0 0h1l1 9 1 1-1 11-5 25v3l15 1-4 3h87v2l-42 1h-59l-3-1v-7z" fill="#055643"/>
<path transform="translate(814,530)" d="m0 0 5 2 1 3h-3v2h-3l-2 11h-2l-1 12h9l1-5 3-3 2 2v9l-3 4h-17l-3-4v-8l4-17 6-7z" fill="#E6FCFD"/>
<path transform="translate(570,332)" d="m0 0h1l-1 11-7 33h65l1 5-3 18-2 2-67 1v-2l66-1 2-11 1-1v-8h-25l-27 1-6 2h-5l-3-4v-7l2-2v-11l2-9 3-9 1-4h2z" fill="#DAFDFD"/>
<path transform="translate(554,417)" d="m0 0h1v12l-1 13 1 6h47v1l-13 1 24 1 3 2-1 4v-3l-67 1-1-5z" fill="#055643"/>
<path transform="translate(462,520)" d="m0 0h6l-1 12-7 34-1 1h-7v-8l8-38z" fill="#E7FCFD"/>
<path transform="translate(592,520)" d="m0 0h6l1 3-8 40-3 4h-5l-1-1 1-10 7-33z" fill="#E6FCFD"/>
<path transform="translate(564,367)" d="m0 0h1v6l-1 2 12-1-2-1v-2h-4l1-2h64l-1 2-3 1-38 1h37v8l-2-4h-50l-15-1z" fill="#046048"/>
<path transform="translate(673,531)" d="m0 0 7 1v3h3l2-4 4 1-1 7-7 3-5 18-2 5-2 2-5-1 1-14 4-19z" fill="#E8FCFD"/>
<path transform="translate(578,330)" d="m0 0 21 1h35l5 1 2 1v2l-51 1-7 2-3 16h-2l-1 3v-2h-2v-12l2-12z" fill="#E5FCFD"/>
<path transform="translate(411,531)" d="m0 0 5 1 1 3 5-4h4l-1 6-5 4-4 4-3 12-2 9-7 1-2-4 7-30z" fill="#E7FCFD"/>
<path transform="translate(492,532)" d="m0 0h7l4 1v3l5 1 1-4-1 10-3 15-2-2-7-1-1 4-5 1-1-1 1-8 3-12 3-3h-2l-3-3z" fill="#EAFCFD"/>
<path transform="translate(518,399)" d="m0 0h1v7l-1 1h-66v-2l-5-1 2-2 69-1z" fill="#0B3A33"/>
<path transform="translate(545,296)" d="m0 0 2 4 5-3h85l8 3 1 3-2 2v-4h-95l-1 10h-1l-1-8h-2z" fill="#045E47"/>
<path transform="translate(441,540)" d="m0 0 1 4h2l-2 4-4 9v9l-10 2-5-3-2-4 1-7 6-7 10-4 3-1z" fill="#E6FCFD"/>
<path transform="translate(637,375)" d="m0 0 4 1v9l-4 26-1 2h-7l-2-1h-6l-1-1h-30l-6-2v-1h47l1-11 2-14z" fill="#E4FCFD"/>
<path transform="translate(450,408)" d="m0 0h64l-2 4-3 1-53 1-1 5-2-2h-3l-1 3z" fill="#ECFCFD"/>
<path transform="translate(382,424)" d="m0 0 11 1 6 1-1 6-10 16-13 15-10 9-5 3h-2l1-5 5-5 12-11 10-13 6-11v-2l-11-1z" fill="#07342D"/>
<path transform="translate(434,296)" d="m0 0 3 1-2 21-9 46h-2v-7l-1-3h2v-2h-2l1-12 7-37z" fill="#084B3C"/>
<path transform="translate(243,375)" d="m0 0h1l-3 30v9l2 15 1 7-3 1-2 2-3-14-1-8v-19l3-20 3-1 1 2z" fill="#DAFDFD"/>
<path transform="translate(574,326)" d="m0 0h8v2h-4l-2 15-6 28h4v2l3 1-1 1h-12l1-13 6-31z" fill="#07352E"/>
<path transform="translate(442,416)" d="m0 0h1v13l-2 3-2 9-2 18-2 9-1 12-1 2h3l-1 4h-36l4-2 1-1h9l-7-1-1-2 19-1 6-1 9-48z" fill="#065141"/>
<path transform="translate(211,531)" d="m0 0h4l-1 8-3 15-3 12-1 1h-7v-8l6-26z" fill="#DAFEFD"/>
<path transform="translate(694,531)" d="m0 0h6l1 4-5 27-3 5h-5l-2-2 1-7 4-22z" fill="#DAFEFD"/>
<path transform="translate(768,520)" d="m0 0h6l1 3-4 10-3 13h-4l-2-7v-4l-7 1v9l-1 5h-2v-8l-4-1v-6l4-4h11l2-8z" fill="#E7FCFD"/>
<path transform="translate(461,324)" d="m0 0 4 1h61l5-1-1 5h-64l-3 16-4 1v-21z" fill="#0B3933"/>
<path transform="translate(359,327)" d="m0 0 5 2 8 8 6 11 4 10h24l2-2v4l-11 1-1 1 15 1v1h-33l-3-7-4-10-8-10-4-4v-4z" fill="#084136"/>
<path transform="translate(549,301)" d="m0 0h95l-1 11h-1l-2-9-84 1-6 4-1 4-1 14-2 5-2 15-3 9h-1l1-10z" fill="#EAFCFD"/>
<path transform="translate(735,531)" d="m0 0h6l1 1-1 9-5 24-2 2-6-1-1-4 6-29z" fill="#E5FCFD"/>
<path transform="translate(250,532)" d="m0 0h12l-3 2 4 2-3 2-3 3-5 23-2 3h-5l-2-2 2-11 4-20z" fill="#E6FCFD"/>
<path transform="translate(361,288)" d="m0 0 6 1 14 7 9 7 7 8 6 8 2 3-1 4-3-3v2h-2l-7-11-7-7-11-7-11-5z" fill="#F5FDFD"/>
<path transform="translate(527,300)" d="m0 0h5l-1 8h-1v-5h-29l-57 1-6 5-1 3-2 16-5 24-4 18h-1l1-11 8-41 3-17z" fill="#DFFDFD"/>
<path transform="translate(167,531)" d="m0 0 6 1v7l-5 25-3 3h-6l-1-3 7-31z" fill="#DAFEFD"/>
<path transform="translate(532,480)" d="m0 0h66v1l7 2v1h-80l4-3z" fill="#0C3732"/>
<path transform="translate(422,351)" d="m0 0 3 1v2h-2l2 5v11l-8 42-1-3h-3l-2 4 2-14z" fill="#094338"/>
<path transform="translate(470,374)" d="m0 0h27l21 2v19h2v6l-7 1h-67v-1l66-1 5-23h-62l2-2z" fill="#027150"/>
<path transform="translate(545,302)" d="m0 0 2 1v14l-8 44h-3-1v-11l8-44z" fill="#084A3C"/>
<path transform="translate(758,536)" d="m0 0 3 1-1 13-3 11-4 1-2-1-2-5h-4l-1 7h-1v-12l3-12 2-2 1 4 3 1v8h2l1-12z" fill="#DAFEFD"/>
<path transform="translate(370,520)" d="m0 0h5l2 3-2 10h-2l-1 6-2 4h-4l-1-2v-6h-4l-2 4-4 4-5-2 1-5 4-4 2-1h10v-7z" fill="#E7FCFD"/>
<path transform="translate(780,546)" d="m0 0h3v2l2 1-5 4v6l6-1 3-1v-2l4 1 1 3v7l-5 1h-15l-2-1v-11l2-5z" fill="#E7FCFD"/>
<path transform="translate(640,536)" d="m0 0h3v8h7l1-2h2v-3h2v9l-3 14h-3l-1-3v-8l-5-1-3 9-5 1 1-11 2-10z" fill="#074438"/>
<path transform="translate(132,537)" d="m0 0 10 2-2 11-4 16-1 1h-6l-1-1v-8z" fill="#DAFEFD"/>
<path transform="translate(546,450)" d="m0 0 3 4h66l-1 8-1 5h-1l-2-7-1-2-5-1-41 1-15 1-2-3z" fill="#DAFDFD"/>
<path transform="translate(574,348)" d="m0 0h1v7l4-1-1 10h60v1h-51v3h34v1l-9 1h-41l-1-2z" fill="#DBFDFD"/>
<path transform="translate(117,534)" d="m0 0 4 5 4 1 1-2-2 12-4 16-5 1-3-1 1-10z" fill="#DAFDFD"/>
<path transform="translate(531,304)" d="m0 0 2 4h2l2-2-1 8-4 16h-66v-1h64l1-5-5 2h-61v-1l60-1 2-1z" fill="#055743"/>
<path transform="translate(448,294)" d="m0 0h5l-1 2-6 1 4 1 75 1 2 2h-90l-1 4v-8l-2-1-1 5-1-4 1-2z" fill="#027150"/>
<path transform="translate(246,418)" d="m0 0h2l5 14 2 7 3 5 4 10 4 6 5 5 12 9 7 3v2l-5-1-11-6-9-8-8-10-6-12-5-17z" fill="#E5FCFD"/>
<path transform="translate(362,466)" d="m0 0 2 1-5 5-2 5-13 6-17 4-8 1h-12v-2h9v-2l6-2 15-3 15-6z" fill="#083830"/>
<path transform="translate(557,402)" d="m0 0h8l1 2-1 3h-2l-1 11-6 27h-3v-10l1-6 1-18z" fill="#094439"/>
<path transform="translate(320,544)" d="m0 0 2 4 2 5v7h6l5-6h5l-1 7-4 5-2 1h-11l-5-4-1-7 2-9z" fill="#F8FDFD"/>
<path transform="translate(564,520)" d="m0 0h21l1 5-1 2-16 1-1 2v9h-2v-2h-2v-3l-4-2-1 6h-1l1-9 3-8z" fill="#E6FCFD"/>
<path transform="translate(156,533)" d="m0 0h1v11l-4 19-3 4-6-1v-8l4-20 2 3 4 1 1-1z" fill="#DAFEFD"/>
<path transform="translate(246,368)" d="m0 0h1v8h2l-3 21v27l-2 1-1-2-2 1-1-10 1-22 4-21z" fill="#074C3E"/>
<path transform="translate(275,418)" d="m0 0 2 3 4 10 7 9 8 7 7 3 5 1v1l-7 2 2 1-5-1-8-4-10-9-6-10-1-5z" fill="#084538"/>
<path transform="translate(329,296)" d="m0 0h15l13 2 13 5 12 8-2 1-15-8-14-4-6-1h-17l-16 4-9 3v2l-9 4-10 8-5 5-2-1 12-12 13-8 12-5 7-2z" fill="#DDFDFD"/>
<path transform="translate(645,326)" d="m0 0 3 3-5 3h2l5-2 1-2-1 7-5 2h-50l-5-1v-1h51l-7-3h-36l-11-1v-1l57-1z" fill="#E3FCFD"/>
<path transform="translate(393,475)" d="m0 0h6v10l35 1v1h-25v4h26v1h-43l-1-1 1-11z" fill="#E5FCFD"/>
<path transform="translate(634,370)" d="m0 0h2l-1 13-3 17-1 2h-2l-1 2-1-8 1-1 2-22-16 1h-30l-3-2 50-1z" fill="#0A3E36"/>
<path transform="translate(403,539)" d="m0 0h4v7l-4 17-3 2-1-3-5 5v-3l4-5 1-5-5 1-6 5h-5v-7l6-2 11-1 2-10z" fill="#074B3C"/>
<path transform="translate(240,436)" d="m0 0 5 1 7 16 7 11 1 5-1 4-5-5-7-10-7-15z" fill="#E6FCFD"/>
<path transform="translate(56,538)" d="m0 0 1 2 5-1-1 7-1 5v7l1 2h11l-1 5-3 1h-9l-5-2-1-13 2-11z" fill="#FCFDFD"/>
<path transform="translate(624,443)" d="m0 0h5v5l-2 5-4-2-1-3-57-1 1-3z" fill="#FDFEFE"/>
<path transform="translate(242,418)" d="m0 0h1l2 6 2 1 5 17 6 12 1 1v6l4 1 1 5h-3l-8-10-8-17-3-11z" fill="#093D34"/>
<path transform="translate(348,537)" d="m0 0h2l-4 17-2 9h-6l2-9-6 2-3 4h-6l-1-1 1-7 1-1 15-1 3-7 1-5z" fill="#084237"/>
<path transform="translate(798,534)" d="m0 0h1v9l-4 21h-1l-2-8-3-1v2l-5 3-5-1v-6l4-5 1-4 7-3-1 4 2 3 3-1 2-5z" fill="#DAFDFD"/>
<path transform="translate(396,553)" d="m0 0 4 1-2 7-7 6h-11l-4-3v-8l1-1h5l1 4h5z" fill="#F6FDFD"/>
<path transform="translate(573,325)" d="m0 0h58v1l-35 1 17 1h30l2-1-1 3-65 1-1-3h4v-2l-8 1-2 2z" fill="#055743"/>
<path transform="translate(53,234)" d="m0 0 1 3-15 30-14 36-9 29-3 12h-1l1-10 9-31 15-38 8-17z" fill="#F0FDFD"/>
<path transform="translate(448,289)" d="m0 0 60 1-1 3h-63l-1-3z" fill="#FDFEFE"/>
<path transform="translate(364,431)" d="m0 0 1 2-7 9h-2l-2 4h-2v2l-12 6-7 3-12 3h-10l-12-3-8-4-6-4 1-3 9 6 12 4h18l13-4 11-6 11-10z" fill="#DAFEFD"/>
<path transform="translate(357,422)" d="m0 0 6 1-6 9-6 7-10 7-4 2h-3v-4l-3-1 12-6 11-10z" fill="#E6FCFD"/>
<path transform="translate(640,530)" d="m0 0 8 1 4 4v7l-2 3-7-1v-8l-3 1-1 2h-2l-2 4-3-3v-5l5-4z" fill="#E3FCFD"/>
<path transform="translate(524,530)" d="m0 0 9 1 4 4v11l-1 3-11 1v-5l4-1v-6l-2-3-7 1v-3l1-2z" fill="#F7FDFD"/>
<path transform="translate(413,409)" d="m0 0h3v9l-6 31-2 1-2-4v-8l4-23z" fill="#08473A"/>
<path transform="translate(401,341)" d="m0 0 2 2 4 13-1 3h-24l-2-5h9l9-4 2-7z" fill="#E8FCFD"/>
<path transform="translate(399,443)" d="m0 0 5 1v10l-4 21-6 1 1-12z" fill="#E7FCFD"/>
<path transform="translate(570,332)" d="m0 0h1l-1 11-6 29h-2v5l39 1v1l-27 1-6 2h-5l-3-4v-7l2-2v-11l2-9 3-9 1-4h2z" fill="#E4FCFD"/>
<path transform="translate(343,535)" d="m0 0h1v10l-3 6-15 1-1 7 5 1v1h-6l-1-1v-7l4-8v-5l4-4 4 1 1 5-1 2 2 1 5-1z" fill="#DAFDFD"/>
<path transform="translate(458,364)" d="m0 0h1v5h65l-1 3h-39l-25 1-1-1z" fill="#02704F"/>
<path transform="translate(715,530)" d="m0 0 7 1 5 5v7l-4 2-4-3v-5h-5l-3 7-4-1-1-6 5-5z" fill="#E5FCFD"/>
<path transform="translate(260,537)" d="m0 0h3l-1 12-3 15h-3v2l-4 1v-8l4-18z" fill="#065241"/>
<path transform="translate(454,534)" d="m0 0h2l1 6-4 19-2 7-7 1 4-20 2-5 1-6z" fill="#074D3F"/>
<path transform="translate(185,536)" d="m0 0 5 1 4 6 4 2v-2h2v-5h3l-1 16-2 6-3 3-1-9-1-4-8-7-2-2z" fill="#074F40"/>
<path transform="translate(553,451)" d="m0 0h60l3 2-1 4v-3h-66l4-1z" fill="#027150"/>
<path transform="translate(299,524)" d="m0 0h3v2h17v1h-16l-1 12 11-1 3 1 1 4-2 2-15 1-2 9h-1l1-15 2-9-2-1z" fill="#E7FCFD"/>
<path transform="translate(97,536)" d="m0 0h5l1 7-4 16-1 1h-6v-7l4-16z" fill="#02704F"/>
<path transform="translate(596,331)" d="m0 0h38l5 1 2 1v2h-53l1-3z" fill="#FCFDFD"/>
<path transform="translate(227,57)" d="m0 0 2 1-32 20-9 7-19 14-10 9-11 9h-3l8-8 11-9 15-12 14-10 14-9 18-11z" fill="#EBFDFD"/>
<path transform="translate(533,552)" d="m0 0h1v6l-4 6-4 3h-11l-4-4v-5h5l1 2h6l4-5z" fill="#F7FDFD"/>
<path transform="translate(714,536)" d="m0 0 2 1-3 7-3 15 4 1h-6l-2-6-3 3 2 7 2 1h8l4-1-3 3h-10l-4-4-1-2 1-11 3-11 2 4 4 1 1-5z" fill="#DAFEFD"/>
<path transform="translate(376,528)" d="m0 0 1 3 4 2-1 5-3 8-2 17-6-1 1-10 5-23z" fill="#083830"/>
<path transform="translate(716,536)" d="m0 0 3 1 3 9 3 1-2 4h-5l-2 7-6 1 1-8 2-11z" fill="#026C4E"/>
<path transform="translate(217,555)" d="m0 0 6 1 1 3h7 4l2 1-1 4-5 3h-11l-4-3-1-8z" fill="#E6FCFD"/>
<path transform="translate(770,533)" d="m0 0h1v7l-5 22-2 3-2-7-2-1-3 3 4-23-6 1v-2l7-1 2 8v3h4l1-7z" fill="#DAFEFD"/>
<path transform="translate(602,448)" d="m0 0h20l-2 11-1 5-1-4-4 1 1-8-2-1-57-2v-1z" fill="#093A32"/>
<path transform="translate(303,292)" d="m0 0 5 2 2 2-16 8-9 6-4 1-2-1-1 3-2-3 14-11z" fill="#E5FCFD"/>
<path transform="translate(231,536)" d="m0 0 4 1-1 9-3 12-1 2h-6l-1-5 5-16z" fill="#065241"/>
<path transform="translate(452,295)" d="m0 0 76 1v1l-8 1-74 1-1-3z" fill="#092E2B"/>
<path transform="translate(289,340)" d="m0 0 3 1-7 11-6 10-2 5h-4l-1 2-1-4 2-7 9-12z" fill="#E9FCFD"/>
<path transform="translate(216,535)" d="m0 0 1 2h3l-1 5-3 14 1 10h-6l-1-1v-11l3-15 1-3z" fill="#094238"/>
<path transform="translate(62,540)" d="m0 0 1 4-1 5v11l7-2 6-9 3-1 2 1v7l-4 6-6 5h-12l-2-2h12l3-1v-3h-10l-2-3v-7z" fill="#E2FCFD"/>
<path transform="translate(662,521)" d="m0 0h5l1 1v14l-6 4-5-1v-8l4-9z" fill="#E9FCFD"/>
<path transform="translate(534,355)" d="m0 0h1l1 5 2 2-1 9-5 25h-1l-1-7-2 7h-1l1-11z" fill="#065341"/>
<path transform="translate(484,331)" d="m0 0h39l-3 3-5 1h-38l-1-3z" fill="#FDFEFE"/>
<path transform="translate(774,534)" d="m0 0 2 1 1 8 5-2 4-4h5l-1 5-15 8-2 5-4 1 1-8 3-13z" fill="#026E4E"/>
<path transform="translate(367,344)" d="m0 0h3l5 9 4 12 1 5h-6l-4-10-6-13z" fill="#E7FCFD"/>
<path transform="translate(174,538)" d="m0 0h2l2 9 9 8 1 5-3 1-5-3-4-4-6 2 1-13 1-4z" fill="#074E3E"/>
<path transform="translate(462,520)" d="m0 0h6l-1 12-3 15h-2l-3-14v-8l1-4z" fill="#F5FDFD"/>
<path transform="translate(437,481)" d="m0 0 4 1v7l-2 3-30-1v-4l25-1z" fill="#FBFDFD"/>
<path transform="translate(144,536)" d="m0 0h3l1 6-3 16-3 7-4 1 1-7v-9l4-13z" fill="#065141"/>
<path transform="translate(817,536)" d="m0 0h3v7l-4 16-5 1-1-5 2-14 2-4z" fill="#027150"/>
<path transform="translate(259,466)" d="m0 0 4 2 8 7 11 6v2l-4 2-6-1-11-8-2-4z" fill="#F5FDFD"/>
<path transform="translate(496,536)" d="m0 0h4l-1 9-3 13-3 2-4-1 1-8 3-12z" fill="#065543"/>
<path transform="translate(556,550)" d="m0 0 4 1v9h15l1 4-5 1v-2l-3 1-6-2-1 4h-7l-1-1v-7l1-5h2z" fill="#F9FDFD"/>
<path transform="translate(632,404)" d="m0 0 4 1-1 7h-14l-1-1h-30l-6-2v-1l47-1z" fill="#FDFEFE"/>
<path transform="translate(450,408)" d="m0 0h23v2h2l1 3-20 1-1 5-2-2h-3l-1 3z" fill="#E8FCFD"/>
<path transform="translate(617,554)" d="m0 0 5 1-1 5-5 6-2 1h-11l-4-3v-3h13l2-5z" fill="#F8FDFD"/>
<path transform="translate(129,536)" d="m0 0 3 1-1 9-2 12-1 1-1 7-3-2v-5l-1-1v-8l3-12z" fill="#065442"/>
<path transform="translate(562,485)" d="m0 0h53l-2 4 4 2h-26v-1l12-2-42-1z" fill="#E2FCFD"/>
<path transform="translate(631,537)" d="m0 0 2 3v2l3-1 2-2-3 21-3-3-5-1v5h-1v-7l4-15z" fill="#DAFEFD"/>
<path transform="translate(401,323)" d="m0 0 5 1 6 13 1 4v9l-2 3-10-25-1-3z" fill="#E8FCFD"/>
<path transform="translate(669,534)" d="m0 0h2v8l-3 19-2 2-5-4 4-18 2-5h2z" fill="#08473A"/>
<path transform="translate(361,536)" d="m0 0h3l-1 10-2 12-3 3-4-1 1-9 3-12z" fill="#07342D"/>
<path transform="translate(257,345)" d="m0 0 2 2-1 6-6 15-3 8h-2v-11l6-16 1-2h3z" fill="#073B32"/>
<path transform="translate(325,316)" d="m0 0h8v2l3-2 4 1-1 1 10 2 4 3-9-1h-17l-11 2-3-3 8-4z" fill="#E8FCFD"/>
<path transform="translate(406,408)" d="m0 0 1 2 4 1-1 11-2 10h-1l-3-14h-41l-4 3 2-4 1-1h42l1-7z" fill="#DDFDFD"/>
<path transform="translate(276,387)" d="m0 0 3 2v17l1 14-4 1-2-11v-13l1-9z" fill="#F7FDFD"/>
<path transform="translate(692,548)" d="m0 0 4 1-1 16-2 2h-5l-2-2 1-7 1-6h2v-3z" fill="#E6FCFD"/>
<path transform="translate(570,337)" d="m0 0h1v12h-2l1 16 1 3-1 3h4v2l3 1-1 1h-12l1-13z" fill="#0A3D35"/>
<path transform="translate(418,479)" d="m0 0 9 1-3 4h7l4 2h-36l4-2 1-1h9l-7-1-1-2z" fill="#026F4F"/>
<path transform="translate(758,536)" d="m0 0 3 1-1 13-3 10h-5l1-10 2-12z" fill="#055B45"/>
<path transform="translate(401,535)" d="m0 0 2 4-2 11-1 1h-11l2-6h-5l1-7 6-1 2 2v5l5 1z" fill="#DAFEFD"/>
<path transform="translate(365,421)" d="m0 0h37l-2 7-13-3-5-1v2l-9-2-8-2z" fill="#08483C"/>
<path transform="translate(470,365)" d="m0 0h45v2l-2 1h-42z" fill="#FDFEFE"/>
<path transform="translate(350,331)" d="m0 0 8 1 9 8 2 5-6 2-5-6-6-4-3-1-1-3h2z" fill="#F5FDFD"/>
<path transform="translate(311,20)" d="m0 0 4 1-20 7-28 11-23 11-2-1 22-12 23-9z" fill="#E8FDFD"/>
<path transform="translate(429,289)" d="m0 0h19l-4 4-11 1-2 12-3-1-1-6 1-9z" fill="#E9FCFD"/>
<path transform="translate(545,302)" d="m0 0 2 1v14l-3 17h-2l-2-7 1-10 3-14z" fill="#084438"/>
<path transform="translate(549,301)" d="m0 0h95l-1 11h-1l-2-9h-89l-2 3z" fill="#DBFDFD"/>
<path transform="translate(561,487)" d="m0 0h44l-2 2-12 2h-10l-14-1-6-2z" fill="#FDFEFE"/>
<path transform="translate(523,331)" d="m0 0h8l-1 4-12 2h-34l-4-2 35-1 7-2z" fill="#E5FCFD"/>
<path transform="translate(328,444)" d="m0 0h6v5l-10 3h-16v-2h3v-3l17-1z" fill="#E6FCFD"/>
<path transform="translate(278,319)" d="m0 0 4 1-7 7-10 14-5 8-3-2h-2l2-5 3-5 2 1 4-6 4-1 1-4 3-3z" fill="#084639"/>
<path transform="translate(513,535)" d="m0 0 2 1-4 20-1 6-2-2-3 1v-8l2-10h2l1-6z" fill="#065040"/>
<path transform="translate(505,520)" d="m0 0h7l1 3-3 10h-2v4l-5-1v-11z" fill="#F5FDFD"/>
<path transform="translate(407,356)" d="m0 0 1 4-11 1-1 1 15 1v1h-33l-1-1v-5l3-1 2 1h24z" fill="#074C3D"/>
<path transform="translate(389,531)" d="m0 0h9l3 2v12l-5 1-2-4v-6l-4-1-3-3z" fill="#E9FCFD"/>
<path transform="translate(219,540)" d="m0 0 7 3 1-2-1 8-3 7h-7l1-11z" fill="#DAFEFD"/>
<path transform="translate(329,532)" d="m0 0h12l2 1v11l-7 2-4-2 3-2-1-7-5-2z" fill="#E8FCFD"/>
<path transform="translate(592,410)" d="m0 0h28l1 1h9l-1 2h-61l3-2h20z" fill="#E2FCFD"/>
<path transform="translate(525,376)" d="m0 0 3 1v14l-1 5-6 2v-9l2-12z" fill="#E7FCFD"/>
<path transform="translate(314,295)" d="m0 0v3l-3 2h-3v2l-4 2h-6l-2 3-5 2-1 2h-6l5-5 14-8 4-2h6z" fill="#083E34"/>
<path transform="translate(109,534)" d="m0 0 2 1v9l-3 13-2-3h-4l-2 2 2-13 1-5 3 4 3 1z" fill="#DAFEFD"/>
<path transform="translate(316,293)" d="m0 0 29 1 5 1v1l-21 1-11 2-6 2-4-1 6-3-4-2z" fill="#074337"/>
<path transform="translate(363,417)" d="m0 0h36l-1 3h-24v-2l-8 2-2 3h-6v-2z" fill="#FDFEFE"/>
<path transform="translate(272,393)" d="m0 0h1l2 17v10l-1 6h-2l-2-8v-20h1z" fill="#093B32"/>
<path transform="translate(587,365)" d="m0 0h40l-2 2-4 1h-34z" fill="#FDFEFE"/>
<path transform="translate(244,536)" d="m0 0 4 2v7l-4 17-3 2-1-9 3-12z" fill="#065341"/>
<path transform="translate(349,539)" d="m0 0 3 1v2h5l-1 9-1 5-3-1v-2h-6l1-7z" fill="#DAFDFD"/>
<path transform="translate(291,478)" d="m0 0 4 1h34v3l-7 1h-18l-14-3z" fill="#E4FCFD"/>
<path transform="translate(440,450)" d="m0 0h2l-1 9-5 23-4 1 1-6 2-14 2-5z" fill="#083B32"/>
<path transform="translate(601,536)" d="m0 0 1 3-4 16-2 5-4-2 1-10 1-5h2v-4h2v-2z" fill="#074F3F"/>
<path transform="translate(653,539)" d="m0 0h2v9l-3 14h-3l-1-3v-8l-3-1 3-1v-4l3-3h2z" fill="#065241"/>
<path transform="translate(423,375)" d="m0 0h1l-1 14-3 14-3 21-1 8-3 7h-1l1-11z" fill="#DFFDFD"/>
<path transform="translate(461,324)" d="m0 0 6 2-2 6-2 13-4 1v-21z" fill="#07372F"/>
<path transform="translate(656,555)" d="m0 0h4v4l4 2v5l-2 1h-6l-4-3v-6h2v-2z" fill="#E6FCFD"/>
<path transform="translate(307,335)" d="m0 0 6 2v2l-8 5-7 7h-2v-3l-3 2 2-4 6-7z" fill="#F4FDFD"/>
<path transform="translate(247,440)" d="m0 0 1 3h2l1 4 3-1 4 8 1 1v6l4 1 1 5h-3l-8-10-6-12z" fill="#093D34"/>
<path transform="translate(275,418)" d="m0 0 2 3 4 10 6 8v3l-4-2-2-2-1 3-6-10-1-5z" fill="#084237"/>
<path transform="translate(586,525)" d="m0 0h3v7l-5 24h-2l-2-9-1-2h2l2-8 2-1v-7z" fill="#064F40"/>
<path transform="translate(562,521)" d="m0 0h21l1 2-1 3h-20z" fill="#F9FDFD"/>
<path transform="translate(629,537)" d="m0 0 1 4-3 13-1 9h-7l2-5 1-7 5-12z" fill="#083F35"/>
<path transform="translate(308,327)" d="m0 0 2 1-4 6-6 4-1 4-6 7-3-3v-3l12-12z" fill="#093C33"/>
<path transform="translate(458,330)" d="m0 0h1l1 14 2 2-1 10h-1l-1-7h-2v10l-1 6-3-2 2-16z" fill="#075140"/>
<path transform="translate(259,457)" d="m0 0 6 5 4 5 7 5v6l-5-2-8-7-1-7-4-1z" fill="#073B31"/>
<path transform="translate(462,345)" d="m0 0h1l1 8 2 2-1 10h5l1 3h-10l-1-2v-10z" fill="#E6FCFD"/>
<path transform="translate(434,296)" d="m0 0 3 1-2 21-4 1-1-1v-8l2-9z" fill="#083A31"/>
<path transform="translate(518,399)" d="m0 0h1v7l-1 1h-53v-1l47-1-1-1h-6l-2-2 15-1z" fill="#074D3F"/>
<path transform="translate(562,372)" d="m0 0 1 4h65v1l-6 1h-60l-1-2z" fill="#DAFEFD"/>
<path transform="translate(147,553)" d="m0 0 5 1 1 4-1 7-2 2-6-1v-8h2z" fill="#E7FCFD"/>
<path transform="translate(335,481)" d="m0 0 3 1-1 3-18 3h-12v-2h9v-2l2-1 15-1 2 1z" fill="#063A30"/>
<path transform="translate(456,554)" d="m0 0 5 2-1 10-1 1h-7v-8l2-4z" fill="#F6FDFD"/>
<path transform="translate(520,430)" d="m0 0h1l1 9 1 1-1 11-1 5-4-1-1 6h-1l1-11z" fill="#055844"/>
<path transform="translate(427,293)" d="m0 0h1v10l3 3-1 9-1 5-2-2h-4l1-10z" fill="#DAFEFD"/>
<path transform="translate(496,555)" d="m0 0h7l1 1v7l-1 2h-8l-3-3 1-3 2-1z" fill="#F8FDFD"/>
<path transform="translate(160,537)" d="m0 0h3v8l-3 15h-2l-1 3-1-8 2-14z" fill="#065040"/>
<path transform="translate(450,371)" d="m0 0 1 3-1 2 67 1-1 9h-1v-8l-62 1-4-2z" fill="#DDFDFD"/>
<path transform="translate(517,471)" d="m0 0h1v5h2l1 2 71 1v1h-75l-1-4z" fill="#DBFDFD"/>
<path transform="translate(282,482)" d="m0 0 12 3v3h-2v2l-4 1-12-5 3-3z" fill="#EAFCFD"/>
<path transform="translate(594,326)" d="m0 0h37v3h-18l-17-1z" fill="#0B3732"/>
<path transform="translate(556,290)" d="m0 0h33v2h-11v1l-19 1-4-2z" fill="#EAFCFD"/>
<path transform="translate(373,533)" d="m0 0h1l-1 10-2 4v-3h-2l-2 5-5 6-1-4 3-15-3-1h4l2 7h3z" fill="#DAFEFD"/>
<path transform="translate(622,448)" d="m0 0 4 4 2-3-1 9-2 9-1-4h-5l1-9z" fill="#E5FCFD"/>
<path transform="translate(378,540)" d="m0 0 1 4 3 6h6l1 2-5 1-1 6-1-4-5 1-1 6h-1v-10z" fill="#DAFEFD"/>
<path transform="translate(276,473)" d="m0 0 17 7 5 1v1l-11 2-11-5z" fill="#074C3D"/>
<path transform="translate(181,87)" d="m0 0 3 1-16 12-15 13-6 5-2-1 8-8 11-9 15-12z" fill="#E9FDFD"/>
<path transform="translate(548,306)" d="m0 0h1l-1 20-2 5-2 15-3 9h-1l1-10z" fill="#DEFDFD"/>
<path transform="translate(364,422)" d="m0 0 9 1 8 3 7 1v1l-21 1-3 2-1-3 4-4-6 2z" fill="#084B3C"/>
<path transform="translate(562,369)" d="m0 0 1 3-1 5 39 1v1l-27 1-6 2h-5l-3-4v-7z" fill="#EAFCFD"/>
<path transform="translate(421,333)" d="m0 0 3 4v9l-2 6-3-1-1 2v-9l1-9h2z" fill="#E7FCFD"/>
<path transform="translate(609,551)" d="m0 0h11l-1 3-5 3-2 3h-5l-1-1v-6z" fill="#07382F"/>
<path transform="translate(520,551)" d="m0 0h11v3l-5 3-2 3h-6v-6z" fill="#094237"/>
<path transform="translate(641,531)" d="m0 0 6 1v3l-3 3v-2l-4 1-1 2h-2l-2 4-3-3 1-4 5-4z" fill="#E8FCFD"/>
<path transform="translate(527,417)" d="m0 0h1v10l-1 10-2 4-1 14-4 11h-1l1-10z" fill="#DFFDFD"/>
<path transform="translate(637,375)" d="m0 0 4 1v9l-1 7-3 2-2-3v-9z" fill="#EDFCFD"/>
<path transform="translate(645,44)" d="m0 0 6 1 19 10 16 9-1 3-16-9-6-4-14-7z" fill="#EAFDFD"/>
<path transform="translate(147,532)" d="m0 0h9v9l-3 2-4-2v-3h-2l-1-5z" fill="#EAFCFD"/>
<path transform="translate(289,300)" d="m0 0 5 1-2 4-8 6-5-1-1 3-2-3z" fill="#F3FDFD"/>
<path transform="translate(204,556)" d="m0 0h4l1 4-1 6-1 1h-7v-8l4-1z" fill="#E6FCFD"/>
<path transform="translate(370,520)" d="m0 0h5l2 3-2 7-1 1h-6v-9z" fill="#F8FDFD"/>
<path transform="translate(647,316)" d="m0 0h5v12h-2v2l-4 4-4-2 5-4-1-1z" fill="#F7FDFD"/>
<path transform="translate(279,310)" d="m0 0 3 1-6 7-4 4-7 2 1-4 9-9 3 1z" fill="#E5FCFD"/>
<path transform="translate(549,295)" d="m0 0 65 1v1l-62 1-6 3v-5z" fill="#082725"/>
<path transform="translate(547,456)" d="m0 0h57v1l-41 1-15 1z" fill="#EAFCFD"/>
<path transform="translate(411,429)" d="m0 0h1v10l-2 10-2 1-2-4v-8l2-7h3z" fill="#073D33"/>
<path transform="translate(481,552)" d="m0 0 5 1 3 13h-6l-2-2z" fill="#F8FDFD"/>
<path transform="translate(592,520)" d="m0 0h6l1 3-3 9-2 1v-2h-2v-2h-2v-6z" fill="#F6FDFD"/>
<path transform="translate(263,537)" d="m0 0 6 1v4l-2 7-3 1-2 5h-1l1-12z" fill="#E7FCFD"/>
<path transform="translate(457,349)" d="m0 0h2l1 2v11l-2 7-1 3-3-1-1-8 3-4z" fill="#0A3932"/>
<path transform="translate(174,538)" d="m0 0h2l2 10-2 4-5 4-1-2 2-15z" fill="#065241"/>
<path transform="translate(557,420)" d="m0 0h1v17l-3 9-2-1v-10l2-10h2z" fill="#093A32"/>
<path transform="translate(317,287)" d="m0 0h9l-1 3-9 2h-4v2l-4 1-4-2 3-3z" fill="#FAFDFD"/>
<path transform="translate(438,536)" d="m0 0 4 1-1 5-10 5h-4v-2l-2-1 9-3 2-4z" fill="#07483A"/>
<path transform="translate(263,531)" d="m0 0h8l1 3-2 7h-3l2-1v-2l-4-1-1 2-2-3-6-2v-1z" fill="#F8FEFD"/>
<path transform="translate(365,423)" d="m0 0 3 1-4 5-1 4-2 3-5 1-5 3 2-4 8-10z" fill="#07322B"/>
<path transform="translate(645,326)" d="m0 0 3 3-3 2-25 1h-22l-11-1v-1l57-1z" fill="#DDFDFD"/>
<path transform="translate(491)" d="m0 0h15l11 3 14 3v1l-10-1-28-4z" fill="#DCFDFD"/>
<path transform="translate(116,556)" d="m0 0 4 1 1 7-3 3-6-1v-6h2z" fill="#E5FCFD"/>
<path transform="translate(407,354)" d="m0 0 5 3v6h-28v-1l12-1 1-1h11z" fill="#082A27"/>
<path transform="translate(413,343)" d="m0 0 2 2 1 5 6 2-1 8-2-1-1-3-5 1h-2l1-7z" fill="#DAFEFD"/>
<path transform="translate(374,300)" d="m0 0 5 2 7 5-2 1 1 3-3 1-12-8 4-2z" fill="#08483B"/>
<path transform="translate(714,532)" d="m0 0h7l5 2v7l-4 2-2-2-1-5-7-1v-2z" fill="#E8FCFD"/>
<path transform="translate(845,520)" d="m0 0 3 1-5 5-2 4 1 6 6 4 5 2v1h-8l-6-5-1-7 3-7z" fill="#DAFEFD"/>
<path transform="translate(442,416)" d="m0 0h1v13l-2 3-2 9-2 13-2 7h-1l1-11z" fill="#027150"/>
<path transform="translate(384,552)" d="m0 0h13l-5 5-4 3h-5v-7z" fill="#08352E"/>
<path transform="translate(743,537)" d="m0 0h3l-1 9h-2l-2 11-1 5h-2v-10h2l1-9z" fill="#065040"/>
<path transform="translate(240,517)" d="m0 0 4 1v3l-7 5-8 2 1-4 8-6z" fill="#EFFDFD"/>
<path transform="translate(401,464)" d="m0 0h1v13h2l2 4 7 1 1 2h-10l-1 1h-5l1-10z" fill="#065342"/>
<path transform="translate(465,338)" d="m0 0h2v2h2l-1 11-1 4-4-2v-9z" fill="#F7FDFD"/>
<path transform="translate(768,520)" d="m0 0h6l1 3-2 5h-2l-1 3-4-1v-8z" fill="#F5FDFD"/>
<path transform="translate(434,451)" d="m0 0h1l-1 10-3 17-3 2-4-1 3-1 3-11 1-12 1-2h2z" fill="#E2FCFD"/>
<path transform="translate(277,380)" d="m0 0 5 2-2 33h-1l-1-10v-14l-2-4z" fill="#E3FCFD"/>
<path transform="translate(232,558)" d="m0 0 5 2-1 4-6 2h-7l1-5 7-2z" fill="#FBFDFD"/>
<path transform="translate(132,557)" d="m0 0 4 2v7l-1 1h-6l-1-1v-8z" fill="#E5FCFD"/>
<path transform="translate(161,557)" d="m0 0 5 1 1 1v6l-2 2h-6l-1-3z" fill="#E7FCFD"/>
<path transform="translate(557,538)" d="m0 0 3 4 3 7-1 11h-2l-1-9-3-1-1 3 1-10z" fill="#E7FCFD"/>
<path transform="translate(496,536)" d="m0 0h4l-1 9-3 12h-2l1-19z" fill="#094136"/>
<path transform="translate(182,531)" d="m0 0h14l3 2v10l-1 2-5-2-1-4 4-3v-2l-2-1-12-1z" fill="#E1FDFD"/>
<path transform="translate(694,531)" d="m0 0h6l1 4-1 6-7-2-1-1v-5z" fill="#E5FCFD"/>
<path transform="translate(412,379)" d="m0 0 4 1v9l-1 5-5-2v-8z" fill="#E7FCFD"/>
<path transform="translate(319,329)" d="m0 0 4 1h-2l1 3h-2l1 3-8 2-5-3 5-4z" fill="#E7FCFD"/>
<path transform="translate(787,549)" d="m0 0h2l-1 8-4 3-5-1 1-5z" fill="#027150"/>
<path transform="translate(443,431)" d="m0 0 1 3-1 15-3 1-1 7-2 1v-7l4-15z" fill="#082F2B"/>
<path transform="translate(341,438)" d="m0 0h2l1 4 2 1-9 5h-3v-4l-3-1z" fill="#DAFEFD"/>
<path transform="translate(438,549)" d="m0 0 2 2-3 8-1 1h-5l-1-5 5-5z" fill="#084136"/>
<path transform="translate(560,532)" d="m0 0 5 1-1 13-2 3-4-9z" fill="#FDFEFE"/>
<path transform="translate(535,376)" d="m0 0h1v9l-3 14-2 12-2 6h-1l1-10z" fill="#DFFDFD"/>
<path transform="translate(329,552)" d="m0 0h9l-3 1-2 5-2 2h-6l-1-4h2l1-3z" fill="#093D34"/>
<path transform="translate(534,355)" d="m0 0h1l1 5 2 2-1 9-1 5h-1l-1-5-3 4 1-10z" fill="#055B45"/>
<path transform="translate(490,548)" d="m0 0 1 3-1 8 3 2v3l9 1v1l-17 1 3-2-1-7z" fill="#E3FCFD"/>
<path transform="translate(231,536)" d="m0 0 4 1-1 5-1 3-4 1-2 5h-1l1-10 2-4z" fill="#084A3C"/>
<path transform="translate(739,519)" d="m0 0 5 1v6l-2 2h-5l-2-5z" fill="#DFFDFD"/>
<path transform="translate(605,486)" d="m0 0h8v3l4 2h-26v-1l14-2z" fill="#EAFCFD"/>
<path transform="translate(619,463)" d="m0 0h5v9l-3 4-3-4v-8z" fill="#F8FDFD"/>
<path transform="translate(396,553)" d="m0 0 4 1-2 7-4 2-3-2v-2l-2-1z" fill="#E3FCFD"/>
<path transform="translate(118,532)" d="m0 0 11 1-2 5h-2v2l-5-1-2-2z" fill="#E8FCFD"/>
<path transform="translate(365,421)" d="m0 0h37l-1 2-8 1-28-2z" fill="#027150"/>
<path transform="translate(80,521)" d="m0 0 3 1 1 2v9l-5 3-3-2v-7l5 2v-6z" fill="#E3FCFD"/>
<path transform="translate(72,520)" d="m0 0 8 1 2 2v6h-4l-5-5-2-3z" fill="#FDFEFE"/>
<path transform="translate(124,138)" d="m0 0v3l-9 10-14 15v-3l12-13 7-8z" fill="#E1FDFD"/>
<path transform="translate(426,534)" d="m0 0 2 4-4 6-5 1-3 7h-1v-7l10-10z" fill="#065341"/>
<path transform="translate(169,520)" d="m0 0h6l1 5-1 2-5 1-4-2 2-5z" fill="#EFFDFD"/>
<path transform="translate(276,387)" d="m0 0 3 2v16l-2 1-2-3v-15z" fill="#FAFDFD"/>
<path transform="translate(410,557)" d="m0 0h1v9l-7 1-2-4 1-3h6z" fill="#F6FDFD"/>
<path transform="translate(672,533)" d="m0 0h1l2 8 1 3-3 3-3 7-2 2 1-10z" fill="#DAFEFD"/>
<path transform="translate(216,535)" d="m0 0 1 2h3l-1 5-2 3-3 1-2 6h-1l1-8 2-8z" fill="#065543"/>
<path transform="translate(774,534)" d="m0 0 2 2-2 12-3 8h-2l1-8 3-13z" fill="#07493D"/>
<path transform="translate(624,443)" d="m0 0h5v5l-2 5-4-2-1-3-5-2 3-2z" fill="#F9FDFD"/>
<path transform="translate(377,555)" d="m0 0h5l1 4 5 1v1l-6 2-5 1h-1v-8z" fill="#E8FCFD"/>
<path transform="translate(617,554)" d="m0 0 5 1-1 5-5 5-3-6 2-4z" fill="#E6FCFD"/>
<path transform="translate(702,540)" d="m0 0h1l-1 9-3 13h-2l1-11 2-9z" fill="#08493D"/>
<path transform="translate(573,538)" d="m0 0h6l2 1v5l-5 1h-11v-1l8-1-1-4z" fill="#E3FCFD"/>
<path transform="translate(698,519)" d="m0 0 4 1 1 5-2 3-5-1-1-5z" fill="#EEFDFD"/>
<path transform="translate(211,519)" d="m0 0 5 1 1 4-4 4-5-2v-5z" fill="#F0FDFD"/>
<path transform="translate(644,323)" d="m0 0h2l-1 4-2 2h-12v-4l10-1 2 1z" fill="#074A3D"/>
<path transform="translate(297,301)" d="m0 0 5 1v2h-4l-2 3-5 2-1 2h-6l5-5z" fill="#08312B"/>
<path transform="translate(448,294)" d="m0 0h5l-1 2-6 1v1l-7 1-2 6h-1v-8l-2-1-1 5-1-4 1-2z" fill="#055A45"/>
<path transform="translate(104,736)" d="m0 0 5 2 6 8 4 4-1 4-12-13-2-2z" fill="#438377"/>
<path transform="translate(854,521)" d="m0 0 5 2 3 4v10l-4 4-5 1 1-3 6-2-1-10-6-4z" fill="#DAFEFD"/>
<path transform="translate(564,520)" d="m0 0h21l1 5-1 2-16 1-2 2 1-4h15v-4l-19-1z" fill="#DCFDFD"/>
<path transform="translate(570,337)" d="m0 0h1v12h-2v14l-4 3 1-8z" fill="#055844"/>
<path transform="translate(359,326)" d="m0 0 5 1 9 6 2 4 2 6-2 1-6-9-8-7z" fill="#E5FCFD"/>
<path transform="translate(584,558)" d="m0 0 5 1-1 8h-5l-1-1v-6z" fill="#F6FDFD"/>
<path transform="translate(612,536)" d="m0 0 4 1 1 1v5l-1 1h-7v-5z" fill="#084539"/>
<path transform="translate(357,422)" d="m0 0 6 1-6 9h-5v-3z" fill="#DEFDFD"/>
<path transform="translate(525,536)" d="m0 0 4 1 1 5-2 2h-6l1-7z" fill="#084438"/>
<path transform="translate(431,532)" d="m0 0h10v3l-9 2v2h-4l1-5z" fill="#FAFDFD"/>
<path transform="translate(602,448)" d="m0 0h20l-1 6h-3l-1-2-15-3z" fill="#084035"/>
<path transform="translate(554,417)" d="m0 0h1v12l-2 11-3 2 1-10z" fill="#055C46"/>
<path transform="translate(389,537)" d="m0 0 5 1 1 4-2 2h-7l1-6z" fill="#083F35"/>
<path transform="translate(165,533)" d="m0 0h7l-1 8h-5l-1-1z" fill="#E9FCFD"/>
<path transform="translate(414,394)" d="m0 0h1l1 9h2l-1 9-1-3h-3l-2 4 2-14z" fill="#065340"/>
<path transform="translate(417,388)" d="m0 0h2v13l-3 3-1-1v-11h2z" fill="#0A3831"/>
<path transform="translate(415,355)" d="m0 0 4 1 1 4-5 6h-2l-1-9z" fill="#EAFCFD"/>
<path transform="translate(53,234)" d="m0 0 1 3-12 24-1-4 8-16z" fill="#EEFDFD"/>
<path transform="translate(331,536)" d="m0 0 4 1 1 5-2 2h-5l-1-5z" fill="#063F33"/>
<path transform="translate(299,524)" d="m0 0h3v2h17v1h-16l-1 12h-1l-1-8-2-1z" fill="#E1FDFD"/>
<path transform="translate(382,424)" d="m0 0 11 1 6 1v4l-4 1-3-3-11-1z" fill="#0A3831"/>
<path transform="translate(530,388)" d="m0 0h1v14l-1 5h-2l-1-5v-6z" fill="#084338"/>
<path transform="translate(421,324)" d="m0 0 2 4 4-1-2 13-2-3-2-2h-1z" fill="#DAFEFD"/>
<path transform="translate(429,315)" d="m0 0 3 3 2 1-1 8-1 6h-1l-1-9-2 4-1-3z" fill="#07513F"/>
<path transform="translate(144,536)" d="m0 0h3l1 6-2 6h-3v-11z" fill="#084639"/>
<path transform="translate(422,531)" d="m0 0h4l-1 6-3 3-4-1 1-5z" fill="#EFFDFD"/>
<path transform="translate(186,532)" d="m0 0h8l3 2-2 4-4 1-2-3-3-1z" fill="#FBFEFD"/>
<path transform="translate(343,477)" d="m0 0h2v2h-4l3 4-6 1v-2l-8 1h-8v-1l15-3z" fill="#064B3B"/>
<path transform="translate(435,468)" d="m0 0 3 1-1 10-2 4-3-1 1-5 1-8z" fill="#0A3C34"/>
<path transform="translate(413,409)" d="m0 0h3v9l-2 7h-2l1-9h-2l1-5z" fill="#07322C"/>
<path transform="translate(279,372)" d="m0 0h5l-1 9-5 2-1-5z" fill="#EDFDFD"/>
<path transform="translate(406,465)" d="m0 0h1v8l3 5 8 1v1h-14l1-11z" fill="#E0FDFD"/>
<path transform="translate(617,470)" d="m0 0 4 5 2-2-1 9-6-1z" fill="#E6FCFD"/>
<path transform="translate(520,395)" d="m0 0 2 2 4-1-1 11-2-3h-3l-1 2z" fill="#DAFEFD"/>
<path transform="translate(578,344)" d="m0 0 2 1v9h-2l-1 3v-2h-2v-8z" fill="#F9FDFD"/>
<path transform="translate(245,560)" d="m0 0h6v6l-1 1h-5l-2-2 1-4z" fill="#F4FDFD"/>
<path transform="translate(821,552)" d="m0 0 3 2-1 8-2 2-4-4z" fill="#FDFEFE"/>
<path transform="translate(455,538)" d="m0 0h1l-1 10-2 11-2 1-1-5 2-5 1-11z" fill="#094338"/>
<path transform="translate(247,430)" d="m0 0 2 3 4 11-2 4-1-5-4-1-1-4h2z" fill="#074E3E"/>
<path transform="translate(335,554)" d="m0 0h5l-1 7-4 4 1-4h-2l-1-5z" fill="#E5FCFD"/>
<path transform="translate(441,540)" d="m0 0 1 4h2l-2 4-3 2-4-2-1-3 5-3h2z" fill="#DAFEFD"/>
<path transform="translate(129,536)" d="m0 0 3 1-1 9-4 3v-12z" fill="#08493B"/>
<path transform="translate(244,536)" d="m0 0 4 2v7l-1 4-4 1z" fill="#084A3D"/>
<path transform="translate(526,396)" d="m0 0h1l1 9 1 7-4-2v7l-2 1 2-16z" fill="#055A45"/>
<path transform="translate(422,351)" d="m0 0 3 1v2h-2l1 4-1 8-2 7h-2l1-11z" fill="#055743"/>
<path transform="translate(405,352)" d="m0 0 2 4-1 3h-24v-3l3 1h9l3-1 7 2z" fill="#DAFEFD"/>
<path transform="translate(389,531)" d="m0 0h9l1 3-3 1v2l-6-2-3-3z" fill="#FBFDFD"/>
<path transform="translate(610,478)" d="m0 0 1 2-4 3-12-1-3-3z" fill="#055944"/>
<path transform="translate(401,436)" d="m0 0 5 2-1 10-2-4-3-1-1-3-2 1 2-4z" fill="#DAFEFD"/>
<path transform="translate(425,346)" d="m0 0h2v13l-1 5h-2v-7l-1-3h2v-2h-2z" fill="#093931"/>
<path transform="translate(278,319)" d="m0 0 4 1-7 7-6 8-2-3 3-1 1-4 3-3z" fill="#07503F"/>
<path transform="translate(642,367)" d="m0 0h1l-1 11-1-2h-3l-2 6h-1v-13h2v2l4 1z" fill="#DAFEFD"/>
<path transform="translate(457,346)" d="m0 0 1 3-2 16-3-2 2-16z" fill="#065442"/>
<path transform="translate(210,554)" d="m0 0 4 4v4l2-2 1 6h-6l-1-1z" fill="#065140"/>
<path transform="translate(435,535)" d="m0 0h6l-3 2-7 6h-5l1-5 5 1v-2z" fill="#E4FCFD"/>
<path transform="translate(291,478)" d="m0 0 4 1h11l2 1 10 1v1h-20l-8-2z" fill="#EBFCFD"/>
<path transform="translate(438,559)" d="m0 0 5 2 1 1v5h-6l-1-4z" fill="#F8FEFD"/>
<path transform="translate(669,534)" d="m0 0h2v8l-4 4-1-1 1-9h2z" fill="#08362F"/>
<path transform="translate(513,535)" d="m0 0 2 1-3 9-2 3-1-3-2 1v-3h2l1-6z" fill="#074C3E"/>
<path transform="translate(259,457)" d="m0 0 6 5 4 5 3 3-7-1-3-7-4-1z" fill="#074E3E"/>
<path transform="translate(95,171)" d="m0 0v3l-8 11-6 7v-3l11-15z" fill="#EBFDFD"/>
<path transform="translate(260,537)" d="m0 0h3v6l-1 2h-2l-1 6-1-3v-10z" fill="#0A4137"/>
<path transform="translate(516,426)" d="m0 0h4v9l-2 1-3-2z" fill="#E8FCFD"/>
<path transform="translate(445,402)" d="m0 0 4 1h-2l1 8-2 4-3 1 1-10z" fill="#08483B"/>
<path transform="translate(771,135)" d="m0 0 4 1 14 15-2 2-9-10-3-3v-2l-4-2z" fill="#E9FDFD"/>
<path transform="translate(356,546)" d="m0 0 2 4 1 5-1 4 2 1-4 1-2-1 1-9z" fill="#08493B"/>
<path transform="translate(637,542)" d="m0 0h1l1 12-1 4 2 1-5 1 1-11z" fill="#055743"/>
<path transform="translate(208,533)" d="m0 0h6l-2 6h-6v-5z" fill="#EAFCFD"/>
<path transform="translate(376,528)" d="m0 0 1 3 4 2-1 3-4 1-2 5-1-3 2-10z" fill="#065442"/>
<path transform="translate(362,466)" d="m0 0 2 1-5 5-2 5-6 2v-2l3-3-1-2z" fill="#074136"/>
<path transform="translate(411,439)" d="m0 0h1v16l-4 5 1-11z" fill="#E4FCFD"/>
<path transform="translate(244,399)" d="m0 0h1l1 25-2 1-2-8h2l-1-3z" fill="#045F47"/>
<path transform="translate(293,357)" d="m0 0h2l-2 6h-2l-3 9-2 1 1-7 5-8z" fill="#055743"/>
<path transform="translate(374,350)" d="m0 0h5l2 8h-4l-1 2z" fill="#074034"/>
<path transform="translate(295,308)" d="m0 0v3l-11 9-5 5-2-1 12-12z" fill="#DAFEFD"/>
<path transform="translate(284,29)" d="m0 0 3 1-5 3-10 4h-6l3-2z" fill="#F1FDFD"/>
<path transform="translate(810,548)" d="m0 0h1v11h4l2-6h1v7l-2 1h-7l-1-1v-6z" fill="#DBFDFD"/>
<path transform="translate(341,550)" d="m0 0 1 2-1 6-1-4h-5v-1h-6l-3 3h-2l2-5z" fill="#026D4E"/>
<path transform="translate(377,535)" d="m0 0h3l-1 5-2 6-4-2-1 3 1-5 3-6z" fill="#084136"/>
<path transform="translate(363,417)" d="m0 0h11v1l-8 2-2 3h-6v-2z" fill="#F9FDFD"/>
<path transform="translate(407,343)" d="m0 0 2 3 2 6-1 5-2-2-2 1-1-6h2z" fill="#074D3E"/>
<path transform="translate(289,340)" d="m0 0 3 1-11 11-1-4 7-7z" fill="#EEFCFD"/>
<path transform="translate(452,295)" d="m0 0 9 2v2h-15l-1-3z" fill="#094339"/>
<path transform="translate(569,290)" d="m0 0h20v2h-11v1h-6v-2z" fill="#FAFDFD"/>
<path transform="translate(111,547)" d="m0 0 3 1-1 2-2 13-2-3 1-2h-2l1-5z" fill="#074C3E"/>
<path transform="translate(638,544)" d="m0 0h3l1 8-2 6h-2z" fill="#0A3831"/>
<path transform="translate(775,536)" d="m0 0h1l1 7 1 5-4 3-2 4 1-7z" fill="#027150"/>
<path transform="translate(403,466)" d="m0 0h2v8l-2 6-2-3v-7z" fill="#0A3932"/>
<path transform="translate(405,443)" d="m0 0 3 2 1 9-3-1-2 5-1-4z" fill="#084B3C"/>
<path transform="translate(452,364)" d="m0 0 5 10v2h-7z" fill="#074E3F"/>
<path transform="translate(430,323)" d="m0 0h1v15h-2l-1-5h-1v-5z" fill="#08312B"/>
<path transform="translate(370,552)" d="m0 0 4 4h1v7l-6-1z" fill="#084A3D"/>
<path transform="translate(185,536)" d="m0 0 5 1 2 4-3 3-4-3z" fill="#026F4F"/>
<path transform="translate(824,522)" d="m0 0h1l-1 10-3 10h-1v-6l-3-1h3l-3-4 4 1 2-7z" fill="#DAFDFD"/>
<path transform="translate(662,521)" d="m0 0h5v7l-6-1v-5z" fill="#F8FDFD"/>
<path transform="translate(385,450)" d="m0 0h4l1 4-5 5-3-5z" fill="#E5FCFD"/>
<path transform="translate(255,342)" d="m0 0 1 3-6 12-2 1 1-6 5-9z" fill="#E5FCFD"/>
<path transform="translate(685,531)" d="m0 0 4 1-1 7-8 3 1-3 5-1 1-2-4-1z" fill="#E0FDFD"/>
<path transform="translate(246,368)" d="m0 0h1v8h2l-1 8-2-4-2 1 1-10z" fill="#055944"/>
<path transform="translate(538,299)" d="m0 0 3 1v7l-2 4h-2l-1 2z" fill="#DAFEFD"/>
<path transform="translate(641,531)" d="m0 0 6 1v3l-3 3-1-2-6-2 1-2z" fill="#FDFEFE"/>
<path transform="translate(311,448)" d="m0 0h11v3h-14l3-1z" fill="#FDFEFE"/>
<path transform="translate(357,435)" d="m0 0 3 2-7 7-4 2 1-4z" fill="#08493B"/>
<path transform="translate(249,364)" d="m0 0h2v8l-2 4h-2v-8z" fill="#083730"/>
<path transform="translate(538,349)" d="m0 0h1v12h-3-1v-7z" fill="#083B33"/>
<path transform="translate(612,531)" d="m0 0 8 1 3 1-1 4v-3l-10 1-2-3z" fill="#FCFDFD"/>
<path transform="translate(558,432)" d="m0 0h1v7h3l1-2 1 6-7-1-1 2z" fill="#DAFEFD"/>
<path transform="translate(274,397)" d="m0 0 3 4v12h-2l-1-3z" fill="#E4FCFD"/>
<path transform="translate(411,402)" d="m0 0h1v8l-3 1-2-1v-5z" fill="#E8FCFD"/>
<path transform="translate(416,383)" d="m0 0 5 2-1 10h-1v-7h-2v4h-2z" fill="#065542"/>
<path transform="translate(246,379)" d="m0 0h1l-1 10h-2l-1 4v-12z" fill="#093831"/>
<path transform="translate(622,377)" d="m0 0h7l-1 11-2 6-2 4 1-10 1-1v-8z" fill="#E4FCFD"/>
<path transform="translate(369,298)" d="m0 0 5 1 1 4-3 1-7-2z" fill="#073930"/>
<path transform="translate(313,288)" d="m0 0 4 1-5 2v3l-4 1-4-2 3-3z" fill="#F0FDFD"/>
<path transform="translate(191,541)" d="m0 0h2l3 3v5l-4-1-3-3v-2h2z" fill="#074438"/>
<path transform="translate(309,538)" d="m0 0 7 1 1 4-2 2h-9v-1h7l-2-3z" fill="#DAFEFD"/>
<path transform="translate(438,536)" d="m0 0 4 1-1 5h-4l-3-1 2-4z" fill="#08493B"/>
<path transform="translate(615,459)" d="m0 0 3 1v6h-3l-2 4v-8z" fill="#08332D"/>
<path transform="translate(389,445)" d="m0 0h5l-1 4-2 3h-2v-2l-3 1 2-5z" fill="#F6FDFD"/>
<path transform="translate(564,411)" d="m0 0 3 3v9h-2l-2-3v-7z" fill="#F9FDFD"/>
<path transform="translate(242,385)" d="m0 0h1l1 9-3 4zm4 0h1l-1 12-2-4v-4h2z" fill="#046349"/>
<path transform="translate(719,88)" d="m0 0 5 2 9 8 2 2-4-1-12-9z" fill="#F1FDFD"/>
<path transform="translate(397)" d="m0 0h13l-3 2-7 1h-9l4-2z" fill="#DAFEFD"/>
<path transform="translate(94,541)" d="m0 0 1 4-3 15h5v1h-6l-1-4 1-9z" fill="#DAFEFD"/>
<path transform="translate(714,532)" d="m0 0h7l1 5-2 1-1-2-7-1v-2z" fill="#FDFEFE"/>
<path transform="translate(247,440)" d="m0 0 1 3h2l4 10v2h-2l-5-10z" fill="#07352E"/>
<path transform="translate(363,427)" d="m0 0m-1 1 2 1-1 4-2 3-4-1 4-6z" fill="#0A3A33"/>
<path transform="translate(473,408)" d="m0 0h12l-3 2 1 2h-8v-2h-2z" fill="#FDFEFE"/>
<path transform="translate(316,293)" d="m0 0 3 1-3 3h5l-3 2-6 2-4-1 6-3-4-2z" fill="#045F46"/>
<path transform="translate(786,562)" d="m0 0 2 2h6v2l-5 1h-15v-1l10-2z" fill="#DAFEFD"/>
<path transform="translate(437,474)" d="m0 0 4 4 2-2-1 8-4-2-2 1z" fill="#E4FCFD"/>
<path transform="translate(454,361)" d="m0 0 4 4-1 7-3-1-1-8z" fill="#0B3833"/>
<path transform="translate(250,356)" d="m0 0 2 4 1 5-2 3v-4h-2l-1 4-1-3z" fill="#075240"/>
<path transform="translate(403,539)" d="m0 0h4v7h-5v-6z" fill="#065341"/>
<path transform="translate(521,429)" d="m0 0h2l1 2v9l-3-1z" fill="#093E35"/>
<path transform="translate(272,426)" d="m0 0 2 2 5 10v3l-4-4-3-6z" fill="#DAFEFD"/>
<path transform="translate(400,422)" d="m0 0 1 3-2 3-9-3v-2h7z" fill="#065140"/>
<path transform="translate(549,295)" d="m0 0 14 1v1l-11 1-6 3v-5z" fill="#0C3732"/>
<path transform="translate(422,558)" d="m0 0 5 3 1 5-5-1-1-1z" fill="#FAFDFD"/>
<path transform="translate(234,541)" d="m0 0 2 1 1 5-2 5-3 2 1-8z" fill="#DAFEFD"/>
<path transform="translate(586,525)" d="m0 0h3v7l-1 5-2-2-1-6z" fill="#065342"/>
<path transform="translate(605,455)" d="m0 0h6l2 3v9h-1l-2-7-1-2-4-1z" fill="#E8FCFD"/>
<path transform="translate(301,452)" d="m0 0h10l5 1v1l-13 1-2-1z" fill="#082A27"/>
<path transform="translate(399,439)" d="m0 0 1 4-3 7-2 1v-6z" fill="#06513F"/>
<path transform="translate(280,436)" d="m0 0 7 6 1 3-3 1-4-4zm7 4 2 2h-2z" fill="#074B3D"/>
<path transform="translate(280,432)" d="m0 0h2l5 7v3l-4-2-3-4z" fill="#083C33"/>
<path transform="translate(545,296)" d="m0 0 2 4 2-1v7l-1 5h-1l-1-8h-2z" fill="#055D46"/>
<path transform="translate(395,469)" d="m0 0h4v6l-5 1v-6z" fill="#F8FDFD"/>
<path transform="translate(407,439)" d="m0 0 3 1v9l-2 1-2-4z" fill="#08342E"/>
<path transform="translate(323,329)" d="m0 0h5l-4 6h-4l1-5z" fill="#FAFEFD"/>
<path transform="translate(269,327)" d="m0 0 1 2-2 3h-2l-2 4-3 3 1-5 5-5z" fill="#07352E"/>
<path transform="translate(282,311)" d="m0 0 2 1-4 5-8 7-2-1z" fill="#054A3A"/>
<path transform="translate(104,736)" d="m0 0 5 2 3 4v2l-4-1-4-4z" fill="#36786A"/>
<path transform="translate(629,537)" d="m0 0 1 4-2 8-2-3-2 1 2-5z" fill="#06503F"/>
<path transform="translate(436,454)" d="m0 0h1l-1 9-3 9h-1l1-11h2z" fill="#055844"/>
<path transform="translate(442,416)" d="m0 0h1v13l-3 1 1-9z" fill="#046249"/>
<path transform="translate(536,306)" d="m0 0 1 4-2 9h-2l-1-4 1-4v-2z" fill="#084D3D"/>
<path transform="translate(645,305)" d="m0 0 3 1v10h-2l-1-4z" fill="#072F2A"/>
<path transform="translate(292,304)" d="m0 0 2 1-4 6h-6l5-5z" fill="#073930"/>
<path transform="translate(156,107)" d="m0 0 3 1-11 9h-3l8-8z" fill="#E6FDFD"/>
<path transform="translate(728,557)" d="m0 0h1l1 7h4l2-3-1 5-4 1-4-2z" fill="#DAFEFD"/>
<path transform="translate(702,540)" d="m0 0h1l-1 9-3 1 1-8z" fill="#0A3B34"/>
<path transform="translate(298,303)" d="m0 0 4 2-10 6h-3l3-4 4-1z" fill="#065943"/>
<path transform="translate(311,291)" d="m0 0h15v1l-13 3-3-1h2z" fill="#E3FCFD"/>
<path transform="translate(111,152)" d="m0 0v3l-9 10-2 1 2-4z" fill="#EFFDFD"/>
<path transform="translate(663,548)" d="m0 0h1l1 10-2 3-2-4z" fill="#055944"/>
<path transform="translate(726,536)" d="m0 0h1v7l-4 2-4-3 1-4 2 4 4-1z" fill="#DAFEFD"/>
<path transform="translate(329,532)" d="m0 0h10v2l-5 2-5-3z" fill="#FDFEFE"/>
<path transform="translate(146,531)" d="m0 0h9v1l-8 1v3l-4 1v-3l-3-1z" fill="#DBFDFD"/>
<path transform="translate(738,521)" d="m0 0h5l-1 5-3 1-2-5z" fill="#FDFEFE"/>
<path transform="translate(527,365)" d="m0 0 4 1v4l-6 1z" fill="#EAFCFD"/>
<path transform="translate(515,365)" d="m0 0h7l3 2-3 1h-9l2-1z" fill="#EAFCFD"/>
<path transform="translate(638,301)" d="m0 0h6l-1 11h-1l-2-9z" fill="#E5FCFD"/>
</svg>
