<?xml version="1.0" encoding="UTF-8"?>
<svg version="1.1" viewBox="0 0 2048 741" width="1280" height="1280" xmlns="http://www.w3.org/2000/svg">
<path transform="translate(712)" d="m0 0h80l11 4 12 3 21 8 23 12 17 12 10 9 8 7 7 8 6 7 10 14 9 13 12 23 6 14 3 12 4 2 1 4-2 23 5-3 4-5 2-29 4-15 1-20 4-13v-12l2-9 2-4v-17l2-5 2-16 6-16 8-4 6-1h44l41 2 67 1h204l91-1 89-2h28l18 1 11 3 1 1v19l-2 10-7 21-2 19-7 35-6 20-4 2h-172l-1 12-3 16-3 21-3 12-2 4 8 1 101 3 48 1 15 1 2 1-1 10-3 12-3 32-7 26v18l-3 16-2 10-1 1-180 1-5 41-4 26-1 10h171l1 4-2 21-7 21-7 39-2 18-7 21-4 7h-307l1-7 2-9v-12l2-6 1-18 4-11 5-19 2-20 4-19 2-9 1-13 3-11 3-14 2-7 3-23 2-9-10-1h-139l-7 1-4 18-2 8-1 17-2 9-3 8-4 13v8l-5 26-2 11-2 15-4 10-3 7-2 15-7 32-4 8-2 2h-124l-1-1v-25l2-10 2-9 1-11 3-7 1-9-2-1 5-22 2-6-9 1-2-2-2 1v-2l-8 7-11 13-9 10-19 19-14 11-17 12-23 13-20 8-20 6-17 4-16 3-12 2-30 1-24-1-25-6-27-9-17-8-17-12-13-10-10-9-11-12-12-16-11-18-7-12-4-7-1-6-3-9-3-5-2-14-9-18-1-38-1-24 1-10 1-42 4-8 3-12 5-18 7-22-2-1 6-14 4-7 5-11 9-21 7-10 10-18 14-17 9-12 17-17 7-8 9-7 10-9 17-13 16-9 19-10 19-8 12-2 6-3 15-2 5-2zm10 126-7 1-2 2-14 3-16 8-12 9-10 9-5 4-7 9-10 12-6 9-7 9-8 15-1 7-7 14-3 15-5 14-2 3 1 14-1 61 5 12 3 7 3 9 11 17 16 16 11 7 10 5 19 5h22l14-3 17-3 16-8 14-8 15-14 14-15 11-14 8-11 5-5 107-1 1-1 2-21 8-23v-20l4-2 1-6-1-6 7-30v-6l-102-1-2-1v-16l-4-8-4-10-8-15-12-17-9-10-19-14-13-6-3-1zm376 10-4 13-4 20-2 5-1 8v24l11 1 75 1h68l5-20 8-39 3-12-68-1zm-3 88-38 1-9 5-4 5v4l11 2 163 1 2 1 15-2 4-13v-3l-60-1zm124 22-2 2 1 11 6 2h4l1-2v-9l-5-3zm-128 58-42 1-5 1v1h8l1 3 2-2 4-1h41l-5 3-16 3-20 1h-9l-8 4v2l11 2 17 1h78l52-2 7-1-1-2h-3l-2-7-3 4h-7l-1-2-5 2-25-1h-26l-12-3-7-4 6-2v-1zm113 0-18 1v1l14 1h11l2-2zm10 2 1 2 2-1zm-16 4-1 4 2-1zm19 0-5 5-5-1v2l-2 1 3 1h8l3-1v-6z" fill="#018D5E"/>
<path transform="translate(1305,42)" d="m0 0h147l101 1-1 8-11 50-3 4-42 1-129 1-3 3-4 22-12 57-8 39-2 11h62l111 1 1 3-9 54-2 5-2 1-46 1h-128l-5 25-16 75-5 25-3 12v3h176l2 1-2 12-8 39-4 13-4 1h-64l-175-1-1-3 17-90 19-101 20-104 13-69 17-90z" fill="#008D5E"/>
<path transform="translate(718,31)" d="m0 0h54l25 5 17 6 16 7 21 12 16 12 13 12 11 14 8 13 8 15 10 25 6 19 5 18v3h-64l-3-7-5-15-10-19-8-11-9-10-10-10-14-10-16-8-13-4-18-3h-28l-20 3-15 4-16 7-14 8-13 10-7 7h-2v2l-5 4-7 8-7 7-12 16-12 19-12 25-7 19-4 13-4 20-3 23-1 12v21l3 23 4 17 7 19 8 15 11 15 9 10 14 11 19 10 18 6 19 3h15l22-3 20-5 16-7 14-8 12-9 11-9 15-15 8-10 9-10 2-1h68l-2 6-12 22-15 22-13 15-11 12-8 8-11 9-13 10-15 10-16 8-17 8-19 6-22 4-8 1-25 1h-19l-19-2-24-6-15-6-16-8-13-10-12-11-14-14-9-11-8-11-12-23-7-20-6-22-4-24-1-13v-25l2-26 4-26 7-30 9-27 11-25 13-24 14-21 13-17 13-15 15-15 8-7 13-10 15-10 16-9 15-7 21-7 14-3z" fill="#008D5E"/>
<path transform="translate(1011,42)" d="m0 0h246l-1 8-11 51-2 2-26 1-143 1-7 2-8 44-8 41-7 36-1 4v7l12 1 163 1 1 1v5l-1 1-5 34-4 20-1 1-175 1-4 14-13 64-14 67-9 45-3 10-1 1-8 1h-54l-4-1 5-26 18-94 22-119 19-102 19-101 4-20z" fill="#008D5E"/>
<path transform="translate(1326,26)" d="m0 0 245 1v8l-10 53-7 31-2 1-174 1-1 10-16 88-1 2h39l132 1 1 1v11l-6 39-7 43-2 5h-111l-65 1-1 8-7 39-11 57-1 4h172l-3 21-14 71-3 4h-273l1-11 15-81 14-76 12-64 15-81 15-80 11-60 8-44 1-2zm-21 16-4 15-13 69-17 90-20 104-13 70-14 73-8 43 1 3 175 1h64l4-1 4-13 10-48v-3l-2-1h-176l2-12 5-22 13-63 9-41v-2h138l36-1 3-3 4-20 6-39-1-1-111-1h-62l5-25 13-63 7-34 2-9 2-1 129-1 42-1 3-4 12-54v-4l-101-1z" fill="#FDFDFD"/>
<path transform="translate(736,15)" d="m0 0h28l26 2 23 6 23 10 21 12 16 12 12 11 10 11 12 16 10 18 9 19 7 19 8 28 3 14 1 11-1 4h-91l-4-10-7-19-10-19-10-13-9-10-10-8-14-8-13-5-15-3-9-1h-15l-27 4-20 6-17 8-12 9-14 12-12 13-12 16-12 19-8 16-7 20-5 18-4 25-2 18v37l4 21 7 20 7 13 10 13 10 11 13 10 17 9 14 4 12 2h18l24-4 20-7 18-8 12-8 13-11 12-12 15-20 8-9h98l-1 6-5 12-10 19-13 22-11 16-11 13-12 14-12 12-11 9-15 12-19 12-21 10-27 9-18 4-28 3h-41l-25-3-19-5-16-6-19-10-16-12-14-12-12-13-9-11-10-15-8-16-8-19-5-15-6-29-2-20v-39l3-32 7-36 9-31 10-25 12-25 10-17 8-12 14-19 12-13 13-14 8-7 13-11 16-11 14-9 16-8 18-8 21-7 14-3zm-18 16-18 3-20 6-18 8-15 8-15 10-12 9-10 9-8 7-13 13-9 11-14 18-11 17-9 16-9 17-10 25-7 21-7 30-4 26-2 26v25l2 20 5 25 6 20 6 16 11 21 8 11 12 14 19 19 17 13 16 8 18 7 21 5 19 2h19l25-1 26-4 20-6 16-7 16-8 15-9 17-13 15-13 12-12 9-11 10-12 8-12 8-13 10-19v-2h-68l-8 7-9 11-9 10-11 11-17 13-15 9-13 6-16 5-14 3-17 2h-15l-19-3-18-6-19-10-10-8-10-9-10-13-8-13-7-15-6-19-4-23-1-10v-21l3-28 4-22 4-15 6-17 8-18 9-17 12-18 11-14 11-11 4-5 2-1v-2l4-2 7-7 14-10 19-10 15-5 19-4 9-1h28l18 3 16 5 13 7 11 8 10 9 10 10 10 14 10 19 7 21 1 1h64l-2-10-7-24-8-22-10-21-8-13-9-12-11-12-12-10-15-10-16-9-26-11-20-5-12-2z" fill="#FDFDFD"/>
<path transform="translate(1e3 25)" d="m0 0h39l149 1 89 1v7l-17 84-1 2h-175l-2 12-13 72-2 11v9l2 1-12 1-9 5-3 4-1 4 4 1h-5l-1-1v-7l6-29 10-52 8-44 2-2 6-1 143-1 26-1 2-5 10-47 2-8-246 1-16 83-16 87-19 101-11 61-14 73-10 51-2 6h58l8-1 4-14 16-80 18-86 4-18 2-3 175-1 4-20 5-31h1l1 8 9 2v-11l-9-4 1-4 15-1 4-16h1l-1 13-13 71-3 12-1 1h-41v-1l19-1 6-1-3-1-3-5-2 3-7-1h-2l-4 1-25-1h-26l-12-3-9-5 4-2h-26l-42 1 3 1 1 2 2-2 4-1h41l1 2-10 4-12 2-20 1h-9l-3 2-5 1v2l28 2v1l-23 1-3 11-8 44-14 64-9 43-7 36-2 3h-26l-72-1v-8l10-50 18-99 36-192 15-81 11-59 2-8zm204 279-18 1v1l14 1h11l2-2zm10 2 1 2 2-1zm-16 4-1 4 2-1zm19 0-5 5-5-1v2l-2 1 3 1h8l3-1v-6z" fill="#FDFDFD"/>
<path transform="translate(679,10)" d="m0 0h6v1l-13 4-11 4-22 11-16 10-18 13-11 9-14 12-5 6-8 7-10 13-11 14-10 15-8 13-13 25-10 24-9 27-8 33-5 32-2 32v24l2 22 4 24 5 18 9 25 8 16 9 16 13 17 18 20 11 9 16 12 18 10 22 9 25 6 22 3h35l17-2h5l-4 2-12 2-30 1-24-1-25-6-27-9-17-8-17-12-13-10-10-9-11-12-12-16-11-18-7-12-4-7-1-6-3-9-3-5-2-14-9-18-1-38-1-24 1-10 1-42 4-8 3-12 5-18 7-22-2-1 6-14 4-7 5-11 9-21 7-10 10-18 14-17 9-12 17-17 7-8 9-7 10-9 17-13 16-9 19-10 19-8z" fill="#FDFDFD"/>
<path transform="translate(1350,355)" d="m0 0h1l-1 14-5 33-1 10h171l1 4-2 21-7 21-7 39-2 18-7 21-3 4 1-8 18-88 5-25v-4l-72-1h-57l-42 1-1-1v-8l4-14 4-26z" fill="#FDFDFD"/>
<path transform="translate(1217,336)" d="m0 0h2v9l-5 29-12 64-13 73-5 24-1 8h-3l1-7 2-9v-12l2-6 1-18 4-11 5-19 2-20 4-19 2-9 1-13 3-11 3-14 2-7 3-23z" fill="#FDFDFD"/>
<path transform="translate(909,409)" d="m0 0h2v9l-11 55-1 6h-1v-8l-2-1 5-22 2-6-9 1-2-2-2 1v-2l-4 2 2-4 12-17 7-10z" fill="#FDFDFD"/>
<path transform="translate(998,6)" d="m0 0h44l41 2v1l-92 1-5 1-2 13-12 66-2-3v-9l2-9 2-4v-17l2-5 2-16 6-16 8-4z" fill="#FDFDFD"/>
<path transform="translate(943,225)" d="m0 0h2l-1 11-14 79-5 23-2 3h-54v-1l52-1 2-21 8-23 1-20 3-2 1-6-1-6z" fill="#FDFDFD"/>
<path transform="translate(1590,14)" d="m0 0 2 3v13l-2 10-7 21-2 19-7 35-6 20-4 1 4-11 14-72z" fill="#FDFDFD"/>
<path transform="translate(1534,6)" d="m0 0h28l18 1 8 2v1h-61l-82-1v-1z" fill="#FDFDFD"/>
<path transform="translate(889,539)" d="m0 0 96 2h30l-1 2h-124z" fill="#FDFDFD"/>
<path transform="translate(784)" d="m0 0h8l11 4 12 3 21 8 23 12 17 12 10 9 8 7 7 8 6 7-1 2-14-15-13-12-14-10-13-8-21-11-21-8-27-6z" fill="#FDFDFD"/>
<path transform="translate(655,162)" d="m0 0v3l-12 14-8 12-8 10-8 15-1 7-7 14-3 15-5 14-2 1 1-10 6-20 8-20 8-16 12-17 11-13z" fill="#FDFDFD"/>
<path transform="translate(600,273)" d="m0 0 2 3-1 61-2 4-3-16v-27l3-24z" fill="#FDFDFD"/>
<path transform="translate(1549,208)" d="m0 0 5 1-1 10-3 12-3 32-7 26h-1l1-13 8-55z" fill="#FDFDFD"/>
<path transform="translate(1043,411)" d="m0 0 2 1-1 11-5 23-2 19-6 17-3 4 2-14 7-30z" fill="#FDFDFD"/>
<path transform="translate(600,344)" d="m0 0 2 3 7 16 3 9 11 17 19 19-5-2-13-12-8-10-9-15-7-20z" fill="#FDFDFD"/>
<path transform="translate(803,148)" d="m0 0 4 2 9 9 10 14 7 15 5 14-1 3-8-18-9-16-13-18z" fill="#FDFDFD"/>
<path transform="translate(1255,142)" d="m0 0h1l-1 10-9 49-4 6-1-2 5-23 8-36z" fill="#FDFDFD"/>
<path transform="translate(1538,290)" d="m0 0 2 1v16l-3 16-2 10-4 1 6-38z" fill="#FDFDFD"/>
<path transform="translate(1378,202)" d="m0 0 10 1 69 2v1h-78z" fill="#FDFDFD"/>
<path transform="translate(1391,139)" d="m0 0 1 4-4 22-3 21-3 12-3 4 1-10 6-29 4-21z" fill="#FDFDFD"/>
<path transform="translate(897,480)" d="m0 0h1l-1 10-6 34-1 7h-1v-14l2-10 2-9 1-11z" fill="#FDFDFD"/>
<path transform="translate(1053,367)" d="m0 0h1v12l-2 9-6 16-1-4z" fill="#FDFDFD"/>
<path transform="translate(797,361)" d="m0 0v3l-8 11-11 12-8 7-2-1 12-12 7-8z" fill="#FDFDFD"/>
<path transform="translate(970,90)" d="m0 0h1l-1 9-3 17h-1v-13z" fill="#FDFDFD"/>
<path transform="translate(712)" d="m0 0h15l-3 2-10 2h-5z" fill="#FDFDFD"/>
<path transform="translate(947,147)" d="m0 0 4 1 1 4-1 11h-1l-3-13z" fill="#FDFDFD"/>
<path transform="translate(1086,190)" d="m0 0h1v16h-3v-7z" fill="#FDFDFD"/>
<path transform="translate(697,5)" d="m0 0h6v1l-15 4-3-1 6-3z" fill="#FDFDFD"/>
</svg>
