<?xml version="1.0" encoding="UTF-8"?>
<svg version="1.1" viewBox="0 0 2048 2048" width="1280" height="1280" xmlns="http://www.w3.org/2000/svg">
<path transform="translate(700,653)" d="m0 0h20l19 2 24 6 22 8 23 12 14 10 13 11 8 7 13 13 13 17 12 21 7 16 4 11 4 29-1 8 1 16v11l-1 4-1 23-1 2-4 1-41 1h-21l-27-1-4-5-6-12-6-18-11-20-10-14-8-9-12-9-11-5-10-2-31-1-19 2-16 7-13 7-12 9-12 11-11 12-9 11-7 10-13 26-9 23-2 11-3 42v28l3 27 13 23 11 13 10 8 18 10 8 4 5 1 31-1 11-2 11-6 16-5 17-8 5-4h2v-2l7-6 9-11 3-4 5-9 7-8 11-7 18-6h9l16 3 35 2h20l5-5 6-18 5-33 5-25 4-13 4-18 11-14 4-7 1-3v-7l-4-4-4-2 1-6 6-5 7-9 4-4v-8l-6-20-1-3v-33l2-12 5-15 2-16 1-19 3-10 8-13 5-4 10-3h60l110 1h65l254-1 56-2h23l5 3-1 21-4 27-6 37-4 21-4 11-3 9-2 2-35 1h-136l-2 12-2 13-2 31-1 7 94-1h57l8 1 1 1v22l-3 36-5 31-4 31-3 6-8 5-9 3h-38l-45-3-71-6-10 49-4 24 104-1h45l18 1 1 1v8l-5 30-5 25-4 23-7 28-3 10-6 7-6 3-40 1h-231l-9-1-7-6-3-7 1-13 7-27 5-37 6-18 2-15 2-21 4-14 2-6 2-21 1-16-24-1-53-5-35-3-32-1-5 30-3 11-3 8-6 36-5 22-4 30-3 5-3 3-2 13v10l-2 17-5 13-6 13-2 1h-113l-7-2-2-5-1-6v-10l2-17 6-20 7-24 7-17 4-15h-3l2-5 6-10-1-4-7-1-5 3-3 8-3 7-9 11-10 14-8 10-11 12-7 8-24 22-18 11-19 12-15 7-18 6-10 3-16 2-23 1h-47l-19-1-16-4-21-7-16-8-19-14-15-14-10-9-9-10-9-11-10-15-9-17-11-29-6-27-5-19-1-9v-49l2-22 7-32 5-22 8-25 6-16 9-21 10-18 7-10 6-10 24-32 14-15 10-10 8-7 18-14 15-11 23-13 20-8 18-6 20-4 15-4zm341 51-17 1v2l13 4 23 2 95 3 2 1 2 4 17 1h16l3-4 2-12-1-1-8-1zm416 0-147 1v1l53 2 58 4 45 2-2 10-2 5-3 19-1 2-3 1-17 1-103 2-2 2 45 3 55 2h14l14-1 8-3 3-7 5-25 1-7v-13l-1-1zm-386 41-20 1-3 1-2 6-4 2-5 6 95 3h49l5-3v-8l-6-1-17-1-11-4-35-2zm-30 52-1 1-3 42-1 22 10 1h95l32-1 8-2 3-4 5-29 5-14 2-6v-9l-114-1zm390 99-22 3-33 2-40 1-21 1-2 1v8l6 1h106l-3 30-4 1-134 1 1 5 4 2 13 1 71 2h53l8-2 2-6 2-16 1-18v-17zm-280 1-19 2-41 2-44 1-18 1-1 1v7l1 1 8 1h113l5-1 1-14zm-69 37-19 1-5 5-1 2-7 1-42 2-7 1 2 4 4 3 11 1 68 1h67l2-7v-2l-29-1h-34l-3-9-2-2zm-207 68-5 15-11 23v3l7-1 8-5 5-9 1-6-2-5-1-14zm407 82m3 1v1l20 2 19 1h53l-1-2-50-1-25-1zm-769 11m883 0-4 7-2 14-7 20-3 5-8 6 4 1 7-4 5-10 8-31 2-8zm-882 1 6 9 12 13 9 9 15 11 9 5 2-1-12-9-10-9-9-10-12-12-8-6zm868 5-13 2-1 2 3 3 7 1 3-5 6-2v-1z" fill="#01946A"/>
<path transform="translate(2007,1255)" d="m0 0h9l16 5 8 4 8 6v47l-9 4-14 2h-22l-9-4-7-7-3-6-4-24-2-4-1-6-5 15-7 39-4 28-6 18-3 11-4 3-7 1h-481l-17-1-17 1h-156l-10-2v-7l7-17 2-8 3-25 7-21 1-6 1-21 3-8 9-9 4-2 38-1 38 1 7 1 3 4 4 16 4 6 4 2 39 1 8 1 5 6 2 9 4 4 6-3 11-12 3-3 13-3 16-1 11 3 1 1h7l6-3 3-3 6-16 4-2 10-1 9 6 9 11 8 5 13 1h11l13-2 2-2 4-16 7-8 6-3h11l4 3 4 20 3 6 2 1h38l6 3 4 5v2h13l3-3 3-16 1-12 3-5 5-3 14-1 5 2 2 4v28l14-3 16-1 9-3 7-14 7-7 5-6 9-1 5 3 2 10 3 17 1 1h11l7-1h17l16 3 7 6 2 10 1 3 10-2 6-8 7-8 16-5 5-2 2-4 9-9 8-10 5-3 11-1 6 3 2 5 2-5 10-3z" fill="#FCFDFC"/>
<path transform="translate(697,691)" d="m0 0h19l22 3 22 5 19 7 22 12 13 10 11 10 5 4 7 8 9 11 9 16 8 16 8 20 8 25 1 4v7l-7 2h-45l-7-2-4-5-10-24-9-16-9-12-7-8-13-10-14-8-12-5-17-4-17-1h-16l-22 2-22 5-12 5-15 8-13 11-11 10-7 8-11 14-7 10-8 13-12 23-8 21-6 25-4 22-2 19v28l3 22 4 15 3 11 4 10 11 18 11 13 8 7 10 8 16 9 15 6 14 3h34l20-4 21-7 12-6 12-8 10-8 12-11 10-11 7-8 8-9 3-2 13-1h31l18 1 1 2-5 13-6 11-12 17-10 13-11 13-18 18-17 13-14 10-14 8-15 7-22 8-20 4-7 1h-53l-15-2-17-4-16-6-18-10-13-10-15-14-7-7-11-14-11-16-11-22-8-24-5-25-2-23 1-32 2-22 4-23 6-25 11-32 11-24 11-20 10-16 8-11 13-17 9-10 5-6 8-7 10-9 15-11 21-12 21-9 23-7 24-4zm-181 405m1 1 6 9 12 13 9 9 15 11 9 5 2-1-12-9-10-9-9-10-12-12-8-6z" fill="#019369"/>
<path transform="translate(477,1254)" d="m0 0 5 3 4 8 4 15 3 6 10 2 45 2 7 2 1 1v39l17 2 5 2 1 3-1 2-10 2-13 1-2 11-5 13-2 15-4 4-45 1h-73l-6-1h-22l-44 1h-255l-14-1-5-1-27 1h-51v-88l11-15 9-11 9-8 9-5h27l10 4 7 8 4 10 1 10v4l9-3 4-2 13-1h20l13 2 3 5 2 7 6 3 5-1 3-4 4-9 4-2 20-2h47l4-1h12l8 4 4 6 5 1v5l5-5 3-9 3-19 4-6 7-4 8-1 8 2 3 5 3 13 4 6 4 3h19l8-1 7 2 10 2 11 6 4 2 3-15 2-17 3-6 2-1h19l5 3 1 3v35l11-4 6-7 8-6 6-8 4-11 5-5 13-5z" fill="#FDFEFD"/>
<path transform="translate(1246,702)" d="m0 0h235v8l-4 21h-1l1-13v-13l-139 1 42 2 41 3 43 2 3 3-4 13-3 19-2 3-3 1-17 1-103 2 43 3 55 2h14l14-1 8-3 3-10h1l-1 11-2 5-14 3-44 1h-106l-4 6-8 38-13 65-3 20 44 2h100l-4 2-21 2-21 1-40 1-23 1v8h112l1 5-3 26-5 2h-134l2 5 3 1 13 1 71 2 54 1-4 3-2 1-136 1-19 1-2 1-4 16-17 85-3 17v12l2 1 33 1h128l4 1v9l-7 35-4 15-3 4-3 1-13 1h-47l-172-1 1-8 4-17 7-38 5-26 5-28 7-40 7-32 14-78 9-45 4-23 6-30 6-31 10-53 2-7zm153 394-4 7-2 14-7 20-3 5-8 6 4 1 7-4 5-10 8-31 2-8zm-14 6-13 2-1 2 3 3 7 1 3-5 6-2v-1z" fill="#019369"/>
<path transform="translate(805,1259)" d="m0 0h8l5 5 3 21v9l1 2h5l6-5h47l4 4 2 6 5-1 5-2 2-6 13-1h79l8 2 7 7 2 9v27l-3 16 1 4 8-18 5-19 6-25 4-15 3-16 2-3 4-1h9l3 1 1 2-1 38-2 14-5 19-6 30-4 13-5 9-4 2-28 1h-47l-15-1-2-1h-13l-1 1-155 1-16-1-3-1h-24l-13 3h-21l-10-1-10-4-4-4h-4l-1 6-27 1h-31l-9-2-1-6 7-23 6-29 5-20 1-6 1-16 3-10 6-7 8-6 4-1 22-1h21l5 2 3 3 4 12 5 4 9 6 16 3 14 1 6 3 3 7 3 5 4 2 6-1 5-5 4-8 10-2 13-1 8-4 7-9 2-12 4-6z" fill="#FDFEFD"/>
<path transform="translate(1090,701)" d="m0 0h92l16 1v4l-10-1h-164v2l20 4 16 1 95 3 3 2 1 3 17 1h16l4-5-2 11-7 28-1-2-23-1-11-4-35-2h-46l-23 1-2 6-8 7 94 3h52l-1 2-9 2-29-1-19-1h-29l-77 1-5 2-2 6-9 52-7 46-3 22 33 2 28 1h92l-3 2-28 2-25 1-44 1-18 1v7l8 1h118v-10l1-4h4v9l-3 16-3 18-2 5h-26l-34-1-5-10-24 1-4 4-2 3-7 1-49 2 4 5 2 1 11 1 131 2-1 3-37 1-128 1-3 1-4 15-14 67-8 42-10 50-4 18-4 5-4 2h-29l-21-1-7-1-1-5 5-22 7-36 8-43 6-29 6-33 6-31 7-38 13-71 4-23 6-28 5-28 6-33 4-23 3-11 4-2z" fill="#019369"/>
<path transform="translate(1495,666)" d="m0 0h23l5 3-1 21-4 27-6 37-4 21-4 11-3 9-2 2-35 1h-136l-2 12-2 13-2 26h-1v-7l-5 3-3 4h-3l-2 6-3 5-1 5h-1v-8l3-17 1-2 2-17 7-37 2-4 3-1h127l27-1 9-1 3-4 6-26 5-26 3-26v-8l-1-1h-225l-31 1-9 1-2 4-9 54-10 49-5 27-4 21-6 35-9 51-5 26-5 29-6 28-6 35-4 18-7 39-8 41-6 30 37 1h211l12-1 5-1 3-11 6-25 7-35 3-17 1-10-4-2 7-5 2-4 4-1 6 2-1 12-4 13-5 39-6 29-7 25-2 2-16 1h-236l-36-1 1-13 6-34 6-29 3-20 6-24 5-41 6-26 1-10v-7l-5 3-1 1h-59l-31-1-12-1v-1l10-1h28l9-2-32-1-66-1v-1h103l53-1 3-5 8-40 5-37v-14l-4 1h-121l-24-1-10-1-3-3 3-25 3-18 6-29 4-20 2-4 2-1 165-1 4-16 6-27 4-20 2-19 1-9h-268l-2 9-2 13-2 9-7 36-9 51-3 13-2 1-8-26v-33l2-12 5-15 2-16 1-19 3-10 8-13 5-4 10-3h60l110 1h65l254-1zm-454 131-1 1-3 42-1 22 10 1h95l32-1 8-2 3-4 5-29 5-14 2-6v-9l-114-1z" fill="#03966D"/>
<path transform="translate(1275,685)" d="m0 0h225l2 2-1 20-5 31-8 35-4 5-9 1-27 1h-127l-3 1-5 25-7 33-3 16-1 6v17l3 1 15 1h56l77-1 8 1 1 3v31l-2 18-2 12-4 21-3 9-7 3-12 1h-76l-64-1-11 1-2 12-5 21-7 41-5 25 38 2h65l44-1 18 1v10l-4 25-8 38-6 20-3 3-3 1-12 1h-211l-35-1-2-1 1-10 7-36 9-46 5-29 4-18 6-34 7-34 6-34 15-84 4-24 5-25 7-36 4-20 6-34 3-19 3-5 9-1zm-29 17-2 3-7 37-9 45-10 54-9 47-11 59-6 32-7 34-5 29-5 28-8 42-5 28-4 15v4l172 1h47l13-1 5-3 4-13 7-34 1-5v-9l-4-1h-128l-33-1-2-1v-12l8-42 11-55 4-18 1-3 2-1 19-1 136-1 6-3v-1l7-2 2-6 2-16 1-18v-17h-8l-9 1h-100l-44-2 6-36 10-49 8-38 4-6h119l31-1 14-3 2-5 3-21v-5h2l4-21v-8zm36 382m3 1v1l20 2 19 1h53l-1-2-50-1-25-1z" fill="#FCFDFC"/>
<path transform="translate(686,676)" d="m0 0h43l23 3 21 6 9 4 16 8 16 9 14 11 13 12 6 7 2 5h2l4 6 12 19 5 11 4 8 2 10 2 1 4 10 5 12 4 14 3 19-2 12-2 1-79 2-4-1-4-9-9-21-10-18-11-14-8-8-12-9-16-8-16-5-9-1h-24l-28 6-21 8-10 5-16 12-12 12-12 16-13 19-9 17-10 27-6 25-4 26-1 10v31l2 15 4 14 1 5 2 1 4 9v2h2l5 9v3h2l8 10 11 11 16 11 14 6 15 4 7 1h22l17-3 13-4 19-9 14-10 11-9 15-15 7-9 11-14h3v-2l6-2h14l8-1h64l-1 11-3 11-7 17-8 14-11 15-9 12-8 10-12 13-15 15-17 13-18 12-18 10-34 12-22 4-16 2h-38l-26-3-21-5-19-7-12-6-14-9-13-11-13-12-7-8-8-10-13-22-11-27-4-16-3-9-4-25-2-27v-23l3-27 4-27 5-25 10-30 3-5 3-9h2v-5l10-19 6-11 3-5h2l1-4 6-10 9-12 7-8 9-11 18-18 14-11 20-14 25-13 26-10 3-1 2 1 1-2 2 1v-2l9-1 6-2 4-2zm11 15-21 2-19 4-20 6-25 11-20 12-14 11-12 11-7 6-7 8-12 15-11 15-10 16-9 16-9 17-8 19-10 30-7 32-3 21-1 14-1 36 3 26 6 25 7 19 11 22 13 18 12 14 12 12 11 9 10 7 16 9 19 7 19 4 10 1h53l23-4 21-7 16-7 15-8 17-12 13-10 12-11 14-14 11-14 12-16 10-16 5-11 2-7-1-1-18-1h-31l-13 1-9 8-7 8-11 13-9 9-14 11-14 9-12 6-22 7-17 3h-34l-17-4-16-7-13-8-9-7-10-9-11-14-10-17-5-16-3-9-3-14-2-17v-28l3-26 7-33 5-15 8-19 11-21 10-15 11-14 9-10 4-5 8-7 9-8 13-8 15-7 19-5 15-2 13-1h16l17 1 17 4 12 5 11 6 12 9 8 7 10 13 10 17 7 16 5 11 5 5 5 1h45l7-2v-7l-6-20-7-20-8-18-11-20-10-13-7-7-4-5-8-7-15-12-14-8-16-8-18-6-23-5-17-2z" fill="#FDFEFD"/>
<path transform="translate(949,686)" d="m0 0h266l2 1 1 4-2 11-1 13-5 25-7 29-3 9-5 1-160 1-2 1-4 17-6 31-3 16-4 29v4l36 2h125l1 2v12l-5 37-8 40-3 5-5 1-49 1h-113l-4 18-9 50-9 47-5 23-4 20-8 35-3 5-3 1h-61l-21-1-9-1-1-4 4-23 6-31 5-26 4-21 4-24 8-41 5-25 5-28 3-19 5-23 10-60 4-21 1-10 2-5 6-32 5-28 8-41 4-24zm141 15-126 1-4 2-4 15-6 36-7 37-6 31-4 20-8 46-12 64-6 33-6 30-5 28-5 23-5 28-11 55-1 7 1 1 7 1 23 1h27l6-4 3-6 14-70 11-56 12-57 2-6 3-1 128-1 37-1 1-3 5-1 1-8-2-1 3-14 3-21 1-3v-9l-9-1h-96l-48-2-13-1 4-27 7-46 8-47 3-7 4-1 82-1h24l38 2h10l9-2 3-4 6-26 4-16 1-10 1-7-16-1z" fill="#FCFDFC"/>
<path transform="translate(700,653)" d="m0 0h20l19 2 24 6 22 8 23 12 14 10 13 11 8 7 13 13 13 17 12 21 7 16 4 11 4 29-1 8 1 16v10h-1l-4-23-5-14-4-9-6-15-3-7-5-12-7-12-7-11-3-4v-2h-2l-6-9-10-10-14-11-10-7-22-12-14-6-21-6-23-3h-43l-15 2-6 3-7 2-6-1v2l-7 1-11 5-11 4-17 8-16 9-17 12-17 14-17 17-11 14-6 7-8 11-5 10h-2l-2 5-6 11-8 16-2 5-5 12-5 10-9 29-6 33-4 30-1 12v23l1 17 2 17 3 18 6 21 6 17 8 18 11 18 11 13 11 12 8 7 14 11 17 10 24 9 21 5 26 3h38l22-3 16-3 29-10 16-8 15-9 18-13 13-11 18-18 9-11 13-17 13-19 4-7 4-2 1 1v11l-5 17-10 12-10 14-8 10-11 12-7 8-24 22-18 11-19 12-15 7-18 6-10 3-16 2-23 1h-47l-19-1-16-4-21-7-16-8-19-14-15-14-10-9-9-10-9-11-10-15-9-17-11-29-6-27-5-19-1-9v-49l2-22 7-32 5-22 8-25 6-16 9-21 10-18 7-10 6-10 24-32 14-15 10-10 8-7 18-14 15-11 23-13 20-8 18-6 20-4 15-4z" fill="#009369"/>
<path transform="translate(1307,831)" d="m0 0h1v7l-3 13-1 9 3-5 1-5 5-1 2-4 3-3h3l1 12-1 7 94-1h57l8 1 1 1v22l-3 36-5 31-4 31-3 6-8 5-9 3h-38l-45-3-71-6-10 49-4 24 104-1h45l18 1 1 1v8l-5 30-5 25-4 23-7 28-3 10-6 7-6 3-40 1h-231l-9-1-7-6-3-7 1-13 7-27 5-37 6-18 2-15 2-21 4-14 2-6 2-21 1-16-24-1-53-5-35-3-24-1v-1l14-1 35 2 31 1h59l3-3h3l1 11-4 20-3 12-3 25-3 21-6 24-4 26-7 34-5 31h276l12-1 3-9 5-17 6-29 5-39 4-13 2-12-10-1-2 5-5 4 3 2-1 10h-1v-7h-24l-38 1h-65l-24-1-14-2 1-10 5-26 5-30 7-30 1-3 2-1 16-1 57 1h76l16-2 3-3 4-17 3-16 2-16 1-13v-30l-85 1h-56l-15-1-4-2v-17l3-18z" fill="#04966D"/>
<path transform="translate(651,1260)" d="m0 0h21l5 2 3 3 4 12 5 4 9 6 16 3 14 1 6 3 3 7 3 5 4 2 6-1 5-5 4-8 10-2 13-1 8-4 5-5-2 6-3 5-4 1-14 1-7 4-8 6-4 7-4 11-5 35v13l3 12 3 1 15 1 1 2-4 1-16-1-3-1h-24l-13 3h-21l-10-1-10-4-4-4h-4l-1 6-27 1h-31l-9-2-1-6 7-23 6-29 5-20 1-6 1-16 3-10 6-7 8-6 4-1z" fill="#FCFDFC"/>
<path transform="translate(690,771)" d="m0 0h26l14 3 16 6 12 7 13 11 7 7 11 15 11 21 8 21 2 3 51-1 33-1v15l-1 2-4 1-41 1h-21l-27-1-4-5-6-12-6-18-11-20-10-14-8-9-12-9-11-5-10-2-31-1-19 2-16 7-13 7-12 9-12 11-11 12-9 11-7 10-13 26-9 23-2 11-3 42v28l3 27 13 23 11 13 10 8 18 10 8 4 5 1 31-1 11-2 11-6 16-5 17-8 5-4h2v-2l7-6 9-11 3-4 5-9 7-8 11-7 18-6h9l16 3 12 1v1h-34l-11 1-9 3-10 14-4 6-8 9-5 5-3 5h-2v3l-8 4-5 4-19 10-22 9-11 3h-3v6l8-2 15-2 16-2-4 3-16 7-17 4-8 1h-22l-16-3-16-6-12-7-11-9-12-12-4-5v-2h-2l-5-10v-2h-2l-5-10-6-16-2-10-1-10v-31l3-24 5-26 5-17 10-25 8-15 12-17 9-12 11-12 10-9 14-10 25-10 25-6z" fill="#019469"/>
<path transform="translate(1495,666)" d="m0 0h23l5 3-1 21-4 27-6 37-4 21-4 11-3 9-2 2-35 1h-136l-2 12-1 5h-2l1-10 2-10 5-3 38-1h-38l-6-2v-1l31-1 139-1 3-9 6-23 4-22 3-28 5-20 4-10h-68l-144 1h-75l-17-1h-10l-4 1v2h-3v4l15 1 3 2v3h-268l-2 9-2 13-2 9-7 36-9 51-3 13-2 1-8-26v-33l2-12 5-15 2-16 1-19 3-10 8-13 5-4 10-3h60l110 1h65l254-1z" fill="#06A287"/>
<path transform="translate(700,659)" d="m0 0h15l26 3 19 3 27 10 13 7 15 9 16 12 10 9 10 10 11 15 14 18 7 14 3 3 5 11 3 17 2 20-1 4 1 16v10h-1l-4-23-5-14-4-9-6-15-3-7-5-12-7-12-7-11-3-4v-2h-2l-6-9-10-10-14-11-10-7-22-12-14-6-21-6-23-3h-43l-15 2-6 3-7 2-6-1v2l-7 1-11 5-11 4-17 8-16 9-17 12-17 14-17 17-11 14-6 7-8 11-5 10h-2l-2 5-6 11-8 16-2 5-5 12-5 10-9 29-6 33-4 30-1 12v23l1 17 2 17 3 18 6 21 6 17 8 18 2 5-3-1-3-4v-2l-7-2-3-4 1 6 14 25 11 14 11 12 10 10h-3l-17-17-11-14-8-11-14-26-6-14-2-8-4-11-2-10-2-24v-66l3-36 3-15 10-35 10-28 9-19 10-18 12-19 6-9 10-14 6-8 11-12 10-9 10-10 13-10 13-9 13-8 25-12 19-7 22-7 23-4z" fill="#03956C"/>
<path transform="translate(1217,687)" d="m0 0 2 1-1 16-4 25-7 34-2 14-3 5v5l1 4-5 25-2 13v10l-1 3h-2l-8 24-2 21-6 36-2 16-4 18-3 12-5 10-2 1-8-2 1-2h7l3-5 8-40 5-37v-14l-4 1h-121l-24-1-10-1-3-3 3-25 3-18 6-29 4-20 2-4 2-1 165-1 4-16 6-27 4-20 2-19zm-176 110-1 1-3 42-1 22 10 1h95l32-1 8-2 3-4 5-29 5-14 2-6v-9l-114-1z" fill="#2AAA8B"/>
<path transform="translate(1037,1259)" d="m0 0h9l3 1 1 2-1 38-2 14-5 19-6 30-4 13-5 9-4 2-28 1h-47l-15-1-2-1h-13l-1 1h-22l1-2 8-1 3-9 7-34 3-13 5-6 9-6 9 1 8 2 7 2 6-1 4-5 10-7 5-1 2 2v11l-7 8-11 4-13 5-7 7-7 13-1 9 3 14 2 2 15 2h25l9-1 4-19 7-39 3-11v-5l-9-14-2-3 5 1 7 7 2 9v27l-3 16 1 4 8-18 5-19 6-25 4-15 3-16 2-3z" fill="#FDFEFD"/>
<path transform="translate(921,824)" d="m0 0h1l-1 9-11 64-5 28-3 15-6 35-5 24-12 63-4 25-5 23h-1v-27l-1-2-3 2v-3h-3l2-5 6-10-1-4-7-1-5 3-2 1 1-4v-11l-4 1 7-16 3-10 3-15-4 1h-60l-8 1h-16l-4 1v2l-4 2-9 12-11 13-15 15-16 12-8 5-23 4-10 1-5 1h-3l-1-4 1-2 17-5 23-10 18-10 5-4 5-1v-3h2l2-5 5-5 10-11 9-14 4-5 9-3 11-1 57 1h20l5-5 6-18 5-33 5-25 4-13 4-18 11-14 4-7 1-3v-7l-4-4-4-2 1-6 6-5 7-9zm-46 178-5 15-11 23v3l7-1 8-5 5-9 1-6-2-5-1-14z" fill="#03956B"/>
<path transform="translate(805,1259)" d="m0 0h8l5 5 1 7-4 26-7 32-6 31-7 21-6 4-3 1h-21l-15-1-4-2-3-12v-13l5-35 3-10 6-9 5-4 7-5 12-2h7l3-3 4-9 2-3 2-12 4-6z" fill="#019369"/>
<path transform="translate(1960,1260)" d="m0 0 9 2 2 6-3 22-3 18-3 25-4 15-3 20-2 3h-2l-2 6-5 5-5 2-17 1-20-2-4-4-2-4v-23l5-27 5-15 6-8 10-8 7-2 13-1 3-5 2-9 9-10z" fill="#02946A"/>
<path transform="translate(1028,982)" d="m0 0 28 1 12 1 31 1h59l3-3h3l1 11-4 20-3 12-3 25-3 21-6 24-4 26-7 34-5 31h276l12-1 3-9 5-17 6-29 5-39 5-18 3-1-1-3 2-5-9-1-29-1h-61l-6-1v-1l44-1h45l18 1 1 1v8l-5 30-5 25-4 23-7 28-3 10-6 7-6 3-40 1h-231l-9-1-7-6-3-7 1-13 7-27 5-37 6-18 2-15 2-21 4-14 2-6 2-21 1-16-24-1-53-5-35-3-24-1v-1z" fill="#39B498"/>
<path transform="translate(1814,1259)" d="m0 0 9 1 2 4-7-2 2 5 3 4-1 11-6 27-6 35-9 37-1 2-9 2h-25l-13-2-4-8-1-6v-11l4-26 5-17 6-11 8-7 5-2 20-1 3-6 3-12 8-15z" fill="#04966C"/>
<path transform="translate(625,813)" d="m0 0 2 1-10 10-7 8-9 10-9 13-13 26-9 23-2 11-3 42v28l3 27 13 23 11 13 10 8 18 10 8 4 5 1 31-1 11-2 11-6 16-5 17-8 5-4h2v-2l7-6 9-11 3-4 5-9 7-8 11-7 18-6h9l16 3 12 1v1h-34l-11 1-9 3-10 14-4 6-8 9-5 5-3 5h-2v3l-8 4-5 4-19 10-22 9-11 3h-3v6l8-2 15-2 16-2-4 3-16 7-17 4-8 1h-22l-16-3-16-6-12-7-11-9-12-12-4-5v-2h-2l-5-10v-2h-2l-5-10-6-16-2-10-1-10v-31l3-24 5-26 5-17 3-8 1 2 3-3 3-5 1 4-2 1-1 8h2l1-6 11-20 7-10 10-15 5-6 10-8 5-2v-2z" fill="#01946A"/>
<path transform="translate(244,1293)" d="m0 0 11 1 8 4 1 1v13l-7 35-7 27-2 10-1 1h-17l2-12 6-25 5-23v-13l-3-2-10-1-3 2-5 17-6 25-6 21-2 9-2 2h-16l-1-3 5-18 6-25 3-19v-10l-3-1h-9l-6 9-6 21-8 31-2 14-2 1h-15l-1-5 9-39 6-31 6-12 3-3 4-1h30l11 2 15-1z" fill="#009369"/>
<path transform="translate(38,1260)" d="m0 0h21l10 5 7 8 6 10 2 7-1 6-3 6-3 2h-11l-6-7-4-10-6-5-4 1-7 8-5 11-11 43-1 3v14l3 3 5 2 7-1 8-7 12-18 9-1 3 5-1 9-8 16-11 12-6 2h-23l-19-5-1-1v-79l11-15 9-11 9-8z" fill="#02946A"/>
<path transform="translate(445,1290)" d="m0 0h10l12 1 6 4 7 8 2 6v9l-3 22-4 15-7 14-7 10-4 4-8 2h-14l-9-2-8-7-3-8v-16l4-22 5-15 8-13 7-7z" fill="#03956B"/>
<path transform="translate(700,653)" d="m0 0h20l19 2 24 6 22 8 23 12 14 10 13 11 8 7 13 13 13 17 12 21 3 10-3-3-7-13-8-10-11-15-8-10-13-13-19-14-17-10-16-8-22-8-34-5-11-1h-15l-20 2-19 4-33 11-18 8-19 10-13 9-11 8-11 9-14 14-8 7-9 11-10 14-7 10-18 30-14 28-10 28-8 28-4 15-3 30-1 13v66l2 24 3 13 4 10 2 8 7 16 13 24 14 18 12 13 9 9 11 9 17 13 17 9-1 4-16-8-19-14-15-14-10-9-9-10-9-11-10-15-9-17-11-29-6-27-5-19-1-9v-49l2-22 7-32 5-22 8-25 6-16 9-21 10-18 7-10 6-10 24-32 14-15 10-10 8-7 18-14 15-11 23-13 20-8 18-6 20-4 15-4z" fill="#FDFEFD"/>
<path transform="translate(116,1293)" d="m0 0h18l6 4 4 5 3 7v10l-3 23-4 15-8 16-8 10-6 2h-20l-9-2-5-6-2-6v-20l3-20 5-16 7-11 7-7 7-3z" fill="#04956C"/>
<path transform="translate(1294,1265)" d="m0 0 45 1 7 1 1 1-1 12-3 3-9 2h-23l-6 1-3 14v12l19 1 12 3 1 2v6l-5 5-3 2-7 1-14-1-9 2-4 18v10l3 3 5 1 25 1 1 1v7l-3 10-2 1h-50l-11-2 1-8 6-14 2-8 3-25 7-21 1-6 1-21 3-8 3-3 6-3z" fill="#02946A"/>
<path transform="translate(1323,1260)" d="m0 0 46 1-6 7-4 9-5 24-7 33-7 32-4 19 10 1v1h-76l-10-2v-2l11 1h52l2-12v-5l-25-1-6-2-3-3v-10l4-16 4-4 7-1 15 1 6-2 4-2 2-3v-8l-12-2-19-1-1-1v-12l3-14 7-2h23l9-2 2-2 1-12-7-1-45-1-4 3-2-1 7-6 2-1z" fill="#FDFEFD"/>
<path transform="translate(629,1261)" d="m0 0 46 1 5 15-5 5-12 4-13-1-9 1-5 5-4 13v7l1 1 26 2 5 2 1 1v6l-4 6-8 3h-13l-9-1-3 3-4 15-5 23-4 11-4 3h-12l-4-4-4-1 1-9 5-16 6-32 4-23 1-16 3-10 6-7 8-6z" fill="#009368"/>
<path transform="translate(590,705)" d="m0 0 7 1v2l-14 9-11 8-16 13-17 17-11 14-6 7-8 11-5 10h-2l-2 5-6 11-8 16-2 5-5 12-5 10-9 29-6 33-4 30-1 12v23l1 17 2 17 3 18 6 21 6 17 8 18 2 5-3-1-3-4v-2l-7-2-3-4 1 6 14 25 11 14 11 12 10 10h-3l-17-17-11-14-8-11-14-26-6-14-2-8-4-11-2-10-2-24v-66l3-36 3-15 10-35 10-28 9-19 10-18 11-17 9-9v3l-2 4 4-1 2-6 6-6h2l2-6 11-12 6-7 8-7 4-4h2l2-4 7-8h3v-2l4-4-2-2 6-4z" fill="#08986F"/>
<path transform="translate(2007,1255)" d="m0 0h9l16 5 8 4 8 6v47l-9 4-14 2h-22l-9-4-7-7-3-6-4-24-2-4-1-6-5 15-7 39h-2l1-18 6-38-1-7-6-1-1-2 9-1 6 3 2 5 2-5 10-3z" fill="#FCFDFC"/>
<path transform="translate(713,1292)" d="m0 0h7l8 4 4 5 4 11-1 11-5 22-3-1h-18l-5 1h-10l-4 5-1 7 3 8 3 2h5l5-5 5-6 6-2 12-2-1 8-7 14-9 10-5 1h-19l-9-3-3-2v-2h-2l-4-9v-22l2-11 6-18 7-14 8-7 6-3z" fill="#03956B"/>
<path transform="translate(1860,1293)" d="m0 0h14l6 3 7 9v2h2l-5 28-7 35-3 10-2 3-4 1-21 1-16-1-7-2-4-8v-14l5-15 5-5 18-8 12-6 5-6 1-3v-7l-1-1h-8l-13 10-3 3-10 3-1-3 3-15 5-6 9-5 5-2z" fill="#02946A"/>
<path transform="translate(975,1294)" d="m0 0h18l4 2 8 13-1 8-5 25-7 37-2 4-9 2h-25l-15-2-3-3-3-14 1-9 7-13 8-8 13-5 11-4 6-7v-11l-3-1-8 4-6 5-5 5-10-1-3-2v-2l-2-1 8-5 5-1-1-5 6-7 7-3z" fill="#03946A"/>
<path transform="translate(1413,1293)" d="m0 0h20l7 2 5 8 2 5v11l-3 17-2 9h-2v-4l-12 3-2 1-19 1-7 2-2 4v9l4 4 8 2 7-4 6-8 13-5 4-2-3 15-7 11-7 8-7 2h-17l-8-2-7-6-3-7v-21l5-23 5-14 8-10 4-4z" fill="#03956B"/>
<path transform="translate(862,1291)" d="m0 0 8 1 8 6 6 12-1 11-5 21-9 2-19 1h-8l-4 2-2 5 1 9 2 4 3 2h6l10-11 6-2h12l-1 6-9 14-6 8-3 2-11 1h-10l-9-2-5-5-3-7-1-5v-13l3-21 4-15 6-12 5-6 10-5z" fill="#03946B"/>
<path transform="translate(1039,802)" d="m0 0h1l-2 38-2 22h105l32-1 8-2 2-3 5-29 5-14h1v7l-2 4-1 1-2 21-3 10v8l-1 2-2 21-6 36-2 16-4 18-3 12-5 10-2 1-8-2 1-2h7l3-5 8-40 5-37v-14l-4 1h-121l-24-1-10-1-3-3 2-19h1v11l4-1 2-4h2l2-11 6-25 4-24z" fill="#31B194"/>
<path transform="translate(1307,831)" d="m0 0h1v7l-3 13-1 9 3-5 1-5 5-1 2-4 3-3h3l1 12-1 7 94-1h57l8 1 1 3h-2l-1 7h-3l-3-7h-3l-3 12-2 26-1 11h-2v-33l-85 1h-56l-15-1-4-2v-17l3-18z" fill="#3CB59A"/>
<path transform="translate(537,1294)" d="m0 0 10 1 6 5v29l-3 16-7 27-4 9-2 2h-10v-10l4-27 3-25-1-8-1-2-10-1-7 21-8 29-2 6-3 17-3 2h-14l-1-1 1-10 5-26 5-25 2-5 3-13 5-8 2-1h7l2 4v4h5v-2h2v-2l4-3 8-1z" fill="#019469"/>
<path transform="translate(337,1294)" d="m0 0h17l9 3 6 8 2 9v9l-3 1-10-4-13-10h-7l-3 5 2 6 21 21 5 7 1 7-4 9-7 12-8 7-3 1h-17l-10-1-5-5-5-13v-8l3-5 8 1 7 6 4 6 7 1 6-4 2-3-1-5-12-12-8-7-4-6v-18l6-12 10-5z" fill="#02946A"/>
<path transform="translate(1675,1294)" d="m0 0h17l6 3 6 10 2 6 1 12-2 1-14-2-6-5-4-6-5 2-5 8-3 11-2 11-1 2h-2l-1 11 2 4 7 1 6-3 7-9 6-2 9-1v7l-3 6-11 17-6 5-7 2-17-1-5-2-4-5-2-5v-18l3-19 6-20 7-13 6-5z" fill="#03956B"/>
<path transform="translate(1293,988)" d="m0 0h1l-1 10-10 48-2 14h60l6 1h61l29 1 9 2-1 8h-2v-6l-10-1-2 5-5 4 3 2-1 10h-1v-7h-24l-38 1h-65v-1l30-1-9-1h-9l-11 1-5-2-11-2-1-1v-7l-6-1-2-2 1-13 4-20 4-14 5-23z" fill="#31B094"/>
<path transform="translate(1491,1293)" d="m0 0h9l7 4 5 10 4 14-13 4-6-2-5-7v-2l-8-1-5 10-2 11v9l-5 3-1 3v15l8 1 6-4 7-9 3-2h10l2 3-1 6-12 19-7 6-8 1-14-1-6-2-4-5-2-7v-12l6-33 4-13 6-10 5-4 11-4z" fill="#06976E"/>
<path transform="translate(1495,666)" d="m0 0h23l5 3-1 21-4 27-6 37-4 21-4 11-3 9-2 2-35 1h-136l-2 12-1 5h-2l1-10 2-10 5-3 38-1h-38l-6-2v-1l31-1 139-1 3-9 6-23 4-22 3-28 5-20 3-6h2v-5l-7-1-17-1-195-1v-1l137-1z" fill="#32B194"/>
<path transform="translate(1369,1261)" d="m0 0 11 1 3 4 3 13v3h-7l-3 17-9 43-3 16-4 22-2 4-2 1-17 1-3-1 1-10 7-32 8-36 5-27 4-11z" fill="#019369"/>
<path transform="translate(1546,1268)" d="m0 0 6 1 4 5v19l1 7-4 9-6 19-6 23-1 8v9l4 7 1 8-2 2h-19l-4-1-3-9 1-14 5-29 2-30 6-14 2-5 2-10 2-3z" fill="#009369"/>
<path transform="translate(1037,1259)" d="m0 0h9l3 1 1 2-1 38-2 14-5 19-6 30-4 13-4 7-7 2h-8l-4-2 2-10 9-44 4-26 4-24 3-16 2-3z" fill="#03946A"/>
<path transform="translate(1006,999)" d="m0 0h2l-2 15-3 11-3 8-6 36-5 22-4 30-3 5-3 3-2 13v10l-2 17-5 13-6 13-2 1h-113l-7-2-2-5-1-6v-10l2-17 6-20 7-24 5-12h1l-1 14-6 21-3 16v9l1 6-3 6h-2l-1 8-2 6h100l14 1 5-2 4-8 6-22 5-30 7-30 5-30 4-19 5-30 2-5h3l2-10z" fill="#34B295"/>
<path transform="translate(789,996)" d="m0 0 57 1 6 2 12 1 2 1-1 5-4 4h-60l-8 1h-16l-4 1v2l-4 2-9 12-11 13-15 15-16 12-8 5-23 4-10 1-5 1h-3l-1-4 1-2 17-5 23-10 18-10 5-4 5-1v-3h2l2-5 5-5 10-11 9-14 4-5 9-3z" fill="#01946A"/>
<path transform="translate(1573,1296)" d="m0 0 12 1 20 1 3 1-1 6-6 10-11 9-5 12-11 38-3 10-6 1h-11l-1-5 4-22 9-41 4-20z" fill="#019369"/>
<path transform="translate(1156,898)" d="m0 0h4v9l-3 16-3 18-2 5h-24v-3l1-4-5-1-7-5v-2l-5-2-17-2-17-1-4-1-18-1-8-2-4-2-3-7 114-1v-10z" fill="#007C4C"/>
<path transform="translate(1739,1260)" d="m0 0h7l5 2 2 4v16h-11l-2 1 1 6v14l-12 65-3 16-14 1-5-1 1-11 8-32 6-28 6-21 2-11 2-10 4-10z" fill="#02946A"/>
<path transform="translate(948,673)" d="m0 0h24l14 1 3 1v2h4v5l-10 1-36 3-3 16v11l-8 41-9 51-3 13-2 1-6-20v-8l4-15 4-34 8-45 3-15 6-7z" fill="#02956B"/>
<path transform="translate(908,1295)" d="m0 0 5 1 4 5 14 1 3-1 2 1-2 7 5 2-1 4-8 1-5 5-6 5-3 10-5 26-5 21-2 2-13 1-7-2 4-21 7-28 6-32 4-5z" fill="#009368"/>
<path transform="translate(1632,1260)" d="m0 0h11l3 3-7-1 3 9v11l-2 1-5 1-3 3-3 1-1 2 8-1 1 1v13l-4 23-5 25-4 19-2 11-4 4h-14l-2-1v-8l9-36 8-35 4-11 2-5 1-14 5-14z" fill="#007C4C"/>
<path transform="translate(403,1261)" d="m0 0h7l2 10v9l-6 4h-2v2l-2 1v2l5 2 1 7-3 19-10 52-2 13-3 3h-16l-1-5 14-65 5-19 1-11 1-8 7-11z" fill="#02946A"/>
<path transform="translate(301,1260)" d="m0 0 5 1 1 9 1 7v5l-7 3-5 1v3l8 1v11l-3 20-7 33-4 17-2 12-2 2h-16l1-10 6-31 7-31 6-19v-13l8-16z" fill="#04966D"/>
<path transform="translate(691,777)" d="m0 0h5l-1 3-8 2-9 3v2l-9 2-23 11-15 11-2 2-5 2-3 3h-2v2l-6 4-9 7-9 12-7 11-9 14-8 16-1 3-3 1 2-9v-2l-3 5h-2l1-7 7-16 6-11 12-17 9-12 11-12 10-9 14-10 17-7 10-2 26-1z" fill="#028052"/>
<path transform="translate(590,705)" d="m0 0 7 1v2l-14 9-11 8-16 13-17 17-11 14-6 7-8 11-5 10h-2l-2 5-6 11-8 16-2 5-5 12-5 10-9 29-3 12-2 3v-19l1-2h-2l-2 10-3 1v-7l9-29 8-21 8-17 10-18 11-17 9-9v3l-2 4 4-1 2-6 6-6h2l2-6 11-12 6-7 8-7 4-4h2l2-4 7-8h3v-2l4-4-2-2 6-4z" fill="#058457"/>
<path transform="translate(1033,780)" d="m0 0h159l-1 5-1 1-92 1-26 1h-32v2l5 1-5 6-6 35-8 31-6 5h-2v-17l3-18 6-29 4-20z" fill="#01946A"/>
<path transform="translate(625,813)" d="m0 0 2 1-10 10-7 8-9 10-9 13-13 26-9 23-2 11-3 42v28l3 27 13 23 11 13 10 8 18 10 8 4 5 2-4 1-10-2-10-3-14-9-7-8-11-13-9-14-8-19-5-21v-33l7-43 9-27 11-20 7-10 10-15 5-6 10-8 5-2v-2z" fill="#39B498"/>
<path transform="translate(1413,912)" d="m0 0h12l1 5-3 26-5 2h-18l-3-7-10-6-9-2-7-2-23-5-16-2-2-2v-5l-2-1z" fill="#007C4C"/>
<path transform="translate(854,1064)" d="m0 0 1 3-3 10-10 12-10 14-8 10-11 12-7 8-24 22-18 11-19 12-15 7-18 6-10 3-16 2-23 1h-47l-19-1-16-4-19-6-2-5-8-4 2-1 23 7 24 4h11l13 1 3 1 1 4h34l33-7 10-3 14-1 10-3 3-1v-3l8-2h2l8-4 5-4 12-6 10-6 8-8 8-6 11-12 7-8 9-9 22-28z" fill="#42B79C"/>
<path transform="translate(786,992)" d="m0 0h9l16 3 12 1v1h-34l-11 1-9 3-10 14-4 6-8 9-5 5-3 5h-2v3l-8 4-5 4-19 10-22 9-11 3h-3v6l8-2 15-2 16-2-4 3-16 7-17 4-8 1h-22l-16-3-16-6-4-3 3-1 4 2 4-3 8 1 1-2 1 2 5 2 9-1v-3l-7-1v-1l31-1 11-2 11-6 16-5 17-8 5-4h2v-2l7-6 9-11 3-4 5-9 7-8 11-7z" fill="#32B194"/>
<path transform="translate(950,668)" d="m0 0h60l110 1 65 1v2l-80 1-16 1h-38l-27-1h-40l-36 1-8 3-4 5-10 54-3 24-3 20-4 16-2-3v-33l2-12 5-15 2-16 1-19 3-10 8-13 5-4z" fill="#4FBCA3"/>
<path transform="translate(470,1082)" d="m0 0 5 5 6 2 4 6 4 2 7 12 11 13 11 12 8 7 9 10 7 5 11 6 8 4 7 3 3 1v2l6 1 3 5 1 6-7-1-26-8-11-7-16-13-12-13-10-10-11-14-7-11-11-20z" fill="#02946A"/>
<path transform="translate(1436,1064)" d="m0 0 7 2-1 12-4 13-5 39-6 29-7 25-2 2h-6v-13l-6 4h-15v-1l12-1 5-1 3-11 6-25 7-35 3-17 1-10-4-2 7-5 2-4z" fill="#02946B"/>
<path transform="translate(1480,874)" d="m0 0h1l-1 26-3 27-4 24-4 31-3 6-8 5-9 3h-38l-45-3-69-6v-1h164l4-16 5-36 5-44h3v-13z" fill="#38B397"/>
<path transform="translate(791,826)" d="m0 0 3 3 9 19 5 14 2 3 51-1 33-1v15l-1 2-4 1-41 1h-21l-9-1-2-4-4-1-6-13-10-25-5-10z" fill="#32B194"/>
<path transform="translate(1028,982)" d="m0 0 28 1 12 1 31 1h59l3-3h3l1 11-4 20-3 12-2 1-4 25-4 13-3 28-4 24-5 23-5 28-4 10-3-3 1-9 6-23 5-37 6-18 2-15 2-21 4-14 2-6 2-21 1-16-24-1-53-5-35-3-24-1v-1z" fill="#36B396"/>
<path transform="translate(116,1308)" d="m0 0 6 1 5 4 2 5v10l-3 17-4 12-4 6-5 4h-8l-6-4-1-6 8-31 4-12 4-5z" fill="#FDFEFD"/>
<path transform="translate(449,1309)" d="m0 0 7 1 5 5 1 2v15l-4 15-6 14-4 5-6 1-9-4-2-5 1-8 10-30 5-10z" fill="#FDFEFD"/>
<path transform="translate(2e3 1262)" d="m0 0h14l9 3 15 11 7 2v39l-9 4-14 2h-22l-4-2 4-4 2-1 23-1-5-5-4-8-2-12v-12h5l1 3h5l-5 10v8l4 6 6 2 4-1 2-11v-12l-2-5-5-4-13-8-8-2 2 5 1 4h-8l-3-2-2-3-6 8 2 1-2 3h-3l1-6 6-10z" fill="#30B093"/>
<path transform="translate(1491,1293)" d="m0 0h9l7 4 5 10 4 14-13 4-6-2-5-7v-2l-8-1-5 10-2 11v9l-5 3h-2l-2 17h-1l-1-20 1-14 2-9 5-9 3-3 6-2 3-9-9 3-6 4-5 8h-2l2-5 4-6 8-5z" fill="#019369"/>
<path transform="translate(1789,1306)" d="m0 0 4 1 2 3v11l-2 15-7 24-6 9-5-1v-2l-7-2-2-3v-7l3-10 5-18 6-14 6-5z" fill="#FDFEFD"/>
<path transform="translate(1318,780)" d="m0 0h12l3 6h6l2 2-13 1 3 1h49l41 1v1l-90 1-4 2-3 16v12l-2 26h-1v-7l-5 3-3 4h-3l-2 6-3 5-1 5h-1v-8l3-17 1-2 2-17 7-37z" fill="#02966E"/>
<path transform="translate(1186,669)" d="m0 0h116l195 1 17 1 7 2v5l-2-1 1-3-284-1-49-1-2-2z" fill="#30B093"/>
<path transform="translate(1932,1307)" d="m0 0h5l4 3 1 5-4 25-4 16-4 9-3 3h-6l-6-3-1-1v-12l9-30 6-12z" fill="#FDFEFD"/>
<path transform="translate(777,1310)" d="m0 0 11 1v19l-6 22-7 14-2 2-7-1-4-5v-10l4-13 5-21 3-6z" fill="#FDFEFD"/>
<path transform="translate(911,1291)" d="m0 0h79l5 3-2 1h-18l-9 2-6 4-3 4v5l-12 6 1 2-17-1 1-2 8-1-2-4-2-1 1-5 1-2-11 1-9-1-4-6h-6l-2 5-1-3 4-6z" fill="#31B194"/>
<path transform="translate(750,1025)" d="m0 0 5 1-3 6 4-1-2 4-7 8-13 13-16 12-8 5-23 4-10 1-5 1h-3l-1-4 1-2 17-5 23-10 18-10 5-4 5-1v-3h2l2-5 5-5z" fill="#08A287"/>
<path transform="translate(459,895)" d="m0 0h1l-1 12v37l-1 15v28l1 34-1 4-1 19-1-2h-2l-3-26-1-19v-29l3-53 3-16z" fill="#007F51"/>
<path transform="translate(860,736)" d="m0 0 5 5 10 13 8 15 3 3 5 11 3 17 2 20-1 4 1 16v10h-1l-4-23-5-14-4-9-6-15-3-7-5-12-1-4 2 1v2l4 1 2-1h2l-9-17-3-7-5-7z" fill="#03946B"/>
<path transform="translate(527,1143)" d="m0 0 4 2 12 9 14 8 24 9 21 5 26 3 35 1v1l-33 1v2h5l9 4v4h25v1l-6 1h-32l-3-3v-2l-17-1h-10l-16-3-5-2-2-7-1-2-6-2v-2l-5-1-12-5-9-6-7-4-10-9z" fill="#09A286"/>
<path transform="translate(570,874)" d="m0 0 1 4-2 1-1 8 1 3-6 18-7 43-1 33h-1v-24h-5l1 28 5 23 8 21h-2l-5-10-6-16-2-10-1-10v-31l3-24 5-26 5-17 3-8 1 2 3-3z" fill="#03946A"/>
<path transform="translate(187,1306)" d="m0 0h13l5 3v14l-2 19 2 8 7 1 1 1 3-9 2-1-1 7-7 25-2 9-2 2h-16l-1-3 5-18 6-25 3-19v-10l-3-1h-9l-6 9-6 21h-1v-7l6-20z" fill="#03956C"/>
<path transform="translate(533,1293)" d="m0 0h14l6 4 2 2 1 33 17 2 5 2 1 3-1 2-10 2-13 1-2 11-5 13h-2l-2 9-5 7-5 1h-8l-2-1 1-11 7-40h1l-1 13-4 27-1 10 10-1 3-5 4-13 6-23 2-12v-29l-5-4-10-1-2 2-8 1-4 2v2h-2v2h-5l-2-7h-7l-3 2-4 9-3 14h-1l1-10 4-13 4-4z" fill="#31B194"/>
<path transform="translate(629,1261)" d="m0 0 46 1 5 15-4-4-1-2-22-3h-15l-10-1-8 2-2 5-3 4-5 21-6 35-4 19-1 9v14l2 7 4 1 7-1 4-9 5-21 4-17 2-2-2 10-6 28-4 11-4 3h-12l-4-4-4-1 1-9 5-16 6-32 4-23 1-16 3-10 6-7 8-6z" fill="#33B195"/>
<path transform="translate(337,1294)" d="m0 0h17l9 3 6 8 2 9v9l-3 1-10-4-13-10h-7l-3 5 2 6 3 4-4-2-4-6v-6l2-3v-4l-2-1v-2h-8l-2 4-1-2 5-5z" fill="#06976E"/>
<path transform="translate(569,709)" d="m0 0h5l2 4h-2l-1 3h-2v2l-5 3-7 9-8 7-10 9-9 11-4 5-2 4-7 6-3 6-4 1 2-6-8 8 2-5 4-6 10-14 6-8 11-12 10-9 10-10z" fill="#03966E"/>
<path transform="translate(699,778)" d="m0 0 23 4 15 6 10 6 12 9 11 11 10 14 7 12 10 21v9l5 6-1 5-5-5-6-12-6-18-11-20-10-14-8-9-12-9-11-5-10-2-31-1h-13l4-3 7-3z" fill="#3FB69B"/>
<path transform="translate(1156,996)" d="m0 0 2 2-1 21-5 32-4 13-3 28-4 24-5 23-5 28-4 10-3-3 1-9 6-23 5-37 6-18 2-15 2-21 4-14 2-6 2-21 1-12z" fill="#FDFEFD"/>
<path transform="translate(700,659)" d="m0 0h15l26 3 19 3 27 10 13 7 15 9 16 12 10 9 10 10-1 2-16-16-13-10-16-10-19-9-19-7-9-3-32-6-13-1h-12l-20 2-20 4-13 5-23 7-9 4-11 6h-2l-2 4h-3l-12 6-7 5-2-1 8-6 13-8 25-12 19-7 22-7 23-4z" fill="#31B194"/>
<path transform="translate(62,1340)" d="m0 0 5 1 2 4-1 9-8 16-11 12-6 2h-23l-5-1v-2l-3-1v-1l11-1v-2l2-2-2-5 5 1v2l9 2h8l3-1 4-6 2-7 3-9 2-8z" fill="#038052"/>
<path transform="translate(175,1300)" d="m0 0 8 1 1 2-5 12-3 9 1 13-4 16-2 5-4 4-5-1v-2l-3-1 2-11 4-12 1-13 2-10 4-9h2z" fill="#007B4B"/>
<path transform="translate(855,1048)" d="m0 0 2 1v11l-8 14-8 12-13 16-6 7h-2l2-7-5 3-6 6h-2l-2 4h-3l3-3 3-5 10-11 12-16 12-17 6-10z" fill="#038254"/>
<path transform="translate(170,1304)" d="m0 0 1 4-3 7-2 17-2 10-3 9-1 7 3 3 4 1 2-4 2-1 4-16 3-2-1 8-6 23-2 14-2 1h-15l-1-5 9-39 6-31 2-5z" fill="#02956C"/>
<path transform="translate(259,1329)" d="m0 0 1 4-6 25-4 16-2 10-1 1h-17l2-12 6-25 2-4v10l4 1 4 2 3-10 2-3 2-2 3-12z" fill="#0A9972"/>
<path transform="translate(1739,1260)" d="m0 0h7l5 2 2 4v16h-11l-2 1 1 6v14l-1 6h-1v-12l-4 2-1 2h-2v2h-3l-1 4h-2l1-8 3-9 2-15 5-14z" fill="#019369"/>
<path transform="translate(1369,1261)" d="m0 0 11 1 3 4 3 13v3h-7l-3 17-2 9h-1l1-13 1-9v-14l-3-6-7 3-3 6-6 24-6 29-6 27v14l2 9v5h12l-2 2-17 1-3-1 1-10 7-32 8-36 5-27 4-11z" fill="#2FAF91"/>
<path transform="translate(774,1305)" d="m0 0h7l7 3 1 2v23l-3 12-1 9-3 5 1 2-1 7-1 5 3 5 1 6 4 1-3 1h-21l1-4-5-12-1-13 2-4 1 9 5 5h5l6-10 5-15 3-12 1-19h-11l-3 1-1-6z" fill="#31B194"/>
<path transform="translate(517,927)" d="m0 0 2 3 2 19v12l-3 25v21l-3-1-4-11-2-6v-27l3-19z" fill="#06A287"/>
<path transform="translate(1860,1326)" d="m0 0 3 1-4 8-10 12-4 1v2l-6 4-4 6h-2v3l-4-1-3-3-4 2v-7l4-11 8-5 23-10z" fill="#048153"/>
<path transform="translate(1632,1260)" d="m0 0h11l3 3-7-1 3 9v11l-2 1-5 1-3 3-3 1-1 2 8-1 1 1v13h-1l-1-11-8 2-3 7-8 27-6 27-4 16-1 12 9 1v1h-10l-2-1v-8l9-36 8-35 4-11 2-5 1-14 5-14z" fill="#31B194"/>
<path transform="translate(1737,1297)" d="m0 0h2v16l-8 44-5 3-2-4v-19l2-25 3-9h3v-2h2l1-3z" fill="#038052"/>
<path transform="translate(1006,999)" d="m0 0h2l-2 15-3 11-3 8-6 36-5 22-4 30-3 5-3 3h-2l1-7 6-27 5-30 4-19 5-30 2-5h3l2-10z" fill="#3AB498"/>
<path transform="translate(868,1080)" d="m0 0 2 3v16l-1 18-6 31-1 4h-3v-18l-1-6-4 2 2-10 2-6 2-16 4-16z" fill="#03966E"/>
<path transform="translate(1481,1297)" d="m0 0h5l-1 5-2 4-3 2h-3l-1 3h-2l-2 5-4 11v9l-1 14 1 16h-5l-3-6v-27l1-16 2-5h3l2-6 7-6z" fill="#007C4D"/>
<path transform="translate(1615,1328)" d="m0 0h1l-1 14-1 3h2l3 3v12l1 6h2l2-6h1l-1 10-2 11-4 4-11-1-2-1v-12l8-33z" fill="#02946A"/>
<path transform="translate(139,1321)" d="m0 0 3 1 1 1v24l-5 15-4 7h-4l-1-2v-11l-1-3v-7l1-4 1-13 1-4z" fill="#027E4F"/>
<path transform="translate(786,992)" d="m0 0h9l16 3 12 1v1h-34l-11 1-9 3-10 14-4 6-8 9-5 5-3 5h-2v3l-8 4-5 4-4 1 5-6 1-3 7-6 9-11 3-4 5-9 7-8 11-7z" fill="#30B194"/>
<path transform="translate(260,1310)" d="m0 0h1l-1 19-3 8-2 6-3 4-3 11-5-2-4-2v-14l2-9h2v-5h2l1-3h3l1-2 3-4z" fill="#017D4E"/>
<path transform="translate(454,902)" d="m0 0h1l-2 30-2 36v29l2 29 3 20 11 31 8 18 11 19 11 14 11 12 10 10h-3l-17-17-11-14-8-11-14-26-6-14-2-8-4-11-2-10-2-24v-66l3-36z" fill="#31B194"/>
<path transform="translate(625,813)" d="m0 0 2 1-10 10-7 8-9 10-9 13-13 26-9 23-2 4-2-3 2-12 2-9 8-16 10-16 7-10 6-8 5-5 11-9h2v-2z" fill="#2EB093"/>
<path transform="translate(902,1301)" d="m0 0h1v9l-5 24-6 27v13l9 1 1-4 5-3 6-27h1l-1 11-7 31-2 2-13 1-7-2 4-21 7-28 6-32z" fill="#31B194"/>
<path transform="translate(38,1260)" d="m0 0h17v1l-12 3-15 8-8 9-9 16-5 16-3 11-3 2v-27l11-15 9-11 9-8z" fill="#FDFEFD"/>
<path transform="translate(890,907)" d="m0 0h1l-1 10-7 34-1 36-5 6h-2v6l2 4-3 3-1-2h-5l-2 13-3 11-1-4 3-15-3-1h2l2-7-14-1-4-2 18-1 5-5 6-18 5-33 5-25z" fill="#3EB59A"/>
<path transform="translate(1305,1179)" d="m0 0h43l1 3-1 2h-98l-1-1-2 1v-2l-3-1 2-1z" fill="#007B4B"/>
<path transform="translate(1855,1341)" d="m0 0h3l2 4v7l-3 10-7 6h-9l-6-3-1-5 4-6 5-4h2v-2l6-4z" fill="#FDFEFD"/>
<path transform="translate(1406,897)" d="m0 0h16l-4 2-21 2-21 1-40 1h-21l-18-2-3-3z" fill="#008052"/>
<path transform="translate(1495,666)" d="m0 0h23l5 3-1 21h-1l-1-12 1-5-7-1-17-1-195-1v-1l137-1z" fill="#FDFEFD"/>
<path transform="translate(911,1291)" d="m0 0h79l2 2-21 1-10 4-6 7-7-1-9-6-12-2-9-2-7-2z" fill="#FDFEFD"/>
<path transform="translate(970,1341)" d="m0 0 5 1 2 3v7l-4 10-5 4-2 1-9-1-5-5 1-5 7-8z" fill="#FDFEFD"/>
<path transform="translate(223,1310)" d="m0 0h2v7l-6 25-3 3-2 7h-3l-4-1-2-1-1 2-2-11 2-10 3-1 1 2 3-1 4-9 6-9z" fill="#037F51"/>
<path transform="translate(935,675)" d="m0 0 1 2-5 22-9 49-3 14-3 11-1 10h-1v-23l2-12 5-15 2-16 1-19 3-10z" fill="#FDFEFD"/>
<path transform="translate(854,1064)" d="m0 0 1 3-3 10-10 12-10 14-8 10-11 12-7 8-24 22-5 2 2-4 10-10 8-7 13-15 11-11 22-28z" fill="#6DC7B3"/>
<path transform="translate(1546,1268)" d="m0 0 6 1 4 5v19l1 7-4 9-1-4 1-3v-18l1-9-3-3-5 1-10 6-1 11-6 10-1 3-1 19-4 23-2 19 1 13 1 6 9 1v1h-8l-4-1-3-9 1-14 5-29 2-30 6-14 2-5 2-10 2-3z" fill="#31B194"/>
<path transform="translate(403,1261)" d="m0 0h7l2 10v9l-6 4h-2v2l-2 1v2l5 2 1 7-2-4v-2l-11 1-3 12h-1l1-9 1-11 1-8 7-11z" fill="#03956D"/>
<path transform="translate(57,1341)" d="m0 0h3l-3 15-4 9-1 4-4 5-3 1h-8l-9-3v-2l-5-2-3-5v-13h1l1 12 3 3 5 2 7-1 8-7 6-9z" fill="#03956B"/>
<path transform="translate(464,879)" d="m0 0h2v18l1 4-4 24-3 23-1 12v23l1 17 1 10h-3l-1-23v-28l1-15v-37l1-11-3 6-1-4 3-11 4 2z" fill="#05976F"/>
<path transform="translate(475,1260)" d="m0 0h8v5l-7 7-4 5-9 6-8 5-5-2 6-12 10-10z" fill="#068558"/>
<path transform="translate(1090,701)" d="m0 0h92l16 1v4l-10-1-48-1h-179l3-2z" fill="#1DAA8E"/>
<path transform="translate(1416,1307)" d="m0 0 7 1 5 4 1 2v9l-8 6-5 1-6-2-4-3 3-9 4-6z" fill="#FDFEFD"/>
<path transform="translate(1348,979)" d="m0 0h95v1l-11 2-32 2h-37l-13-2z" fill="#007C4C"/>
<path transform="translate(921,824)" d="m0 0h1l-1 9-9 52h-1v-18l-1-3 1-3v-7l-4-4-4-2 1-6 6-5 7-9z" fill="#099972"/>
<path transform="translate(324,1301)" d="m0 0h8v2l3 1-1 5-8 8-4 12 1 4 7 6v2h2v2l4 2 4 5-3 1-8-8-8-7-4-6v-18l3-7z" fill="#027F51"/>
<path transform="translate(1212,683)" d="m0 0 5 3-2 1h-266l-2 9-2 13-2 2v-9l3-16 1-1 256-1z" fill="#31B194"/>
<path transform="translate(1812,1267)" d="m0 0h4l4 5v3h2v7l-6 27-2 1-2 4-3-2v-9l3-7h2v-2h3v-4h-2l-1-2-3-1-2-3v-14z" fill="#038052"/>
<path transform="translate(1385,1059)" d="m0 0h45l18 1 1 1v8l-5 30-2 9h-1v-11l2-14 2-7-1-7 2-5-9-1-29-1h-61l-6-1v-1z" fill="#FDFEFD"/>
<path transform="translate(1156,1025)" d="m0 0h1l-1 14-3 27-7 29-4 26-7 34-2 7h-1l1-10 4-23 4-18 3-19 3-28 4-13 4-25z" fill="#31B194"/>
<path transform="translate(1048,1293)" d="m0 0h1l-1 16-6 24-6 30-4 13-4 7-7 1 4-5 10-29 4-27 3-12 3-9z" fill="#39B498"/>
<path transform="translate(1035,779)" d="m0 0h159l3 2-2 6-23 1h-40l-34-1v-1l92-1 1-4-156-1z" fill="#1AA98D"/>
<path transform="translate(1294,1265)" d="m0 0 45 1 7 1 1 1-1 12h-1l-1-9-14-2-21-1h-15l-7 4-3 24-3 14-3 9-5 21-2 12h-1l1-18 3-12 5-15 1-6 1-21 3-8 3-3 6-3z" fill="#34B295"/>
<path transform="translate(298,1298)" d="m0 0h3l1 2v16l-2 9-7 7-4-1v-22l4-6 1-3z" fill="#027F50"/>
<path transform="translate(697,691)" d="m0 0h19l22 3 22 5 19 7 22 12 13 10 2 3-4-2-11-8-9-5-14-7-20-8-20-4-16-2h-42l-18 3-9 1 4-2 19-4z" fill="#31B194"/>
<path transform="translate(244,1293)" d="m0 0 11 1 8 4 1 1v13h-1l-1-13-5-1-13-3v2h-3v2h-11l-2 4-4 3-4-1-2-6-9-2h-6l-2 1-29 1 3-4 4-1h30l11 2 15-1z" fill="#31B194"/>
<path transform="translate(1960,1260)" d="m0 0 9 2 2 6-2 16h-1l1-19-6 1-8 7-3 4-6 18-3 18-2 1-1-4-3-2-5-1 1-2 4-2-1-7 3-1 1-2-5 1h-10l4-2 13-1 3-5 2-9 9-10z" fill="#3AB498"/>
<path transform="translate(1452,714)" d="m0 0h14l1 3-4 12-3 19-1 2-3-1-1-8v-7l-5-15z" fill="#017D4E"/>
<path transform="translate(852,1308)" d="m0 0h5l3 2v2h2l1 2-1 10-5 5-8 2-4-2-1-6 3-9z" fill="#FDFEFD"/>
<path transform="translate(1392,1155)" d="m0 0 2 2-4 2-13 1h-47l-165-1v-1l198-1 28-1z" fill="#1DAA8E"/>
<path transform="translate(554,1326)" d="m0 0h1l1 6 17 2 5 2 1 3-1 2-10 2-13 1-2 11-5 13h-1l1-11 4-17z" fill="#F6FAF8"/>
<path transform="translate(704,1309)" d="m0 0h7l4 3 1 10-3 5-7 2h-9l-1-5 4-10z" fill="#FDFEFD"/>
<path transform="translate(1357,1286)" d="m0 0h1l-1 8-7 34-6 27v14l2 9v5h12l-2 2-17 1-3-1 1-10 7-32 8-36 4-20z" fill="#31B194"/>
<path transform="translate(486,881)" d="m0 0 1 4-6 24-4 21-2 21v55l3 19 4 17 4 13-1 3-7-21-5-25-2-23 1-32 2-22 4-23 6-25z" fill="#31B194"/>
<path transform="translate(460,1313)" d="m0 0 3 3 1 3v8l-4 20-8 18-6 7-2 1h-6l-5-3-4-8 1-11 4-11 4-14 5-11 1 3-6 16-6 20 1 8 9 4 6-1 5-8 6-16 2-9v-15z" fill="#31B194"/>
<path transform="translate(605,1317)" d="m0 0h1l-1 12-5 24-1 9v14l2 7 4 1 7-1 4-9 5-21 4-17 2-2-2 10-6 28-4 11-4 3h-12l-4-4-4-1 1-9 5-16 6-32z" fill="#31B194"/>
<path transform="translate(934,685)" d="m0 0 1 3-8 42-3 19-3 27-4 15-1 5-2-3v-10l2-15 4-13 7-40 5-26z" fill="#31B194"/>
<path transform="translate(699,778)" d="m0 0 23 4 15 6 10 6 2 3-4-2-13-6-10-2-31-1h-13l4-3 7-3z" fill="#31B194"/>
<path transform="translate(770 1e3)" d="m0 0 4 1 1 5-3 5-12 16-3 3-5 1 2-5h-3l1-4 5-6 8-12z" fill="#018051"/>
<path transform="translate(985,1025)" d="m0 0h1l-1 13-3 18-6 28-11 55-6 31-3 6-3 2h-8v-1l8-2 3-8 9-40 6-31 5-23 6-32z" fill="#31B194"/>
<path transform="translate(1278,1065)" d="m0 0 6 1 1 7 11 2 6 2 16-1h9l6 2v1h-57l-9-1v-1l6-1-1-5 4-4h2z" fill="#09A387"/>
<path transform="translate(1151,1080)" d="m0 0h1l1 6v31l-2 17-3 9h-1l-1-9 2-17v-9l-1-10v-11z" fill="#007C4D"/>
<path transform="translate(1317,783)" d="m0 0h2l2 8v12l-2 13-3 7-1 3h-4l-1-10 6-32z" fill="#027F50"/>
<path transform="translate(868,1080)" d="m0 0 2 3v16l-1 18-2 12h-2l-1 3-1-5-1-12v-11l3-21z" fill="#017D4E"/>
<path transform="translate(895,885)" d="m0 0h1l1 10-4 19-1 23-2 10-4-1-2 11h-2l1-10 7-35 2-14z" fill="#32B194"/>
<path transform="translate(1811,1260)" d="m0 0 2 2-8 16-5 26-5 25-2-1 1-7v-11l-2-3h-6l2-2 5-1-2-6 2-3-4-1h7l3-6 3-12 8-15z" fill="#30B093"/>
<path transform="translate(840,755)" d="m0 0 5 5 8 13 8 16 8 18 10 31 1 4v7l-7 2h-45v-1l46-1v-20l-9-25-9-20-9-17-7-10z" fill="#31B194"/>
<path transform="translate(1159,1033)" d="m0 0 4 1v29l-1 14-3 7h-1l-1-20-1-4v-13l2-11z" fill="#007B4C"/>
<path transform="translate(1367,702)" d="m0 0h114v8l-4 21h-1l1-13v-13h-42l-15-1-53-1z" fill="#22AB8E"/>
<path transform="translate(1026,898)" d="m0 0 98 1v1l-8 1-25 1h-60l-1-3z" fill="#017E4F"/>
<path transform="translate(2e3 1279)" d="m0 0h3l4 13v7l-3 2-2 3-8-3v-15l3-5z" fill="#31B194"/>
<path transform="translate(1739,1260)" d="m0 0h7l5 2 2 4v16l-11-1v-8l-3-7-1-4z" fill="#2BAC8D"/>
<path transform="translate(1034,979)" d="m0 0h83l-4 2h-12l-7 2h-30l-21-1-8-1z" fill="#007B4B"/>
<path transform="translate(2043,1303)" d="m0 0 2 2 3 9-1 4-12 4-10 1h-22v-2l8-2 6 1 18-4 2-4h2l2-5z" fill="#FDFEFD"/>
<path transform="translate(1500,793)" d="m0 0v3l-1 1-35 1h-46l-82-1v-1l138-1 23-1z" fill="#05875B"/>
<path transform="translate(805,1259)" d="m0 0h8l5 5 1 7-4 26h-1v-9l2-12 1-11h-2l-2 4-7 1-6 7-2 5-3 1 2-5 2-12 4-6z" fill="#31B194"/>
<path transform="translate(1268,1041)" d="m0 0h1v12l3 8 3 1 1-2 2 4v3l-5 2 1 8h-12l1-10z" fill="#06976F"/>
<path transform="translate(441,940)" d="m0 0 2 1 1 22v39l-1 12-2-2-1-9v-49z" fill="#31B194"/>
<path transform="translate(170,1304)" d="m0 0 1 4-3 7-2 17-2 10-3 9-1 5h-2l-2 12-1 12-1 3h14l1-13h1v10l-1 4-2 1h-15l-1-5 9-39 6-31 2-5z" fill="#119E79"/>
<path transform="translate(1666,1334)" d="m0 0h1v8l-2 5h-2l-1 11 2 4 7 1 6-3 7-9 6-2 9-1v7l-2 2v-7l-12 3-10 15-5 4-6-1-4-5-2-8 3-10 3-5z" fill="#31B194"/>
<path transform="translate(1963,1310)" d="m0 0h1l-1 16-6 28-2 14-2 3h-2l-2 6-5 5-5 2-17 1-10-1v-1l13-1 1-1h15l4-4 5-11 9-33 3-17z" fill="#31B194"/>
<path transform="translate(659,791)" d="m0 0 3 1-19 10-12 9-2 2-5 2-3 3h-2v2l-6 4-4 2 2-4 15-15 9-5 10-7 8-3z" fill="#36B296"/>
<path transform="translate(616,801)" d="m0 0 2 1-8 8 7-6 3-3h4l-2 5-6 6h-2v2h-2l-2 4-7 8-4 2-1-2-4 1 2-4 9-11z" fill="#05966D"/>
<path transform="translate(1279,1026)" d="m0 0 2 1v7l-3 16-2 10-1 2-4-1-3-8 1-10 5-3z" fill="#007D4D"/>
<path transform="translate(1863,1328)" d="m0 0h2l-1 8v8l-3 12-6 12-5 3-5 1-9-2-3-3v-7l2 4 6 3h9l6-5 3-10v-7l-1-4-6 2 6-8z" fill="#30B093"/>
<path transform="translate(1479,864)" d="m0 0h2v10l-2 3-1 13h-3v8l-3 6h-1l-1-29 1-5h2v2l5 1z" fill="#009368"/>
<path transform="translate(533,1293)" d="m0 0h14l6 4 2 2v6l-2 1-2-7-4-3-10-1-2 2-8 1-4 2v2h-2v2h-5l-2-7h-7l-3 2-4 9-3 14h-1l1-10 4-13 4-4z" fill="#31B194"/>
<path transform="translate(1415,1148)" d="m0 0h1l-1 9-2 8 1 4 9 1-2 10-2 5-1 1h-6v-13l-6 4h-15v-1l12-1 5-1 3-11z" fill="#12A68A"/>
<path transform="translate(551,926)" d="m0 0h1l-1 20-1 14v28l5 23 8 21h-2l-5-10-6-16-2-10-1-10v-31l3-24z" fill="#31B194"/>
<path transform="translate(301,1260)" d="m0 0 5 1 1 20h-13l-2-1 1-6 6-11z" fill="#028254"/>
<path transform="translate(1087,762)" d="m0 0 45 1h52l-1 2-9 2-29-1-19-1h-83v-1l44-1z" fill="#31B194"/>
<path transform="translate(1633,1266)" d="m0 0 5 1 2 4h2v11l-2 1h-6l-1 1h-6v-8l4-8z" fill="#028456"/>
<path transform="translate(306,1270)" d="m0 0 2 3v9l-7 3-5 1v3l8 1v11h-1l-2-7-7-1h-2l-1 5-7 24-3 14h-1l1-11 7-25 2-6v-13l2-2 2 1 13 1-1-3z" fill="#2FB093"/>
<path transform="translate(513,947)" d="m0 0 4 3 2 6-1 16-3 5-5 1v-15l2-14z" fill="#31B194"/>
<path transform="translate(1462,1374)" d="m0 0h12l11 4 1 5-4 1h-17l-2-1v-2h-2l-1-5z" fill="#007D4E"/>
<path transform="translate(1837,1306)" d="m0 0 8 4v2h4l-1 4-7 6-10 3-1-3 2-12z" fill="#068457"/>
<path transform="translate(1736,1261)" d="m0 0 1 3-4 11-2 15-6 21-8 36-5 21-1 13 1 3-4 1-1-1 1-11 8-32 6-28 6-21 2-11 2-10z" fill="#31B194"/>
<path transform="translate(1488,1305)" d="m0 0h10v12l-2 4-4-5v-2l-8-1-5 10-2 11v9l-5 2 2-4 2-16 5-12 4-6z" fill="#31B194"/>
<path transform="translate(862,1312)" d="m0 0h2v2l4 1 1 4h-2v10l-4 1h-3l-2 4-6 1-7-2v-2l-3 1 1-11 2-5 1 3-1 6 1 4 4 1 8-3 3-3 1-10z" fill="#31B194"/>
<path transform="translate(750,1025)" d="m0 0 5 1-3 6 4-1-2 4-7 8-7 7-4 1-1-4 6-7 2-7 5-5z" fill="#04966D"/>
<path transform="translate(860,736)" d="m0 0 5 5 10 13 8 15 3 3 5 11 2 9-1 4-20-40-10-15z" fill="#3BB599"/>
<path transform="translate(470,1082)" d="m0 0 5 5 6 2 4 6 4 2 4 7v6l-4-2-3-3v-2l-4-2v-2l-3 1-5-5-4-8z" fill="#028153"/>
<path transform="translate(1032,1278)" d="m0 0h3l1 2 1 16-1 12-5 1-3-3v-5l2-6v-12z" fill="#007B4B"/>
<path transform="translate(849,1129)" d="m0 0h1v10l-3 17-5 22-1 5h-2v-10l2-17 6-20z" fill="#FDFEFD"/>
<path transform="translate(761 1e3)" d="m0 0v3l-6 12-12 14-10 10-7 4v-2l7-6 9-11 3-4 5-9 7-8z" fill="#FDFEFD"/>
<path transform="translate(762,1300)" d="m0 0 2 1-6 5-5 13-4 20-3 16v17l2 12-3-3-2-10v-13l5-35 3-10 6-9z" fill="#31B194"/>
<path transform="translate(850,875)" d="m0 0 15 1 2 1h27l-1 3-4 1h-46l1-2h4v-3z" fill="#018F66"/>
<path transform="translate(1429,1341)" d="m0 0h9v1l-10 2-2 1-19 1-7 2-2 4v9l4 4 8 2 7-4 2-1-2 4-6 5h-8l-6-5-1-2v-17l3-3 18-1z" fill="#31B194"/>
<path transform="translate(603,1320)" d="m0 0 1 4-6 32-6 20-1 5 5 1 3 3 12 1v1h-13l-9-2-1-6 7-23 6-29z" fill="#FDFEFD"/>
<path transform="translate(671,676)" d="m0 0h15v1l-15 2-6 3-7 2-6-1v2l-7 1-11 5-11 4-5 1 4-3 15-7 20-8z" fill="#31B194"/>
<path transform="translate(690,771)" d="m0 0h26l14 3 2 2-8-1-14-2h-16v2l-4 2-8 1-19 1-6 2-4-1 17-5z" fill="#2FB092"/>
<path transform="translate(2e3 1262)" d="m0 0h14l5 1-3 2-8-1 2 5 1 4h-8l-3-2-2-3-6 8 2 1-2 3h-3l1-6 6-10z" fill="#32B195"/>
<path transform="translate(873 1e3)" d="m0 0h1l-1 9-6 13-8 18 7-1-2 2h-8l1-5 4-10 3-7 4-18z" fill="#05966D"/>
<path transform="translate(126,1341)" d="m0 0h1l-1 8-4 12-5 8-7 4h-6l-5-3-2-3v-12l2-3v8l2 4 4 2h8l6-5 4-9z" fill="#31B194"/>
<path transform="translate(435,1373)" d="m0 0 5 2 5 5-2 4h-14l-3-1-4-6 1-2h12z" fill="#017D4E"/>
<path transform="translate(1154,1076)" d="m0 0h3l2 6 2-4-1 11-7 34h-1l1-31z" fill="#0A9B75"/>
<path transform="translate(1028,982)" d="m0 0 28 1 12 1 49 2v1h-54l-20-2-24-1v-1z" fill="#31B194"/>
<path transform="translate(551,932)" d="m0 0 2 4h3l2-2-1 11-1 6-1 33h-1v-24h-4v-14z" fill="#06A287"/>
<path transform="translate(558,1145)" d="m0 0 10 3 14 6 5 2 16 3 11 4 6 1v1h-10l-22-5-16-6-14-8z" fill="#21AB8F"/>
<path transform="translate(1146,701)" d="m0 0h36l16 1v4l-10-1-48-1v-2z" fill="#15A484"/>
<path transform="translate(1462,979)" d="m0 0 1 2-2 5-4 1h-145v-1l144-1 5-5z" fill="#06A287"/>
<path transform="translate(1470,1346)" d="m0 0 1 3v15l8 1 6-4 7-9 3-2h10v1l-9 1-3 1-2 4-7 10-6 5h-5l-4-5-1-3v-13z" fill="#2FB093"/>
<path transform="translate(1546,1268)" d="m0 0 6 1 4 5v19l1 7-4 9-1-4 1-3v-18l1-9-3-3-5 1-10 6-2 3v-7l3-5z" fill="#36B396"/>
<path transform="translate(727,1352)" d="m0 0 1 4-2-1-8 2-9 7-2 4-7 3-7-1-4-4-2-5v-7l2 1 2 8 4 4h5l5-5 5-6 6-2z" fill="#2FB093"/>
<path transform="translate(967,1332)" d="m0 0h4l1 5-5 7-3 2h-4l-1-6h-6l-1-3h3v-3z" fill="#048255"/>
<path transform="translate(1284,1272)" d="m0 0 1 3-1 14v7l-3 14-3 9-5 21-2 12h-1l1-18 3-12 5-15 1-6 1-21z" fill="#40B69C"/>
<path transform="translate(389,1308)" d="m0 0 1 4-9 42-3 19v9l2 1h11l-1 2h-16l-1-5 14-65z" fill="#31B194"/>
<path transform="translate(864,746)" d="m0 0 4 2 3 8 7 13-1 2-3-1h-3l-5-4-5-8-1-6 4 2 5 4-5-10z" fill="#027F51"/>
<path transform="translate(1112,897)" d="m0 0h35l-3 2-20 1-93-1v-1z" fill="#01966E"/>
<path transform="translate(88,1375)" d="m0 0 13 1 10 4v3l-3 1h-16l-4-2-1-6z" fill="#017D4E"/>
<path transform="translate(856,1128)" d="m0 0h2l2 8-1 16-3 5h-3l-1-14 2-13z" fill="#007B4B"/>
<path transform="translate(776,1007)" d="m0 0 5 1h74l6 1v1h-60l-8 1h-16l-4 1v2l-3-1z" fill="#31B194"/>
<path transform="translate(1737,1261)" d="m0 0 2 1 2 5 2 9-1 6-4 1v2h-2l-3-5v-8z" fill="#007F51"/>
<path transform="translate(445,1290)" d="m0 0h10l12 1 5 3-2 1-3-1h-10l-8 3-2 2-10 1-6 5 2-4z" fill="#31B194"/>
<path transform="translate(559,717)" d="m0 0 2 1-5 6h-2v2h-2l-2 4-11 11-7 8-5 5-5 7h-2l-2 4-2 1 2-5 6-8 9-11 7-7 8-7z" fill="#30B093"/>
<path transform="translate(929,755)" d="m0 0 4 1-2 19-2 10-2 1-1-16-2-3 2-9z" fill="#007B4B"/>
<path transform="translate(1193,813)" d="m0 0h1v7l-2 4-1 1-2 21-5 16-2 2h-6l-3-3 8-2 2-3 5-29z" fill="#FDFEFD"/>
<path transform="translate(1681,1307)" d="m0 0 7 1 1 5-1 6 4 3 11 1 2 1 2-4v5l-2 1-14-2-6-5-4-6-5 2-5 8-3 11h-1l1-9 5-10 6-7z" fill="#31B194"/>
<path transform="translate(713,1310)" d="m0 0 4 2 2 4v11l-3 3-9 3-10-1-2-2v-7l2-3v8h9l7-2 2-6-1-8z" fill="#31B194"/>
<path transform="translate(527,1143)" d="m0 0 4 2 12 9 14 8 24 9 7 2v1h-11l-6-2v-2l-5-1-12-5-9-6-7-4-10-9z" fill="#31B194"/>
<path transform="translate(393,1280)" d="m0 0 12 1 4 1-5 2v2l-2 1v2l5 2 1 7-2-4v-2l-11 1-3 12h-1l1-9 1-11z" fill="#31B194"/>
<path transform="translate(572,1021)" d="m0 0 4 5 6 10 9 11 11 9 18 10 1 2-6-2-14-7-10-8-8-8-9-14-2-5z" fill="#FDFEFD"/>
<path transform="translate(824,873)" d="m0 0h13l6 1v4l-14 3-8-1-1-5z" fill="#007E50"/>
<path transform="translate(1022,978)" d="m0 0h49v1l-36 1 8 1 21 1v1h-51v-1l8-1z" fill="#00946B"/>
<path transform="translate(1420,955)" d="m0 0h7l-4 3-2 1h-105v-1l85-1 18-1z" fill="#31B194"/>
<path transform="translate(187,1306)" d="m0 0h13l5 3v14l-3 16h-1l1-12 1-7v-10l-3-1h-9l-6 9-6 21h-1v-7l6-20z" fill="#31B194"/>
<path transform="translate(1155,1060)" d="m0 0h2l1 4v17h-1v-5h-3v16h-1l-2-11-2 5-1-4 5-20z" fill="#00936A"/>
<path transform="translate(720,1048)" d="m0 0 2 1-9 6-23 11-16 5h-10v-1l11-2 11-6 16-5 17-8z" fill="#FDFEFD"/>
<path transform="translate(836,1347)" d="m0 0 1 2-1 8 3 8 3 2h6l10-11 6-2h12v1l-10 1-10 6-4 6-4 3-9-1-3-2-2-10v-7z" fill="#31B194"/>
<path transform="translate(55,1260)" d="m0 0 7 1 9 6 3 3-1 2-7-6-5-2h-10l-11 4-11 6-12 12 2-5 9-10 15-8z" fill="#31B194"/>
<path transform="translate(1402,1375)" d="m0 0 5 2 3 1 2 5-2 1h-11l-8-2-1-3 3-3h7z" fill="#028051"/>
<path transform="translate(1434,1354)" d="m0 0h4l-1 9-4 6-4-2-5-5v-4z" fill="#007D4D"/>
<path transform="translate(907,905)" d="m0 0h1l-1 10-5 25-6 35-4 18h-1l1-13 6-29 5-32 3-10z" fill="#31B194"/>
<path transform="translate(1192,907)" d="m0 0h1l-1 12-6 31h-1v-24l2-11 2-3h2z" fill="#15A78B"/>
<path transform="translate(1573,1296)" d="m0 0 12 1 20 1 3 1-1 3-1-1h-9l-6 2-5-1-9-3h-4l-4 15h-1l1-10 1-7z" fill="#31B194"/>
<path transform="translate(786,992)" d="m0 0h9l16 3 12 1v1h-34l-11 1-1 1h-6l3-3z" fill="#60C2AC"/>
<path transform="translate(1664,1374)" d="m0 0 7 1 3 6v2h-2v2h-4v-2h-10l-2-1 1-4z" fill="#017C4D"/>
<path transform="translate(1765,1354)" d="m0 0h1l2 9 7 3 1 2 5-1 4-7 1 2-5 9-2 3h-2l-1 2-9-6-2-4z" fill="#31B194"/>
<path transform="translate(1222,705)" d="m0 0h2v4l2 1v19l-3 9h-1l-2-20z" fill="#007B4C"/>
<path transform="translate(491,1344)" d="m0 0h1l-1 12-3 21v6h12l2-13 2-3-1 11-2 6-2 1h-14l-1-1 1-10 5-26z" fill="#31B194"/>
<path transform="translate(733,1145)" d="m0 0 4 1-15 7-22 8-14 3h-5v-2l19-4 14-5 8-4z" fill="#13A68B"/>
<path transform="translate(815,1265)" d="m0 0h2v11l-2 3-7-1-6-2 1-4 3-3 7-1z" fill="#007D4D"/>
<path transform="translate(1330,780)" d="m0 0h17l11 1v1l-8 1v2l-7 2h-10l-3-5z" fill="#007B4B"/>
<path transform="translate(1217,687)" d="m0 0 2 1-1 16-4 25-6 29h-2l1-10 5-23 3-19 1-10z" fill="#31B194"/>
<path transform="translate(796,1282)" d="m0 0 2 4v6l-4 7-2 3-5-2-2-1v-5l-4-1h7l3-3z" fill="#30B093"/>
<path transform="translate(676,1279)" d="m0 0 2 1-8 4-10 2-10-1h-9l2-2h8v-2l3-1z" fill="#31B194"/>
<path transform="translate(615,1270)" d="m0 0 1 2-2 6-1 9-3 12-3 17-3 2 3-17 1-16 3-10z" fill="#3AB498"/>
<path transform="translate(1904,1374)" d="m0 0h5l6 4 7 4v1h-20l-2-6z" fill="#017E4F"/>
<path transform="translate(1268,1357)" d="m0 0h1l-1 26 2 1-10-1 1-8 6-14z" fill="#38B296"/>
<path transform="translate(1963,1326)" d="m0 0h1l-1 16-3 16-4 11-2-1 4-25 4-16z" fill="#FDFEFD"/>
<path transform="translate(942,1135)" d="m0 0h1l-1 10-3 10-5 4-2 1h-29l-21-1v-1l46-1 8-2 4-11z" fill="#31B194"/>
<path transform="translate(875,832)" d="m0 0 2 3 1 7h2v7l-7 2h-45v-1l46-1v-10z" fill="#18A88C"/>
<path transform="translate(1037,1259)" d="m0 0h9l3 1 1 2v6l-17-3-2-2 2-3z" fill="#FDFEFD"/>
<path transform="translate(1629,1292)" d="m0 0h6l1 3v14h-1v-12l-7 2-2-1-4 18-4 8-1-3 8-26z" fill="#03946B"/>
<path transform="translate(849,1158)" d="m0 0 3 2v13l2 5-7 5-1 2 2 1h-5v-5l3-9h2l2-10z" fill="#06A287"/>
<path transform="translate(1204,810)" d="m0 0 2 2v9l-2 16h-3l-1-13v-9l1-4z" fill="#007B4B"/>
<path transform="translate(1033,783)" d="m0 0 2 2v7l-2 9-2 10-3 3v-16l2-10h2z" fill="#017F51"/>
<path transform="translate(505,789)" d="m0 0 1 2-9 15-5 9-8 16-2 6-4 3 1-5 4-8 3-7 7-12 3-6 4-7h2l2-5z" fill="#01956D"/>
<path transform="translate(1586,1328)" d="m0 0 1 2-8 27-7 25-1 2-4 1-2-2 4-1 1-5 2-7 7-23 6-18z" fill="#31B194"/>
<path transform="translate(1406,897)" d="m0 0h16l-4 2-12 1-79-1v-1z" fill="#31B194"/>
<path transform="translate(625,813)" d="m0 0 2 1-10 10-7 8-9 10-8 11-1-2 8-12 7-8 6-8 4-3h2v-2z" fill="#FDFEFD"/>
<path transform="translate(1814,1294)" d="m0 0h3v9l-1 6-2 1-2 4-3-2v-9l3-7h2z" fill="#048154"/>
<path transform="translate(890,907)" d="m0 0h1l-1 10-9 44h-1l1-14 4-23z" fill="#FDFEFD"/>
<path transform="translate(1444,1316)" d="m0 0h1l-1 20-4 3h-5l1-5 3-3 1-10 2-4z" fill="#017D4E"/>
<path transform="translate(407,1271)" d="m0 0h5v9l-1 1h-10l-1-1v-6z" fill="#027F51"/>
<path transform="translate(1078,987)" d="m0 0h39l19 1v1l-20 1-4 1-34-3z" fill="#FDFEFD"/>
<path transform="translate(1814,1259)" d="m0 0 9 1 2 4-7-2 2 5 3 4v6l-1-2h-2l-3-5-1-3-5 2-3 2 2-5 2-6z" fill="#139E79"/>
<path transform="translate(898,946)" d="m0 0h1l-1 11-5 23-1 6h-1v-22l5-13z" fill="#06A287"/>
<path transform="translate(460,1275)" d="m0 0 5 3 4 1-6 4-8 5-5-2 3-7h3z" fill="#059870"/>
<path transform="translate(939,683)" d="m0 0 2 1 2 5v14l-2 7-2-1-1-9v-16z" fill="#007B4B"/>
<path transform="translate(564,945)" d="m0 0h1v47l-2-4-2-16v-12l2-13z" fill="#FDFEFD"/>
<path transform="translate(15,1288)" d="m0 0 1 2-5 11-4 15-4 19-3 3v-12l3-4 5-20z" fill="#31B194"/>
<path transform="translate(752,1165)" d="m0 0 2 2-4 4-7 3-2 1v-2l-5 2h-3v3l-9 4-4-1 5-1-1-3 1-2 12-3 12-5h3z" fill="#06A287"/>
<path transform="translate(854,1064)" d="m0 0 1 3-3 10-10 12-5 5h-3l11-15z" fill="#35B296"/>
<path transform="translate(992,1370)" d="m0 0h1l-1 9-2 4-9 2h-25l4-2h7l1-4h5l3 3h11l3-4z" fill="#2FB093"/>
<path transform="translate(915,850)" d="m0 0h2l-1 12-4 23h-1v-18l-1-3 1-3v-8h3z" fill="#17A78B"/>
<path transform="translate(658,783)" d="m0 0h9l1 1 10 1v2l-9 2-10 3h-6l3-2 11-2v-3l-10 3h-7l2-3z" fill="#05966D"/>
<path transform="translate(1859,1356)" d="m0 0 1 3-5 9-5 3-5 1-9-2-3-3v-7l2 4 6 3h9l6-5z" fill="#31B194"/>
<path transform="translate(403,1304)" d="m0 0 2 4-4 20-3 13h-3l4-20 1-4v-11z" fill="#007B4B"/>
<path transform="translate(196,1357)" d="m0 0h1l-1 9-3 17h13l4-18 2-2-2 11-2 9-2 2h-16l-1-3 5-18z" fill="#31B194"/>
<path transform="translate(1471,870)" d="m0 0h2l1 7v16l-1 10-2 1-1-29z" fill="#007B4B"/>
<path transform="translate(625,679)" d="m0 0 2 1-1 3-7 3-6 2-10 7-9 2-3-1 7-3h3l5-5 10-5z" fill="#06A287"/>
<path transform="translate(1502,1298)" d="m0 0 6 1 4 8 1 9-2 3-3-1-1-10z" fill="#048153"/>
<path transform="translate(157,1354)" d="m0 0h1l-1 9-2 17-1 3h14l1-13h1v10l-1 4-2 1h-15l-1-5z" fill="#31B194"/>
<path transform="translate(20,1350)" d="m0 0h1l1 12 3 3 5 2 7-1 8-7 5-5-2 5-11 11-2 1h-7l-5-3-3-5z" fill="#31B194"/>
<path transform="translate(761,1049)" d="m0 0v3l-7 8-8 8-4 3-3 6-7 2-11 7-2-1 12-8 10-8 12-11z" fill="#1CA98D"/>
<path transform="translate(479,851)" d="m0 0 1 3-9 27-2 4 1-15 1-9 1-5 2-1 1 7z" fill="#0FA181"/>
<path transform="translate(1913,1354)" d="m0 0h1l1 10 6 3h6l4-3-2 5-4 3h-7l-5-3-1-3v-7z" fill="#31B194"/>
<path transform="translate(1429,1315)" d="m0 0h1v9l-6 6-10 1h-12l1-6 4-5v5l4 3 6 1 7-3 4-3z" fill="#31B194"/>
<path transform="translate(1440,897)" d="m0 0h2l1 7-2 18-2 9h-1v-18l1-14z" fill="#0F9068"/>
<path transform="translate(952,1361)" d="m0 0 5 4 9 1 7-4-2 4-5 5h-10l-4-3z" fill="#31B194"/>
<path transform="translate(844,998)" d="m0 0 20 2 2 1-1 5-1 2-4-1v-3l-11-1v-2l-5-1z" fill="#008153"/>
<path transform="translate(1559,1349)" d="m0 0h1l-1 11-1 7v14l1 2 6 1v1h-11l-1-5 4-22z" fill="#31B194"/>
<path transform="translate(805,1259)" d="m0 0h8l3 3-4 3-4-1h-2l-6 9-2 2 1-9 4-6z" fill="#E6F4EF"/>
<path transform="translate(1496,733)" d="m0 0h1l-1 11-5 24-3 10-4 2-9-1v-1l9-1 3-4 6-26z" fill="#31B194"/>
<path transform="translate(1989,1274)" d="m0 0 2 2-2 17v8l1 5h2v3l-4-1-2-5v-16z" fill="#31B194"/>
<path transform="translate(1392,1155)" d="m0 0 2 2-4 2-13 1h-47v-1l43-1 3-1 15-1z" fill="#31B194"/>
<path transform="translate(1797,1319)" d="m0 0h4v8l-2 6-4 4-1-1 1-14z" fill="#007C4D"/>
<path transform="translate(719,1168)" d="m0 0h2v2l-12 5-32 5h-11v-1l22-3 16-3z" fill="#1EAA8E"/>
<path transform="translate(1182,963)" d="m0 0h1l-1 11-6 28h-1l2-29 3-2z" fill="#1AA88D"/>
<path transform="translate(784,1131)" d="m0 0 2 1-6 6h-2v4l-8 3-5 4h-2v2l-5 2-5 1 3-3 15-10 12-9z" fill="#18A88C"/>
<path transform="translate(562,1184)" d="m0 0 13 2 11 3 5 5-7-1-22-7z" fill="#FDFEFD"/>
<path transform="translate(1181,763)" d="m0 0 3 1-6 2-4 1-29-1v-2z" fill="#2BAF92"/>
<path transform="translate(892,914)" d="m0 0h1l1 17v14l-2 5-7 1 1-5 4-2 1-7z" fill="#05A185"/>
<path transform="translate(278,1340)" d="m0 0h1v7l-5 26-1 11h6v1h-9l1-10 6-31z" fill="#31B194"/>
<path transform="translate(342,1355)" d="m0 0 4 4-1 5-6 5-5 2-6-1-2-4 8 1 6-4 2-3z" fill="#31B194"/>
<path transform="translate(1632,1260)" d="m0 0h11l3 3-7-1 2 9-5-4-4 1-3 1 1-6z" fill="#2EAC8E"/>
<path transform="translate(573,886)" d="m0 0 4 1-7 17-2 4-2-3 2-9z" fill="#FDFEFD"/>
<path transform="translate(1031,1264)" d="m0 0 13 2v1l-6 2-6 3-2 10-2 11h-1v-9l3-18z" fill="#3BB499"/>
<path transform="translate(1761,1376)" d="m0 0 5 2 3 1v2l3 1v2h-8l-7-2 1-5z" fill="#007B4B"/>
<path transform="translate(862,1291)" d="m0 0 8 1v1l-16 2-9 1v2l-8 4-6 5 2-4 5-5 8-4z" fill="#31B194"/>
<path transform="translate(1739,1260)" d="m0 0h7l5 2 2 6-1 2-5-1-2-4-4-2v-2z" fill="#FDFEFD"/>
<path transform="translate(1112,743)" d="m0 0h14l13 1 3 2h-25l-10-1v-1z" fill="#028052"/>
<path transform="translate(1825,1376)" d="m0 0h9l6 4-1 2h-12l-3-5z" fill="#007C4C"/>
<path transform="translate(1860,1293)" d="m0 0h14l6 3 7 9v2h2l-1 3-4-4-6-8-6-3h-10l-13 1 3-2z" fill="#31B194"/>
<path transform="translate(861,1051)" d="m0 0h4v2l2 1-1 5 2 1-9 1-4 3 3-9z" fill="#31B194"/>
<path transform="translate(1538,1359)" d="m0 0h1l1 9 4 7 1 8-2 2h-10v-1h9l-4-13z" fill="#31B194"/>
<path transform="translate(860,1153)" d="m0 0 2 1-3 17v3l9 1 21 1v1h-31l-1-1 1-13z" fill="#31B194"/>
<path transform="translate(1510,674)" d="m0 0h10l-1 6-2 2-5-1-4-6z" fill="#007F50"/>
<path transform="translate(944,1345)" d="m0 0h2l-1 4-3 6h-2l-1 16-2-3v-8l2-9 2-4h3z" fill="#09895D"/>
<path transform="translate(880,1125)" d="m0 0h1l-1 14-1 17v2l-5-1 1-7z" fill="#31B194"/>
<path transform="translate(1314,844)" d="m0 0 2 1-3 4h-3l-2 6-3 5-1 5h-1v-8l2-12 7 1z" fill="#06A287"/>
<path transform="translate(878,1335)" d="m0 0 1 4-1 3-9 2-17 1 3-7h2v4l19-2z" fill="#31B194"/>
<path transform="translate(115,1306)" d="m0 0h6l7 5 2 6v12l-2 12h-1l1-13v-10l-3-6-5-3-7 1z" fill="#31B194"/>
<path transform="translate(872,776)" d="m0 0 3 4 6 13 4 11-1 3-5-10-4-12-4-8z" fill="#31B194"/>
<path transform="translate(1510,757)" d="m0 0 1 4-4 16-3 9h-1l1-8 2-13z" fill="#FDFEFD"/>
<path transform="translate(1439,1348)" d="m0 0 1 2-2 4-15 5-4 3 2-5 5-3 11-5z" fill="#1EA685"/>
<path transform="translate(229,1306)" d="m0 0h7l9 4 1 10-2 11h-1v-19l-3-2-10-1-4 2 2-4z" fill="#31B194"/>
<path transform="translate(1632,1322)" d="m0 0 1 4-5 25-2 9h-1v-9l4-19z" fill="#18A380"/>
<path transform="translate(405,1308)" d="m0 0 1 4-6 30-2-3 1-9 3-11 2-10z" fill="#119F7A"/>
<path transform="translate(1472,746)" d="m0 0h1l-1 11-2 5-12 1v-3l10-3 3-7z" fill="#07865B"/>
<path transform="translate(1369,1300)" d="m0 0 3 1-1 8-1 7-4-1v-9z" fill="#007B4B"/>
<path transform="translate(338,1306)" d="m0 0 7 2v1l-7 1-3 5 2 6 3 4-4-2-4-6v-6l3-4z" fill="#31B194"/>
<path transform="translate(1312,1076)" d="m0 0h15l6 2v1h-28l1-2z" fill="#06A287"/>
<path transform="translate(889,819)" d="m0 0h2l2 6 2-1 1 16v10h-1l-4-23z" fill="#1AA584"/>
<path transform="translate(1413,1293)" d="m0 0h20l7 2 5 8 1 5-2-1-4-9-4-2-9-1h-18z" fill="#31B194"/>
<path transform="translate(1176,932)" d="m0 0 1 2-2 15-5 18-1-4 6-30z" fill="#06A287"/>
<path transform="translate(1140,1132)" d="m0 0 2 4v9l-2 7-3-4 1-13h2z" fill="#007C4C"/>
<path transform="translate(1166,779)" d="m0 0h28l3 2-2 6h-6l2-5v-1l-25-1z" fill="#05A186"/>
<path transform="translate(116,1293)" d="m0 0h18l6 4h-3l-4-2h-14l-8 2-8 4-2-1 5-4z" fill="#31B194"/>
<path transform="translate(615,1270)" d="m0 0 1 2-3 6-3 15-2 4v-12l3-10z" fill="#FDFEFD"/>
<path transform="translate(746,781)" d="m0 0 6 2 10 7-3 1-1 2-13-10z" fill="#14A68A"/>
<path transform="translate(1485,1294)" d="m0 0h6v1l-10 3-9 5-4 5-2 4h-2l2-5 4-6 8-5z" fill="#2CAE90"/>
<path transform="translate(403,1261)" d="m0 0h7v8l-2-1v-2l-6 3-3 5-2-1z" fill="#30B093"/>
<path transform="translate(747,1156)" d="m0 0 2 1-3 3h-2v3l-4 2-9 1-9 2 2-2 16-6z" fill="#16A78C"/>
<path transform="translate(1215,771)" d="m0 0 2 1-5 26-2 3v-8l4-20z" fill="#007B4B"/>
<path transform="translate(1555,1278)" d="m0 0 1 2v13l1 7-4 9-1-4 1-3v-18z" fill="#31B194"/>
<path transform="translate(1375,899)" d="m0 0h31v1l-9 1-25 1z" fill="#058458"/>
<path transform="translate(1112,897)" d="m0 0h35l-3 2-17 1-1-1-14-1z" fill="#2AAE92"/>
<path transform="translate(706,1341)" d="m0 0h10l14 1-1 3-2-1h-18l-5 1-9-1v-1l10-1z" fill="#31B194"/>
<path transform="translate(1e3 987)" d="m0 0h6l-2 11-5-1z" fill="#34B295"/>
<path transform="translate(1342,1281)" d="m0 0 2 1-4 2-11 1h-24l3-2 24-1z" fill="#31B194"/>
<path transform="translate(557,1056)" d="m0 0 5 5 7 8 8 7 3 4-5-2-13-13-5-7z" fill="#31B194"/>
<path transform="translate(824,873)" d="m0 0h13l6 1v4l-8 2h-6l4-2 4-1v-2l-13-1z" fill="#00946A"/>
<path transform="translate(521,762)" d="m0 0v3l-5 7-5 3-4 6-1-2 6-9 5-5z" fill="#15956E"/>
<path transform="translate(1780,1381)" d="m0 0 9 1 8 1v1l-6 1h-25v-1l10-1z" fill="#31B194"/>
<path transform="translate(1474,861)" d="m0 0h6l1 3h-2l-1 7h-3l-3-9z" fill="#4ABAA1"/>
<path transform="translate(547,1298)" d="m0 0 6 2v9l-2 1-4-4z" fill="#007B4C"/>
<path transform="translate(1375,1262)" d="m0 0h5l3 4 1 8-7-5v-5h-2z" fill="#FDFEFD"/>
<path transform="translate(1163,1134)" d="m0 0h1l-1 13v11l-5 1 1-8z" fill="#31B194"/>
<path transform="translate(721,1185)" d="m0 0h5l-3 2-16 6-9 1 4-3z" fill="#FDFEFD"/>
<path transform="translate(862,1028)" d="m0 0h3l-2 6-4 9 7-1-2 2h-8l1-5 4-10z" fill="#14A281"/>
<path transform="translate(1196,824)" d="m0 0h1l1 7v9l-3 6-4 2 2-6h2v-13z" fill="#06A287"/>
<path transform="translate(527,760)" d="m0 0 1 2-2 4-7 6-3 6-4 1 2-5 5-7 4-2z" fill="#009368"/>
<path transform="translate(1926,1381)" d="m0 0 14 1-1 2-17 1-10-1v-1l13-1z" fill="#2CAF92"/>
<path transform="translate(487,832)" d="m0 0 2 2-5 12-3 5h-1l1-8 5-10z" fill="#2BAE92"/>
<path transform="translate(1519,701)" d="m0 0h1l-1 10-3 18h-1v-10l1-13 1-3h2z" fill="#FDFEFD"/>
<path transform="translate(663,1323)" d="m0 0 1 2-4 5-7 2h-13l-8-1v-1l24-1z" fill="#2EB093"/>
<path transform="translate(535,1328)" d="m0 0h2l1 2v11l-4 1v-12z" fill="#007B4B"/>
<path transform="translate(938,1148)" d="m0 0 1 3-3 5-10 2h-18v-1l14-1 12-2z" fill="#05A083"/>
<path transform="translate(864,1082)" d="m0 0h1v10l-3 15-2 1v-10z" fill="#089A75"/>
<path transform="translate(1e3 979)" d="m0 0h20l1 2-10 2-11-3z" fill="#007B4B"/>
<path transform="translate(583,1155)" d="m0 0 20 4 8 3-4 1-21-5-3-1z" fill="#06A287"/>
<path transform="translate(1479,864)" d="m0 0h2v10l-5 10-1-6 2-5z" fill="#018154"/>
<path transform="translate(589,840)" d="m0 0 2 2-2 5h-2l-2 4-2 3h-2l1-5 5-8z" fill="#009368"/>
<path transform="translate(1210,807)" d="m0 0h1l-1 11-4 19h-1v-15l3-5z" fill="#1FA889"/>
<path transform="translate(707,1059)" d="m0 0h2l-1 5-9 3-4-2z" fill="#00946A"/>
<path transform="translate(850,875)" d="m0 0 10 1v1h-6v3l2 1h-13l1-2h4v-3z" fill="#0F9B76"/>
<path transform="translate(1502,1360)" d="m0 0 1 4-6 9h-2l1-8z" fill="#048254"/>
<path transform="translate(794,1282)" d="m0 0 1 2-5 9-4 1-5-1 3-3 6-3z" fill="#FDFEFD"/>
<path transform="translate(733,1145)" d="m0 0 4 1-15 7-5 1 2-4z" fill="#18A88C"/>
<path transform="translate(591,853)" d="m0 0 1 2-11 22-1-4 7-14z" fill="#FDFEFD"/>
<path transform="translate(879,1139)" d="m0 0h1l1 9v9h9v1h-11l-1-2z" fill="#06A287"/>
<path transform="translate(691,783)" d="m0 0h10l11 2v1h-19l-4-2z" fill="#03946B"/>
<path transform="translate(1286,1303)" d="m0 0h1v11l-2 9h-1v-18z" fill="#007B4B"/>
<path transform="translate(460,1281)" d="m0 0 4 1-5 4-5 2-4-3 3-3h6z" fill="#2EAF93"/>
<path transform="translate(1048,780)" d="m0 0h9l9 1v1l-17 2-2-3z" fill="#007B4B"/>
<path transform="translate(1325,1367)" d="m0 0h1v7l-3 10-2 1h-8l1-2h8l-1-5h2z" fill="#31B194"/>
<path transform="translate(1480,874)" d="m0 0h1v10l-1 9-1-2-2-1 1-13z" fill="#87D0BF"/>
<path transform="translate(782,840)" d="m0 0 3 3 4 8 2 7v6l-2-3-5-15z" fill="#FDFEFD"/>
<path transform="translate(1500,793)" d="m0 0v3l-1 1h-12l-13-1v-1l23-1z" fill="#028A61"/>
<path transform="translate(1145,955)" d="m0 0h4l-1 3h-34v-1l29-1z" fill="#1EA98C"/>
<path transform="translate(505,789)" d="m0 0 1 2-9 15-4 4 2-7 5-8h2l2-5z" fill="#029974"/>
<path transform="translate(289,1340)" d="m0 0 2 1v11l-4-2v-8z" fill="#007B4B"/>
<path transform="translate(458,983)" d="m0 0h1l1 17 1 10h-3z" fill="#1FA786"/>
<path transform="translate(906,905)" d="m0 0 1 4-3 10-2 13h-1l1-14 3-12z" fill="#06A287"/>
<path transform="translate(807,878)" d="m0 0h8l3 3h-17v-2z" fill="#007D4D"/>
<path transform="translate(1513,1313)" d="m0 0h1l2 8-13 4-6-2 1-2 9 1 5-1z" fill="#2EB093"/>
<path transform="translate(177,1339)" d="m0 0 1 4-4 16-2-4 3-14z" fill="#1AA482"/>
<path transform="translate(1785,1299)" d="m0 0 5 1 3 2v2l-5 2h-3z" fill="#007E4E"/>
<path transform="translate(1132,1168)" d="m0 0h2v14l-4 1z" fill="#06A287"/>
<path transform="translate(1395,1152)" d="m0 0 1 2-1 2-8 1h-11l3-2 15-2z" fill="#09A388"/>
<path transform="translate(543,1293)" d="m0 0 6 1 6 5v6l-2 1-2-7-4-3-4-1z" fill="#2EB093"/>
<path transform="translate(360,1314)" d="m0 0 4 1 2 5-1 1h-5l-1-6z" fill="#017D4D"/>
<path transform="translate(719,1168)" d="m0 0h2v2l-12 5h-5v-2z" fill="#19A88C"/>
<path transform="translate(804,1342)" d="m0 0 1 4-3 14h-1v-15h3z" fill="#17A88C"/>
<path transform="translate(1274,1328)" d="m0 0 1 2-4 22h-1l1-18z" fill="#48B9A0"/>
<path transform="translate(1277,1313)" d="m0 0 2 1-3 12-3 6-1-4z" fill="#7CCDBB"/>
<path transform="translate(1400,1309)" d="m0 0h4l-1 7-4 2z" fill="#007B4B"/>
<path transform="translate(2e3 1307)" d="m0 0h6l2 7-5-1-2-1z" fill="#31B194"/>
<path transform="translate(301,1260)" d="m0 0 5 1-1 6-1-2-5 2-3 3 2-5z" fill="#3BB499"/>
<path transform="translate(784,1131)" d="m0 0 2 1-6 6h-2v4l-6 1 3-5z" fill="#12A587"/>
<path transform="translate(1154,1076)" d="m0 0h3l-1 13-2 3z" fill="#06A287"/>
<path transform="translate(1440,1067)" d="m0 0h3l-1 7h-8l2-1v-2z" fill="#06A287"/>
<path transform="translate(170,1304)" d="m0 0 1 4-4 11h-1v-9l2-5z" fill="#099972"/>
<path transform="translate(1738,1283)" d="m0 0 3 6v14h-1l-1-12h-4v-2h2z" fill="#31B194"/>
<path transform="translate(690,1160)" d="m0 0h7l-1 2-10 2h-5v-2z" fill="#19A88C"/>
<path transform="translate(458,887)" d="m0 0 3 2v6l-4 4-2 3 1-7z" fill="#179A75"/>
<path transform="translate(698,772)" d="m0 0h12l-2 2-9 2-4-1z" fill="#05A083"/>
<path transform="translate(529,751)" d="m0 0 2 1-3 5-2 1-3 5h-3v-2h2l2-4z" fill="#008354"/>
<path transform="translate(307,1369)" d="m0 0 3 4 4 7 6 3v1l-7-1-4-6-2-5z" fill="#31B194"/>
<path transform="translate(259,1329)" d="m0 0 1 4-3 14h-1v-10z" fill="#1AA482"/>
<path transform="translate(501,1299)" d="m0 0h2l-1 4-3 10-2 9h-1l1-10z" fill="#1CA98D"/>
<path transform="translate(1036,846)" d="m0 0h1v8l-1 7-3-2 1-7z" fill="#FDFEFD"/>
<path transform="translate(165,1316)" d="m0 0 2 3-1 7-2 6-1 5h-1l1-11z" fill="#1EA685"/>
<path transform="translate(1622,1307)" d="m0 0 1 3-2 8-3 6-1-3 4-13z" fill="#009368"/>
<path transform="translate(1157,911)" d="m0 0 2 1-3 19h-1v-14z" fill="#1DA584"/>
<path transform="translate(1321,850)" d="m0 0 1 4-1 7h-2l-1-2v-7z" fill="#FDFEFD"/>
<path transform="translate(938,1355)" d="m0 0h2l-1 16-2-3v-8z" fill="#007B4B"/>
<path transform="translate(315,1355)" d="m0 0 4 1 3 3-1 4-4-2z" fill="#028154"/>
<path transform="translate(974,1336)" d="m0 0 2 1 1 8-3-3h-6l5-5z" fill="#31B194"/>
<path transform="translate(165,1326)" d="m0 0 1 4-1 8-4 3v-4h2l1-10z" fill="#079870"/>
<path transform="translate(1768,1301)" d="m0 0 4 1-3 4-5 2v-4z" fill="#007B4B"/>
<path transform="translate(1540,1269)" d="m0 0h5l-4 4-3 2h-3l2-5z" fill="#FDFEFD"/>
<path transform="translate(1407,897)" d="m0 0h15l-4 2-12 1z" fill="#3BB59A"/>
<path transform="translate(1538,1373)" d="m0 0h2l2 11h-5l1-8z" fill="#008254"/>
<path transform="translate(129,1329)" d="m0 0h1v16l-3 1 1-10z" fill="#009368"/>
<path transform="translate(970,1305)" d="m0 0 10 1-2 2-7 3z" fill="#2CAF92"/>
<path transform="translate(1370,1272)" d="m0 0h3l1 3-2 6-3-3z" fill="#007B4B"/>
<path transform="translate(1172,873)" d="m0 0 3 1-2 4h-5l-1-4z" fill="#06A287"/>
<path transform="translate(475,845)" d="m0 0 2 2-2 13-3-4 2-9z" fill="#009368"/>
<path transform="translate(1372,1305)" d="m0 0h1v9l-1 5h-1l-1-10z" fill="#14A07C"/>
<path transform="translate(1788,1295)" d="m0 0h5l-1 7-6-3z" fill="#00936A"/>
<path transform="translate(1284,1272)" d="m0 0 1 3-2 15h-1l-1-10z" fill="#FDFEFD"/>
<path transform="translate(1814,1259)" d="m0 0 9 1 2 4-13-3z" fill="#09895D"/>
<path transform="translate(1154,931)" d="m0 0h1l-1 10-2 4v-12z" fill="#18A27F"/>
<path transform="translate(799,868)" d="m0 0 4 1 2 1-1 5-3-1z" fill="#007B4B"/>
<path transform="translate(725,1357)" d="m0 0h1v6l-2 4h-2l-1-4z" fill="#058355"/>
<path transform="translate(1830,1340)" d="m0 0h2l-2 4-5 6-1-2 3-6z" fill="#179D7A"/>
<path transform="translate(1329,1316)" d="m0 0h4l1 2v6l-3 2-1-8z" fill="#0B895F"/>
<path transform="translate(1603,1307)" d="m0 0 1 3-4 6-4 2 2-4z" fill="#048356"/>
<path transform="translate(838 1e3)" d="m0 0h6l-1 4 2 1h-6z" fill="#06A287"/>
<path transform="translate(1379,1105)" d="m0 0 2 1-5 2v-2z" fill="#25AB8C"/>
<path transform="translate(659,1381)" d="m0 0" fill="#FDFEFD"/>
<path transform="translate(658,1380)" d="m0 0" fill="#FDFEFD"/>
</svg>
